%TF.GenerationSoftware,KiCad,Pcbnew,8.0.1*%
%TF.CreationDate,2024-04-23T14:00:23-07:00*%
%TF.ProjectId,week4PCB,7765656b-3450-4434-922e-6b696361645f,rev?*%
%TF.SameCoordinates,Original*%
%TF.FileFunction,Profile,NP*%
%FSLAX46Y46*%
G04 Gerber Fmt 4.6, Leading zero omitted, Abs format (unit mm)*
G04 Created by KiCad (PCBNEW 8.0.1) date 2024-04-23 14:00:23*
%MOMM*%
%LPD*%
G01*
G04 APERTURE LIST*
%TA.AperFunction,Profile*%
%ADD10C,0.100000*%
%TD*%
G04 APERTURE END LIST*
D10*
X87816234Y10000000D02*
X110183766Y10000000D01*
X72000000Y25816234D02*
X87816234Y10000000D01*
X72000000Y48183766D02*
X72000000Y25816234D01*
X87816234Y64000000D02*
X72000000Y48183766D01*
X110183766Y64000000D02*
X87816234Y64000000D01*
X126000000Y48183766D02*
X110183766Y64000000D01*
X126000000Y25816234D02*
X126000000Y48183766D01*
X110183766Y10000000D02*
X126000000Y25816234D01*
X132515980Y50655893D02*
X132515980Y23543020D01*
X132363739Y51023435D02*
X132515980Y50655893D01*
X113051390Y70335784D02*
X132363739Y51023435D01*
X112683848Y70488025D02*
X113051390Y70335784D01*
X85372062Y70488025D02*
X112683848Y70488025D01*
X85004520Y70335784D02*
X85372062Y70488025D01*
X65692172Y51023435D02*
X85004520Y70335784D01*
X65539931Y50655893D02*
X65692172Y51023435D01*
X65539931Y23344107D02*
X65539931Y50655893D01*
X65692172Y22976565D02*
X65539931Y23344107D01*
X85004520Y3664216D02*
X65692172Y22976565D01*
X85372062Y3511975D02*
X85004520Y3664216D01*
X112683848Y3511975D02*
X85372062Y3511975D01*
X113051390Y3664216D02*
X112683848Y3511975D01*
X132363739Y22976565D02*
X113051390Y3664216D01*
X132380017Y23000017D02*
X132363739Y22976565D01*
X132395478Y23024014D02*
X132380017Y23000017D01*
X132410105Y23048530D02*
X132395478Y23024014D01*
X132423879Y23073535D02*
X132410105Y23048530D01*
X132436784Y23098998D02*
X132423879Y23073535D01*
X132448805Y23124891D02*
X132436784Y23098998D01*
X132459929Y23151182D02*
X132448805Y23124891D01*
X132470140Y23177841D02*
X132459929Y23151182D01*
X132479429Y23204835D02*
X132470140Y23177841D01*
X132487783Y23232132D02*
X132479429Y23204835D01*
X132495192Y23259701D02*
X132487783Y23232132D01*
X132501648Y23287509D02*
X132495192Y23259701D01*
X132507144Y23315522D02*
X132501648Y23287509D01*
X132511672Y23343708D02*
X132507144Y23315522D01*
X132515228Y23372033D02*
X132511672Y23343708D01*
X132517806Y23400464D02*
X132515228Y23372033D01*
X132519405Y23428966D02*
X132517806Y23400464D01*
X132520022Y23457507D02*
X132519405Y23428966D01*
X132519656Y23486052D02*
X132520022Y23457507D01*
X132518308Y23514567D02*
X132519656Y23486052D01*
X132515980Y23543020D02*
X132518308Y23514567D01*
X151402020Y8000000D02*
X174597980Y8000000D01*
X135000000Y24402020D02*
X151402020Y8000000D01*
X135000000Y47597980D02*
X135000000Y24402020D01*
X151402020Y64000000D02*
X135000000Y47597980D01*
X174597980Y64000000D02*
X151402020Y64000000D01*
X191000000Y47597980D02*
X174597980Y64000000D01*
X191000000Y24402020D02*
X191000000Y47597980D01*
X174597980Y8000000D02*
X191000000Y24402020D01*
X100625000Y5330232D02*
X97375000Y5330232D01*
X100625000Y6855971D02*
X100625000Y5330232D01*
X97375000Y6855971D02*
X100625000Y6855971D01*
X97375000Y5330232D02*
X97375000Y6855971D01*
X122542956Y15755141D02*
X120244859Y13457044D01*
X121464096Y16834001D02*
X122542956Y15755141D01*
X119165999Y14535904D02*
X121464096Y16834001D01*
X120244859Y13457044D02*
X119165999Y14535904D01*
X130669768Y38625000D02*
X130669768Y35375000D01*
X129144029Y38625000D02*
X130669768Y38625000D01*
X129144029Y35375000D02*
X129144029Y38625000D01*
X130669768Y35375000D02*
X129144029Y35375000D01*
X120244859Y60542956D02*
X122542956Y58244859D01*
X119165999Y59464096D02*
X120244859Y60542956D01*
X121464096Y57165999D02*
X119165999Y59464096D01*
X122542956Y58244859D02*
X121464096Y57165999D01*
X97375000Y68669768D02*
X100625000Y68669768D01*
X97375000Y67144029D02*
X97375000Y68669768D01*
X100625000Y67144029D02*
X97375000Y67144029D01*
X100625000Y68669768D02*
X100625000Y67144029D01*
X75457044Y58244859D02*
X77755141Y60542956D01*
X76535904Y57165999D02*
X75457044Y58244859D01*
X78834001Y59464096D02*
X76535904Y57165999D01*
X77755141Y60542956D02*
X78834001Y59464096D01*
X67330232Y35375000D02*
X67330232Y38625000D01*
X68855971Y35375000D02*
X67330232Y35375000D01*
X68855971Y38625000D02*
X68855971Y35375000D01*
X67330232Y38625000D02*
X68855971Y38625000D01*
X77755141Y13457044D02*
X75457044Y15755141D01*
X78834001Y14535904D02*
X77755141Y13457044D01*
X76535904Y16834001D02*
X78834001Y14535904D01*
X75457044Y15755141D02*
X76535904Y16834001D01*
M02*
