%TF.GenerationSoftware,KiCad,Pcbnew,8.0.1*%
%TF.CreationDate,2024-04-23T14:12:21-07:00*%
%TF.ProjectId,week4PCB,7765656b-3450-4434-922e-6b696361645f,rev?*%
%TF.SameCoordinates,Original*%
%TF.FileFunction,Profile,NP*%
%FSLAX46Y46*%
G04 Gerber Fmt 4.6, Leading zero omitted, Abs format (unit mm)*
G04 Created by KiCad (PCBNEW 8.0.1) date 2024-04-23 14:12:21*
%MOMM*%
%LPD*%
G01*
G04 APERTURE LIST*
%TA.AperFunction,Profile*%
%ADD10C,0.100000*%
%TD*%
G04 APERTURE END LIST*
D10*
X14268Y19375000D02*
X1025000Y19375000D01*
X3277Y19376914D02*
X14268Y19375000D01*
X-7773Y19378444D02*
X3277Y19376914D01*
X-18870Y19379588D02*
X-7773Y19378444D01*
X-30000Y19380346D02*
X-18870Y19379588D01*
X-41150Y19380715D02*
X-30000Y19380346D01*
X-52306Y19380696D02*
X-41150Y19380715D01*
X-63454Y19380288D02*
X-52306Y19380696D01*
X-74582Y19379492D02*
X-63454Y19380288D01*
X-85675Y19378309D02*
X-74582Y19379492D01*
X-96720Y19376741D02*
X-85675Y19378309D01*
X-107703Y19374789D02*
X-96720Y19376741D01*
X-118612Y19372456D02*
X-107703Y19374789D01*
X-129434Y19369744D02*
X-118612Y19372456D01*
X-140154Y19366657D02*
X-129434Y19369744D01*
X-150760Y19363199D02*
X-140154Y19366657D01*
X-161240Y19359373D02*
X-150760Y19363199D01*
X-171579Y19355185D02*
X-161240Y19359373D01*
X-181767Y19350639D02*
X-171579Y19355185D01*
X-191790Y19345742D02*
X-181767Y19350639D01*
X-201637Y19340498D02*
X-191790Y19345742D01*
X-211295Y19334914D02*
X-201637Y19340498D01*
X-220753Y19328998D02*
X-211295Y19334914D01*
X-229999Y19322756D02*
X-220753Y19328998D01*
X-239022Y19316195D02*
X-229999Y19322756D01*
X-247811Y19309325D02*
X-239022Y19316195D01*
X-256355Y19302152D02*
X-247811Y19309325D01*
X-264645Y19294687D02*
X-256355Y19302152D01*
X-272669Y19286937D02*
X-264645Y19294687D01*
X-280419Y19278912D02*
X-272669Y19286937D01*
X-287885Y19270623D02*
X-280419Y19278912D01*
X-295057Y19262078D02*
X-287885Y19270623D01*
X-301928Y19253289D02*
X-295057Y19262078D01*
X-308488Y19244266D02*
X-301928Y19253289D01*
X-314730Y19235020D02*
X-308488Y19244266D01*
X-320647Y19225563D02*
X-314730Y19235020D01*
X-326230Y19215905D02*
X-320647Y19225563D01*
X-331474Y19206058D02*
X-326230Y19215905D01*
X-336372Y19196035D02*
X-331474Y19206058D01*
X-340917Y19185847D02*
X-336372Y19196035D01*
X-345106Y19175507D02*
X-340917Y19185847D01*
X-348931Y19165028D02*
X-345106Y19175507D01*
X-352390Y19154422D02*
X-348931Y19165028D01*
X-355476Y19143701D02*
X-352390Y19154422D01*
X-358188Y19132880D02*
X-355476Y19143701D01*
X-360521Y19121971D02*
X-358188Y19132880D01*
X-362473Y19110987D02*
X-360521Y19121971D01*
X-364042Y19099942D02*
X-362473Y19110987D01*
X-365224Y19088849D02*
X-364042Y19099942D01*
X-366020Y19077722D02*
X-365224Y19088849D01*
X-366428Y19066573D02*
X-366020Y19077722D01*
X-366447Y19055418D02*
X-366428Y19066573D01*
X-366078Y19044268D02*
X-366447Y19055418D01*
X-365321Y19033138D02*
X-366078Y19044268D01*
X-364176Y19022041D02*
X-365321Y19033138D01*
X-362646Y19010990D02*
X-364176Y19022041D01*
X-360732Y19000000D02*
X-362646Y19010990D01*
X-360732Y17000000D02*
X-360732Y19000000D01*
X-362646Y16989010D02*
X-360732Y17000000D01*
X-364176Y16977959D02*
X-362646Y16989010D01*
X-365321Y16966862D02*
X-364176Y16977959D01*
X-366078Y16955732D02*
X-365321Y16966862D01*
X-366447Y16944582D02*
X-366078Y16955732D01*
X-366428Y16933427D02*
X-366447Y16944582D01*
X-366020Y16922278D02*
X-366428Y16933427D01*
X-365224Y16911151D02*
X-366020Y16922278D01*
X-364042Y16900058D02*
X-365224Y16911151D01*
X-362473Y16889013D02*
X-364042Y16900058D01*
X-360521Y16878029D02*
X-362473Y16889013D01*
X-358188Y16867120D02*
X-360521Y16878029D01*
X-355476Y16856299D02*
X-358188Y16867120D01*
X-352390Y16845578D02*
X-355476Y16856299D01*
X-348931Y16834972D02*
X-352390Y16845578D01*
X-345106Y16824493D02*
X-348931Y16834972D01*
X-340917Y16814153D02*
X-345106Y16824493D01*
X-336372Y16803965D02*
X-340917Y16814153D01*
X-331474Y16793942D02*
X-336372Y16803965D01*
X-326230Y16784095D02*
X-331474Y16793942D01*
X-320647Y16774437D02*
X-326230Y16784095D01*
X-314730Y16764980D02*
X-320647Y16774437D01*
X-308488Y16755734D02*
X-314730Y16764980D01*
X-301928Y16746711D02*
X-308488Y16755734D01*
X-295057Y16737922D02*
X-301928Y16746711D01*
X-287885Y16729377D02*
X-295057Y16737922D01*
X-280419Y16721088D02*
X-287885Y16729377D01*
X-272669Y16713063D02*
X-280419Y16721088D01*
X-264645Y16705313D02*
X-272669Y16713063D01*
X-256355Y16697848D02*
X-264645Y16705313D01*
X-247811Y16690675D02*
X-256355Y16697848D01*
X-239022Y16683805D02*
X-247811Y16690675D01*
X-229999Y16677244D02*
X-239022Y16683805D01*
X-220753Y16671002D02*
X-229999Y16677244D01*
X-211295Y16665086D02*
X-220753Y16671002D01*
X-201637Y16659502D02*
X-211295Y16665086D01*
X-191790Y16654258D02*
X-201637Y16659502D01*
X-181767Y16649361D02*
X-191790Y16654258D01*
X-171579Y16644815D02*
X-181767Y16649361D01*
X-161240Y16640627D02*
X-171579Y16644815D01*
X-150760Y16636801D02*
X-161240Y16640627D01*
X-140154Y16633343D02*
X-150760Y16636801D01*
X-129434Y16630256D02*
X-140154Y16633343D01*
X-118612Y16627544D02*
X-129434Y16630256D01*
X-107703Y16625211D02*
X-118612Y16627544D01*
X-96720Y16623259D02*
X-107703Y16625211D01*
X-85675Y16621691D02*
X-96720Y16623259D01*
X-74582Y16620508D02*
X-85675Y16621691D01*
X-63454Y16619712D02*
X-74582Y16620508D01*
X-52306Y16619304D02*
X-63454Y16619712D01*
X-41150Y16619285D02*
X-52306Y16619304D01*
X-30000Y16619654D02*
X-41150Y16619285D01*
X-18870Y16620412D02*
X-30000Y16619654D01*
X-7773Y16621556D02*
X-18870Y16620412D01*
X3277Y16623086D02*
X-7773Y16621556D01*
X14268Y16625000D02*
X3277Y16623086D01*
X1025000Y16625000D02*
X14268Y16625000D01*
X1025000Y5500000D02*
X1025000Y16625000D01*
X1026177Y5431831D02*
X1025000Y5500000D01*
X1029706Y5363742D02*
X1026177Y5431831D01*
X1035583Y5295817D02*
X1029706Y5363742D01*
X1043801Y5228134D02*
X1035583Y5295817D01*
X1054350Y5160776D02*
X1043801Y5228134D01*
X1067219Y5093822D02*
X1054350Y5160776D01*
X1082390Y5027352D02*
X1067219Y5093822D01*
X1099847Y4961445D02*
X1082390Y5027352D01*
X1119568Y4896180D02*
X1099847Y4961445D01*
X1141530Y4831634D02*
X1119568Y4896180D01*
X1165706Y4767885D02*
X1141530Y4831634D01*
X1192069Y4705009D02*
X1165706Y4767885D01*
X1220586Y4643080D02*
X1192069Y4705009D01*
X1251224Y4582172D02*
X1220586Y4643080D01*
X1283946Y4522358D02*
X1251224Y4582172D01*
X1318713Y4463709D02*
X1283946Y4522358D01*
X1355484Y4406295D02*
X1318713Y4463709D01*
X1394214Y4350184D02*
X1355484Y4406295D01*
X1434858Y4295444D02*
X1394214Y4350184D01*
X1477367Y4242139D02*
X1434858Y4295444D01*
X1521691Y4190333D02*
X1477367Y4242139D01*
X1567777Y4140088D02*
X1521691Y4190333D01*
X1615569Y4091463D02*
X1567777Y4140088D01*
X1665011Y4044517D02*
X1615569Y4091463D01*
X1716044Y3999306D02*
X1665011Y4044517D01*
X1768608Y3955883D02*
X1716044Y3999306D01*
X1822638Y3914300D02*
X1768608Y3955883D01*
X1878072Y3874607D02*
X1822638Y3914300D01*
X1934843Y3836851D02*
X1878072Y3874607D01*
X1992883Y3801077D02*
X1934843Y3836851D01*
X2052123Y3767327D02*
X1992883Y3801077D01*
X2112493Y3735643D02*
X2052123Y3767327D01*
X2173921Y3706061D02*
X2112493Y3735643D01*
X2236333Y3678616D02*
X2173921Y3706061D01*
X2299655Y3653343D02*
X2236333Y3678616D01*
X2363812Y3630270D02*
X2299655Y3653343D01*
X2428727Y3609425D02*
X2363812Y3630270D01*
X2494323Y3590834D02*
X2428727Y3609425D01*
X2560521Y3574517D02*
X2494323Y3590834D01*
X2627243Y3560496D02*
X2560521Y3574517D01*
X2694410Y3548785D02*
X2627243Y3560496D01*
X2761940Y3539400D02*
X2694410Y3548785D01*
X2829754Y3532351D02*
X2761940Y3539400D01*
X2897771Y3527648D02*
X2829754Y3532351D01*
X2965910Y3525294D02*
X2897771Y3527648D01*
X3034090Y3525294D02*
X2965910Y3525294D01*
X3102229Y3527648D02*
X3034090Y3525294D01*
X3170246Y3532351D02*
X3102229Y3527648D01*
X3238060Y3539400D02*
X3170246Y3532351D01*
X3305590Y3548785D02*
X3238060Y3539400D01*
X3372757Y3560496D02*
X3305590Y3548785D01*
X3439479Y3574517D02*
X3372757Y3560496D01*
X3505677Y3590834D02*
X3439479Y3574517D01*
X3571273Y3609425D02*
X3505677Y3590834D01*
X3636188Y3630270D02*
X3571273Y3609425D01*
X3700345Y3653343D02*
X3636188Y3630270D01*
X3763667Y3678616D02*
X3700345Y3653343D01*
X3826079Y3706061D02*
X3763667Y3678616D01*
X3887507Y3735643D02*
X3826079Y3706061D01*
X3947877Y3767327D02*
X3887507Y3735643D01*
X4007117Y3801077D02*
X3947877Y3767327D01*
X4065157Y3836851D02*
X4007117Y3801077D01*
X4121928Y3874607D02*
X4065157Y3836851D01*
X4177362Y3914300D02*
X4121928Y3874607D01*
X4231392Y3955883D02*
X4177362Y3914300D01*
X4283956Y3999306D02*
X4231392Y3955883D01*
X4334989Y4044517D02*
X4283956Y3999306D01*
X4384431Y4091463D02*
X4334989Y4044517D01*
X4432223Y4140088D02*
X4384431Y4091463D01*
X4478309Y4190333D02*
X4432223Y4140088D01*
X4522633Y4242139D02*
X4478309Y4190333D01*
X4565142Y4295444D02*
X4522633Y4242139D01*
X4605786Y4350184D02*
X4565142Y4295444D01*
X4644516Y4406295D02*
X4605786Y4350184D01*
X4681287Y4463709D02*
X4644516Y4406295D01*
X4716054Y4522358D02*
X4681287Y4463709D01*
X4748776Y4582172D02*
X4716054Y4522358D01*
X4779414Y4643080D02*
X4748776Y4582172D01*
X4807931Y4705009D02*
X4779414Y4643080D01*
X4834294Y4767885D02*
X4807931Y4705009D01*
X4858470Y4831634D02*
X4834294Y4767885D01*
X4880432Y4896180D02*
X4858470Y4831634D01*
X4900153Y4961445D02*
X4880432Y4896180D01*
X4917610Y5027352D02*
X4900153Y4961445D01*
X4932781Y5093822D02*
X4917610Y5027352D01*
X4945650Y5160776D02*
X4932781Y5093822D01*
X4956199Y5228134D02*
X4945650Y5160776D01*
X4964417Y5295817D02*
X4956199Y5228134D01*
X4970294Y5363742D02*
X4964417Y5295817D01*
X4973823Y5431831D02*
X4970294Y5363742D01*
X4975000Y5500000D02*
X4973823Y5431831D01*
X4976207Y5569895D02*
X4975000Y5500000D01*
X4979825Y5639707D02*
X4976207Y5569895D01*
X4985851Y5709352D02*
X4979825Y5639707D01*
X4994277Y5778748D02*
X4985851Y5709352D01*
X5005094Y5847812D02*
X4994277Y5778748D01*
X5018287Y5916461D02*
X5005094Y5847812D01*
X5033843Y5984614D02*
X5018287Y5916461D01*
X5051741Y6052190D02*
X5033843Y5984614D01*
X5071962Y6119107D02*
X5051741Y6052190D01*
X5094480Y6185286D02*
X5071962Y6119107D01*
X5119269Y6250649D02*
X5094480Y6185286D01*
X5146299Y6315118D02*
X5119269Y6250649D01*
X5175538Y6378615D02*
X5146299Y6315118D01*
X5206952Y6441064D02*
X5175538Y6378615D01*
X5240502Y6502393D02*
X5206952Y6441064D01*
X5276149Y6562527D02*
X5240502Y6502393D01*
X5313850Y6621394D02*
X5276149Y6562527D01*
X5353561Y6678925D02*
X5313850Y6621394D01*
X5395234Y6735052D02*
X5353561Y6678925D01*
X5438820Y6789706D02*
X5395234Y6735052D01*
X5484266Y6842823D02*
X5438820Y6789706D01*
X5531518Y6894341D02*
X5484266Y6842823D01*
X5580520Y6944196D02*
X5531518Y6894341D01*
X5631214Y6992330D02*
X5580520Y6944196D01*
X5683539Y7038686D02*
X5631214Y6992330D01*
X5737433Y7083209D02*
X5683539Y7038686D01*
X5792832Y7125844D02*
X5737433Y7083209D01*
X5849669Y7166542D02*
X5792832Y7125844D01*
X5907877Y7205254D02*
X5849669Y7166542D01*
X5967386Y7241934D02*
X5907877Y7205254D01*
X6028127Y7276538D02*
X5967386Y7241934D01*
X6090025Y7309025D02*
X6028127Y7276538D01*
X6153008Y7339356D02*
X6090025Y7309025D01*
X6217000Y7367495D02*
X6153008Y7339356D01*
X6281925Y7393408D02*
X6217000Y7367495D01*
X6347706Y7417065D02*
X6281925Y7393408D01*
X6414264Y7438437D02*
X6347706Y7417065D01*
X6481521Y7457500D02*
X6414264Y7438437D01*
X6549395Y7474229D02*
X6481521Y7457500D01*
X6617806Y7488606D02*
X6549395Y7474229D01*
X6686673Y7500613D02*
X6617806Y7488606D01*
X6755913Y7510235D02*
X6686673Y7500613D01*
X6825444Y7517463D02*
X6755913Y7510235D01*
X6895183Y7522285D02*
X6825444Y7517463D01*
X6965047Y7524698D02*
X6895183Y7522285D01*
X7034953Y7524698D02*
X6965047Y7524698D01*
X7104817Y7522285D02*
X7034953Y7524698D01*
X7174556Y7517463D02*
X7104817Y7522285D01*
X7244087Y7510235D02*
X7174556Y7517463D01*
X7313327Y7500613D02*
X7244087Y7510235D01*
X7382194Y7488606D02*
X7313327Y7500613D01*
X7450605Y7474229D02*
X7382194Y7488606D01*
X7518479Y7457500D02*
X7450605Y7474229D01*
X7585736Y7438437D02*
X7518479Y7457500D01*
X7652294Y7417065D02*
X7585736Y7438437D01*
X7718075Y7393408D02*
X7652294Y7417065D01*
X7783000Y7367495D02*
X7718075Y7393408D01*
X7846992Y7339356D02*
X7783000Y7367495D01*
X7909975Y7309025D02*
X7846992Y7339356D01*
X7971873Y7276538D02*
X7909975Y7309025D01*
X8032614Y7241934D02*
X7971873Y7276538D01*
X8092123Y7205254D02*
X8032614Y7241934D01*
X8150331Y7166542D02*
X8092123Y7205254D01*
X8207168Y7125844D02*
X8150331Y7166542D01*
X8262567Y7083209D02*
X8207168Y7125844D01*
X8316461Y7038686D02*
X8262567Y7083209D01*
X8368786Y6992330D02*
X8316461Y7038686D01*
X8419480Y6944196D02*
X8368786Y6992330D01*
X8468482Y6894341D02*
X8419480Y6944196D01*
X8515734Y6842823D02*
X8468482Y6894341D01*
X8561180Y6789706D02*
X8515734Y6842823D01*
X8604766Y6735052D02*
X8561180Y6789706D01*
X8646439Y6678925D02*
X8604766Y6735052D01*
X8686150Y6621394D02*
X8646439Y6678925D01*
X8723851Y6562527D02*
X8686150Y6621394D01*
X8759498Y6502393D02*
X8723851Y6562527D01*
X8793048Y6441064D02*
X8759498Y6502393D01*
X8824462Y6378615D02*
X8793048Y6441064D01*
X8853701Y6315118D02*
X8824462Y6378615D01*
X8880731Y6250649D02*
X8853701Y6315118D01*
X8905520Y6185286D02*
X8880731Y6250649D01*
X8928038Y6119107D02*
X8905520Y6185286D01*
X8948259Y6052190D02*
X8928038Y6119107D01*
X8966157Y5984614D02*
X8948259Y6052190D01*
X8981713Y5916461D02*
X8966157Y5984614D01*
X8994906Y5847812D02*
X8981713Y5916461D01*
X9005723Y5778748D02*
X8994906Y5847812D01*
X9014149Y5709352D02*
X9005723Y5778748D01*
X9020175Y5639707D02*
X9014149Y5709352D01*
X9023793Y5569895D02*
X9020175Y5639707D01*
X9025000Y5500000D02*
X9023793Y5569895D01*
X9026177Y5431831D02*
X9025000Y5500000D01*
X9029706Y5363742D02*
X9026177Y5431831D01*
X9035583Y5295817D02*
X9029706Y5363742D01*
X9043801Y5228134D02*
X9035583Y5295817D01*
X9054350Y5160776D02*
X9043801Y5228134D01*
X9067219Y5093822D02*
X9054350Y5160776D01*
X9082390Y5027352D02*
X9067219Y5093822D01*
X9099847Y4961445D02*
X9082390Y5027352D01*
X9119568Y4896180D02*
X9099847Y4961445D01*
X9141530Y4831634D02*
X9119568Y4896180D01*
X9165706Y4767885D02*
X9141530Y4831634D01*
X9192069Y4705009D02*
X9165706Y4767885D01*
X9220586Y4643080D02*
X9192069Y4705009D01*
X9251224Y4582172D02*
X9220586Y4643080D01*
X9283946Y4522358D02*
X9251224Y4582172D01*
X9318713Y4463709D02*
X9283946Y4522358D01*
X9355484Y4406295D02*
X9318713Y4463709D01*
X9394214Y4350184D02*
X9355484Y4406295D01*
X9434858Y4295444D02*
X9394214Y4350184D01*
X9477367Y4242139D02*
X9434858Y4295444D01*
X9521691Y4190333D02*
X9477367Y4242139D01*
X9567777Y4140088D02*
X9521691Y4190333D01*
X9615569Y4091463D02*
X9567777Y4140088D01*
X9665011Y4044517D02*
X9615569Y4091463D01*
X9716044Y3999306D02*
X9665011Y4044517D01*
X9768608Y3955883D02*
X9716044Y3999306D01*
X9822638Y3914300D02*
X9768608Y3955883D01*
X9878072Y3874607D02*
X9822638Y3914300D01*
X9934843Y3836851D02*
X9878072Y3874607D01*
X9992883Y3801077D02*
X9934843Y3836851D01*
X10052123Y3767327D02*
X9992883Y3801077D01*
X10112493Y3735643D02*
X10052123Y3767327D01*
X10173921Y3706061D02*
X10112493Y3735643D01*
X10236333Y3678616D02*
X10173921Y3706061D01*
X10299655Y3653343D02*
X10236333Y3678616D01*
X10363812Y3630270D02*
X10299655Y3653343D01*
X10428727Y3609425D02*
X10363812Y3630270D01*
X10494323Y3590834D02*
X10428727Y3609425D01*
X10560521Y3574517D02*
X10494323Y3590834D01*
X10627243Y3560496D02*
X10560521Y3574517D01*
X10694410Y3548785D02*
X10627243Y3560496D01*
X10761940Y3539400D02*
X10694410Y3548785D01*
X10829754Y3532351D02*
X10761940Y3539400D01*
X10897771Y3527648D02*
X10829754Y3532351D01*
X10965910Y3525294D02*
X10897771Y3527648D01*
X11034090Y3525294D02*
X10965910Y3525294D01*
X11102229Y3527648D02*
X11034090Y3525294D01*
X11170246Y3532351D02*
X11102229Y3527648D01*
X11238060Y3539400D02*
X11170246Y3532351D01*
X11305590Y3548785D02*
X11238060Y3539400D01*
X11372757Y3560496D02*
X11305590Y3548785D01*
X11439479Y3574517D02*
X11372757Y3560496D01*
X11505677Y3590834D02*
X11439479Y3574517D01*
X11571273Y3609425D02*
X11505677Y3590834D01*
X11636188Y3630270D02*
X11571273Y3609425D01*
X11700345Y3653343D02*
X11636188Y3630270D01*
X11763667Y3678616D02*
X11700345Y3653343D01*
X11826079Y3706061D02*
X11763667Y3678616D01*
X11887507Y3735643D02*
X11826079Y3706061D01*
X11947877Y3767327D02*
X11887507Y3735643D01*
X12007117Y3801077D02*
X11947877Y3767327D01*
X12065157Y3836851D02*
X12007117Y3801077D01*
X12121928Y3874607D02*
X12065157Y3836851D01*
X12177362Y3914300D02*
X12121928Y3874607D01*
X12231392Y3955883D02*
X12177362Y3914300D01*
X12283956Y3999306D02*
X12231392Y3955883D01*
X12334989Y4044517D02*
X12283956Y3999306D01*
X12384431Y4091463D02*
X12334989Y4044517D01*
X12432223Y4140088D02*
X12384431Y4091463D01*
X12478309Y4190333D02*
X12432223Y4140088D01*
X12522633Y4242139D02*
X12478309Y4190333D01*
X12565142Y4295444D02*
X12522633Y4242139D01*
X12605786Y4350184D02*
X12565142Y4295444D01*
X12644516Y4406295D02*
X12605786Y4350184D01*
X12681287Y4463709D02*
X12644516Y4406295D01*
X12716054Y4522358D02*
X12681287Y4463709D01*
X12748776Y4582172D02*
X12716054Y4522358D01*
X12779414Y4643080D02*
X12748776Y4582172D01*
X12807931Y4705009D02*
X12779414Y4643080D01*
X12834294Y4767885D02*
X12807931Y4705009D01*
X12858470Y4831634D02*
X12834294Y4767885D01*
X12880432Y4896180D02*
X12858470Y4831634D01*
X12900153Y4961445D02*
X12880432Y4896180D01*
X12917610Y5027352D02*
X12900153Y4961445D01*
X12932781Y5093822D02*
X12917610Y5027352D01*
X12945650Y5160776D02*
X12932781Y5093822D01*
X12956199Y5228134D02*
X12945650Y5160776D01*
X12964417Y5295817D02*
X12956199Y5228134D01*
X12970294Y5363742D02*
X12964417Y5295817D01*
X12973823Y5431831D02*
X12970294Y5363742D01*
X12975000Y5500000D02*
X12973823Y5431831D01*
X12976207Y5569895D02*
X12975000Y5500000D01*
X12979825Y5639707D02*
X12976207Y5569895D01*
X12985851Y5709352D02*
X12979825Y5639707D01*
X12994277Y5778748D02*
X12985851Y5709352D01*
X13005094Y5847812D02*
X12994277Y5778748D01*
X13018287Y5916461D02*
X13005094Y5847812D01*
X13033843Y5984614D02*
X13018287Y5916461D01*
X13051741Y6052190D02*
X13033843Y5984614D01*
X13071962Y6119107D02*
X13051741Y6052190D01*
X13094480Y6185286D02*
X13071962Y6119107D01*
X13119269Y6250649D02*
X13094480Y6185286D01*
X13146299Y6315118D02*
X13119269Y6250649D01*
X13175538Y6378615D02*
X13146299Y6315118D01*
X13206952Y6441064D02*
X13175538Y6378615D01*
X13240502Y6502393D02*
X13206952Y6441064D01*
X13276149Y6562527D02*
X13240502Y6502393D01*
X13313850Y6621394D02*
X13276149Y6562527D01*
X13353561Y6678925D02*
X13313850Y6621394D01*
X13395234Y6735052D02*
X13353561Y6678925D01*
X13438820Y6789706D02*
X13395234Y6735052D01*
X13484266Y6842823D02*
X13438820Y6789706D01*
X13531518Y6894341D02*
X13484266Y6842823D01*
X13580520Y6944196D02*
X13531518Y6894341D01*
X13631214Y6992330D02*
X13580520Y6944196D01*
X13683539Y7038686D02*
X13631214Y6992330D01*
X13737433Y7083209D02*
X13683539Y7038686D01*
X13792832Y7125844D02*
X13737433Y7083209D01*
X13849669Y7166542D02*
X13792832Y7125844D01*
X13907877Y7205254D02*
X13849669Y7166542D01*
X13967386Y7241934D02*
X13907877Y7205254D01*
X14028127Y7276538D02*
X13967386Y7241934D01*
X14090025Y7309025D02*
X14028127Y7276538D01*
X14153008Y7339356D02*
X14090025Y7309025D01*
X14217000Y7367495D02*
X14153008Y7339356D01*
X14281925Y7393408D02*
X14217000Y7367495D01*
X14347706Y7417065D02*
X14281925Y7393408D01*
X14414264Y7438437D02*
X14347706Y7417065D01*
X14481521Y7457500D02*
X14414264Y7438437D01*
X14549395Y7474229D02*
X14481521Y7457500D01*
X14617806Y7488606D02*
X14549395Y7474229D01*
X14686673Y7500613D02*
X14617806Y7488606D01*
X14755913Y7510235D02*
X14686673Y7500613D01*
X14825444Y7517463D02*
X14755913Y7510235D01*
X14895183Y7522285D02*
X14825444Y7517463D01*
X14965047Y7524698D02*
X14895183Y7522285D01*
X15034953Y7524698D02*
X14965047Y7524698D01*
X15104817Y7522285D02*
X15034953Y7524698D01*
X15174556Y7517463D02*
X15104817Y7522285D01*
X15244087Y7510235D02*
X15174556Y7517463D01*
X15313327Y7500613D02*
X15244087Y7510235D01*
X15382194Y7488606D02*
X15313327Y7500613D01*
X15450605Y7474229D02*
X15382194Y7488606D01*
X15518479Y7457500D02*
X15450605Y7474229D01*
X15585736Y7438437D02*
X15518479Y7457500D01*
X15652294Y7417065D02*
X15585736Y7438437D01*
X15718075Y7393408D02*
X15652294Y7417065D01*
X15783000Y7367495D02*
X15718075Y7393408D01*
X15846992Y7339356D02*
X15783000Y7367495D01*
X15909975Y7309025D02*
X15846992Y7339356D01*
X15971873Y7276538D02*
X15909975Y7309025D01*
X16032614Y7241934D02*
X15971873Y7276538D01*
X16092123Y7205254D02*
X16032614Y7241934D01*
X16150331Y7166542D02*
X16092123Y7205254D01*
X16207168Y7125844D02*
X16150331Y7166542D01*
X16262567Y7083209D02*
X16207168Y7125844D01*
X16316461Y7038686D02*
X16262567Y7083209D01*
X16368786Y6992330D02*
X16316461Y7038686D01*
X16419480Y6944196D02*
X16368786Y6992330D01*
X16468482Y6894341D02*
X16419480Y6944196D01*
X16515734Y6842823D02*
X16468482Y6894341D01*
X16561180Y6789706D02*
X16515734Y6842823D01*
X16604766Y6735052D02*
X16561180Y6789706D01*
X16646439Y6678925D02*
X16604766Y6735052D01*
X16686150Y6621394D02*
X16646439Y6678925D01*
X16723851Y6562527D02*
X16686150Y6621394D01*
X16759498Y6502393D02*
X16723851Y6562527D01*
X16793048Y6441064D02*
X16759498Y6502393D01*
X16824462Y6378615D02*
X16793048Y6441064D01*
X16853701Y6315118D02*
X16824462Y6378615D01*
X16880731Y6250649D02*
X16853701Y6315118D01*
X16905520Y6185286D02*
X16880731Y6250649D01*
X16928038Y6119107D02*
X16905520Y6185286D01*
X16948259Y6052190D02*
X16928038Y6119107D01*
X16966157Y5984614D02*
X16948259Y6052190D01*
X16981713Y5916461D02*
X16966157Y5984614D01*
X16994906Y5847812D02*
X16981713Y5916461D01*
X17005723Y5778748D02*
X16994906Y5847812D01*
X17014149Y5709352D02*
X17005723Y5778748D01*
X17020175Y5639707D02*
X17014149Y5709352D01*
X17023793Y5569895D02*
X17020175Y5639707D01*
X17025000Y5500000D02*
X17023793Y5569895D01*
X17026177Y5431831D02*
X17025000Y5500000D01*
X17029706Y5363742D02*
X17026177Y5431831D01*
X17035583Y5295817D02*
X17029706Y5363742D01*
X17043801Y5228134D02*
X17035583Y5295817D01*
X17054350Y5160776D02*
X17043801Y5228134D01*
X17067219Y5093822D02*
X17054350Y5160776D01*
X17082390Y5027352D02*
X17067219Y5093822D01*
X17099847Y4961445D02*
X17082390Y5027352D01*
X17119568Y4896180D02*
X17099847Y4961445D01*
X17141530Y4831634D02*
X17119568Y4896180D01*
X17165706Y4767885D02*
X17141530Y4831634D01*
X17192069Y4705009D02*
X17165706Y4767885D01*
X17220586Y4643080D02*
X17192069Y4705009D01*
X17251224Y4582172D02*
X17220586Y4643080D01*
X17283946Y4522358D02*
X17251224Y4582172D01*
X17318713Y4463709D02*
X17283946Y4522358D01*
X17355484Y4406295D02*
X17318713Y4463709D01*
X17394214Y4350184D02*
X17355484Y4406295D01*
X17434858Y4295444D02*
X17394214Y4350184D01*
X17477367Y4242139D02*
X17434858Y4295444D01*
X17521691Y4190333D02*
X17477367Y4242139D01*
X17567777Y4140088D02*
X17521691Y4190333D01*
X17615569Y4091463D02*
X17567777Y4140088D01*
X17665011Y4044517D02*
X17615569Y4091463D01*
X17716044Y3999306D02*
X17665011Y4044517D01*
X17768608Y3955883D02*
X17716044Y3999306D01*
X17822638Y3914300D02*
X17768608Y3955883D01*
X17878072Y3874607D02*
X17822638Y3914300D01*
X17934843Y3836851D02*
X17878072Y3874607D01*
X17992883Y3801077D02*
X17934843Y3836851D01*
X18052123Y3767327D02*
X17992883Y3801077D01*
X18112493Y3735643D02*
X18052123Y3767327D01*
X18173921Y3706061D02*
X18112493Y3735643D01*
X18236333Y3678616D02*
X18173921Y3706061D01*
X18299655Y3653343D02*
X18236333Y3678616D01*
X18363812Y3630270D02*
X18299655Y3653343D01*
X18428727Y3609425D02*
X18363812Y3630270D01*
X18494323Y3590834D02*
X18428727Y3609425D01*
X18560521Y3574517D02*
X18494323Y3590834D01*
X18627243Y3560496D02*
X18560521Y3574517D01*
X18694410Y3548785D02*
X18627243Y3560496D01*
X18761940Y3539400D02*
X18694410Y3548785D01*
X18829754Y3532351D02*
X18761940Y3539400D01*
X18897771Y3527648D02*
X18829754Y3532351D01*
X18965910Y3525294D02*
X18897771Y3527648D01*
X19034090Y3525294D02*
X18965910Y3525294D01*
X19102229Y3527648D02*
X19034090Y3525294D01*
X19170246Y3532351D02*
X19102229Y3527648D01*
X19238060Y3539400D02*
X19170246Y3532351D01*
X19305590Y3548785D02*
X19238060Y3539400D01*
X19372757Y3560496D02*
X19305590Y3548785D01*
X19439479Y3574517D02*
X19372757Y3560496D01*
X19505677Y3590834D02*
X19439479Y3574517D01*
X19571273Y3609425D02*
X19505677Y3590834D01*
X19636188Y3630270D02*
X19571273Y3609425D01*
X19700345Y3653343D02*
X19636188Y3630270D01*
X19763667Y3678616D02*
X19700345Y3653343D01*
X19826079Y3706061D02*
X19763667Y3678616D01*
X19887507Y3735643D02*
X19826079Y3706061D01*
X19947877Y3767327D02*
X19887507Y3735643D01*
X20007117Y3801077D02*
X19947877Y3767327D01*
X20065157Y3836851D02*
X20007117Y3801077D01*
X20121928Y3874607D02*
X20065157Y3836851D01*
X20177362Y3914300D02*
X20121928Y3874607D01*
X20231392Y3955883D02*
X20177362Y3914300D01*
X20283956Y3999306D02*
X20231392Y3955883D01*
X20334989Y4044517D02*
X20283956Y3999306D01*
X20384431Y4091463D02*
X20334989Y4044517D01*
X20432223Y4140088D02*
X20384431Y4091463D01*
X20478309Y4190333D02*
X20432223Y4140088D01*
X20522633Y4242139D02*
X20478309Y4190333D01*
X20565142Y4295444D02*
X20522633Y4242139D01*
X20605786Y4350184D02*
X20565142Y4295444D01*
X20644516Y4406295D02*
X20605786Y4350184D01*
X20681287Y4463709D02*
X20644516Y4406295D01*
X20716054Y4522358D02*
X20681287Y4463709D01*
X20748776Y4582172D02*
X20716054Y4522358D01*
X20779414Y4643080D02*
X20748776Y4582172D01*
X20807931Y4705009D02*
X20779414Y4643080D01*
X20834294Y4767885D02*
X20807931Y4705009D01*
X20858470Y4831634D02*
X20834294Y4767885D01*
X20880432Y4896180D02*
X20858470Y4831634D01*
X20900153Y4961445D02*
X20880432Y4896180D01*
X20917610Y5027352D02*
X20900153Y4961445D01*
X20932781Y5093822D02*
X20917610Y5027352D01*
X20945650Y5160776D02*
X20932781Y5093822D01*
X20956199Y5228134D02*
X20945650Y5160776D01*
X20964417Y5295817D02*
X20956199Y5228134D01*
X20970294Y5363742D02*
X20964417Y5295817D01*
X20973823Y5431831D02*
X20970294Y5363742D01*
X20975000Y5500000D02*
X20973823Y5431831D01*
X20976207Y5569895D02*
X20975000Y5500000D01*
X20979825Y5639707D02*
X20976207Y5569895D01*
X20985851Y5709352D02*
X20979825Y5639707D01*
X20994277Y5778748D02*
X20985851Y5709352D01*
X21005094Y5847812D02*
X20994277Y5778748D01*
X21018287Y5916461D02*
X21005094Y5847812D01*
X21033843Y5984614D02*
X21018287Y5916461D01*
X21051741Y6052190D02*
X21033843Y5984614D01*
X21071962Y6119107D02*
X21051741Y6052190D01*
X21094480Y6185286D02*
X21071962Y6119107D01*
X21119269Y6250649D02*
X21094480Y6185286D01*
X21146299Y6315118D02*
X21119269Y6250649D01*
X21175538Y6378615D02*
X21146299Y6315118D01*
X21206952Y6441064D02*
X21175538Y6378615D01*
X21240502Y6502393D02*
X21206952Y6441064D01*
X21276149Y6562527D02*
X21240502Y6502393D01*
X21313850Y6621394D02*
X21276149Y6562527D01*
X21353561Y6678925D02*
X21313850Y6621394D01*
X21395234Y6735052D02*
X21353561Y6678925D01*
X21438820Y6789706D02*
X21395234Y6735052D01*
X21484266Y6842823D02*
X21438820Y6789706D01*
X21531518Y6894341D02*
X21484266Y6842823D01*
X21580520Y6944196D02*
X21531518Y6894341D01*
X21631214Y6992330D02*
X21580520Y6944196D01*
X21683539Y7038686D02*
X21631214Y6992330D01*
X21737433Y7083209D02*
X21683539Y7038686D01*
X21792832Y7125844D02*
X21737433Y7083209D01*
X21849669Y7166542D02*
X21792832Y7125844D01*
X21907877Y7205254D02*
X21849669Y7166542D01*
X21967386Y7241934D02*
X21907877Y7205254D01*
X22028127Y7276538D02*
X21967386Y7241934D01*
X22090025Y7309025D02*
X22028127Y7276538D01*
X22153008Y7339356D02*
X22090025Y7309025D01*
X22217000Y7367495D02*
X22153008Y7339356D01*
X22281925Y7393408D02*
X22217000Y7367495D01*
X22347706Y7417065D02*
X22281925Y7393408D01*
X22414264Y7438437D02*
X22347706Y7417065D01*
X22481521Y7457500D02*
X22414264Y7438437D01*
X22549395Y7474229D02*
X22481521Y7457500D01*
X22617806Y7488606D02*
X22549395Y7474229D01*
X22686673Y7500613D02*
X22617806Y7488606D01*
X22755913Y7510235D02*
X22686673Y7500613D01*
X22825444Y7517463D02*
X22755913Y7510235D01*
X22895183Y7522285D02*
X22825444Y7517463D01*
X22965047Y7524698D02*
X22895183Y7522285D01*
X23034953Y7524698D02*
X22965047Y7524698D01*
X23104817Y7522285D02*
X23034953Y7524698D01*
X23174556Y7517463D02*
X23104817Y7522285D01*
X23244087Y7510235D02*
X23174556Y7517463D01*
X23313327Y7500613D02*
X23244087Y7510235D01*
X23382194Y7488606D02*
X23313327Y7500613D01*
X23450605Y7474229D02*
X23382194Y7488606D01*
X23518479Y7457500D02*
X23450605Y7474229D01*
X23585736Y7438437D02*
X23518479Y7457500D01*
X23652294Y7417065D02*
X23585736Y7438437D01*
X23718075Y7393408D02*
X23652294Y7417065D01*
X23783000Y7367495D02*
X23718075Y7393408D01*
X23846992Y7339356D02*
X23783000Y7367495D01*
X23909975Y7309025D02*
X23846992Y7339356D01*
X23971873Y7276538D02*
X23909975Y7309025D01*
X24032614Y7241934D02*
X23971873Y7276538D01*
X24092123Y7205254D02*
X24032614Y7241934D01*
X24150331Y7166542D02*
X24092123Y7205254D01*
X24207168Y7125844D02*
X24150331Y7166542D01*
X24262567Y7083209D02*
X24207168Y7125844D01*
X24316461Y7038686D02*
X24262567Y7083209D01*
X24368786Y6992330D02*
X24316461Y7038686D01*
X24419480Y6944196D02*
X24368786Y6992330D01*
X24468482Y6894341D02*
X24419480Y6944196D01*
X24515734Y6842823D02*
X24468482Y6894341D01*
X24561180Y6789706D02*
X24515734Y6842823D01*
X24604766Y6735052D02*
X24561180Y6789706D01*
X24646439Y6678925D02*
X24604766Y6735052D01*
X24686150Y6621394D02*
X24646439Y6678925D01*
X24723851Y6562527D02*
X24686150Y6621394D01*
X24759498Y6502393D02*
X24723851Y6562527D01*
X24793048Y6441064D02*
X24759498Y6502393D01*
X24824462Y6378615D02*
X24793048Y6441064D01*
X24853701Y6315118D02*
X24824462Y6378615D01*
X24880731Y6250649D02*
X24853701Y6315118D01*
X24905520Y6185286D02*
X24880731Y6250649D01*
X24928038Y6119107D02*
X24905520Y6185286D01*
X24948259Y6052190D02*
X24928038Y6119107D01*
X24966157Y5984614D02*
X24948259Y6052190D01*
X24981713Y5916461D02*
X24966157Y5984614D01*
X24994906Y5847812D02*
X24981713Y5916461D01*
X25005723Y5778748D02*
X24994906Y5847812D01*
X25014149Y5709352D02*
X25005723Y5778748D01*
X25020175Y5639707D02*
X25014149Y5709352D01*
X25023793Y5569895D02*
X25020175Y5639707D01*
X25025000Y5500000D02*
X25023793Y5569895D01*
X25026177Y5431831D02*
X25025000Y5500000D01*
X25029706Y5363742D02*
X25026177Y5431831D01*
X25035583Y5295817D02*
X25029706Y5363742D01*
X25043801Y5228134D02*
X25035583Y5295817D01*
X25054350Y5160776D02*
X25043801Y5228134D01*
X25067219Y5093822D02*
X25054350Y5160776D01*
X25082390Y5027352D02*
X25067219Y5093822D01*
X25099847Y4961445D02*
X25082390Y5027352D01*
X25119568Y4896180D02*
X25099847Y4961445D01*
X25141530Y4831634D02*
X25119568Y4896180D01*
X25165706Y4767885D02*
X25141530Y4831634D01*
X25192069Y4705009D02*
X25165706Y4767885D01*
X25220586Y4643080D02*
X25192069Y4705009D01*
X25251224Y4582172D02*
X25220586Y4643080D01*
X25283946Y4522358D02*
X25251224Y4582172D01*
X25318713Y4463709D02*
X25283946Y4522358D01*
X25355484Y4406295D02*
X25318713Y4463709D01*
X25394214Y4350184D02*
X25355484Y4406295D01*
X25434858Y4295444D02*
X25394214Y4350184D01*
X25477367Y4242139D02*
X25434858Y4295444D01*
X25521691Y4190333D02*
X25477367Y4242139D01*
X25567777Y4140088D02*
X25521691Y4190333D01*
X25615569Y4091463D02*
X25567777Y4140088D01*
X25665011Y4044517D02*
X25615569Y4091463D01*
X25716044Y3999306D02*
X25665011Y4044517D01*
X25768608Y3955883D02*
X25716044Y3999306D01*
X25822638Y3914300D02*
X25768608Y3955883D01*
X25878072Y3874607D02*
X25822638Y3914300D01*
X25934843Y3836851D02*
X25878072Y3874607D01*
X25992883Y3801077D02*
X25934843Y3836851D01*
X26052123Y3767327D02*
X25992883Y3801077D01*
X26112493Y3735643D02*
X26052123Y3767327D01*
X26173921Y3706061D02*
X26112493Y3735643D01*
X26236333Y3678616D02*
X26173921Y3706061D01*
X26299655Y3653343D02*
X26236333Y3678616D01*
X26363812Y3630270D02*
X26299655Y3653343D01*
X26428727Y3609425D02*
X26363812Y3630270D01*
X26494323Y3590834D02*
X26428727Y3609425D01*
X26560521Y3574517D02*
X26494323Y3590834D01*
X26627243Y3560496D02*
X26560521Y3574517D01*
X26694410Y3548785D02*
X26627243Y3560496D01*
X26761940Y3539400D02*
X26694410Y3548785D01*
X26829754Y3532351D02*
X26761940Y3539400D01*
X26897771Y3527648D02*
X26829754Y3532351D01*
X26965910Y3525294D02*
X26897771Y3527648D01*
X27034090Y3525294D02*
X26965910Y3525294D01*
X27102229Y3527648D02*
X27034090Y3525294D01*
X27170246Y3532351D02*
X27102229Y3527648D01*
X27238060Y3539400D02*
X27170246Y3532351D01*
X27305590Y3548785D02*
X27238060Y3539400D01*
X27372757Y3560496D02*
X27305590Y3548785D01*
X27439479Y3574517D02*
X27372757Y3560496D01*
X27505677Y3590834D02*
X27439479Y3574517D01*
X27571273Y3609425D02*
X27505677Y3590834D01*
X27636188Y3630270D02*
X27571273Y3609425D01*
X27700345Y3653343D02*
X27636188Y3630270D01*
X27763667Y3678616D02*
X27700345Y3653343D01*
X27826079Y3706061D02*
X27763667Y3678616D01*
X27887507Y3735643D02*
X27826079Y3706061D01*
X27947877Y3767327D02*
X27887507Y3735643D01*
X28007117Y3801077D02*
X27947877Y3767327D01*
X28065157Y3836851D02*
X28007117Y3801077D01*
X28121928Y3874607D02*
X28065157Y3836851D01*
X28177362Y3914300D02*
X28121928Y3874607D01*
X28231392Y3955883D02*
X28177362Y3914300D01*
X28283956Y3999306D02*
X28231392Y3955883D01*
X28334989Y4044517D02*
X28283956Y3999306D01*
X28384431Y4091463D02*
X28334989Y4044517D01*
X28432223Y4140088D02*
X28384431Y4091463D01*
X28478309Y4190333D02*
X28432223Y4140088D01*
X28522633Y4242139D02*
X28478309Y4190333D01*
X28565142Y4295444D02*
X28522633Y4242139D01*
X28605786Y4350184D02*
X28565142Y4295444D01*
X28644516Y4406295D02*
X28605786Y4350184D01*
X28681287Y4463709D02*
X28644516Y4406295D01*
X28716054Y4522358D02*
X28681287Y4463709D01*
X28748776Y4582172D02*
X28716054Y4522358D01*
X28779414Y4643080D02*
X28748776Y4582172D01*
X28807931Y4705009D02*
X28779414Y4643080D01*
X28834294Y4767885D02*
X28807931Y4705009D01*
X28858470Y4831634D02*
X28834294Y4767885D01*
X28880432Y4896180D02*
X28858470Y4831634D01*
X28900153Y4961445D02*
X28880432Y4896180D01*
X28917610Y5027352D02*
X28900153Y4961445D01*
X28932781Y5093822D02*
X28917610Y5027352D01*
X28945650Y5160776D02*
X28932781Y5093822D01*
X28956199Y5228134D02*
X28945650Y5160776D01*
X28964417Y5295817D02*
X28956199Y5228134D01*
X28970294Y5363742D02*
X28964417Y5295817D01*
X28973823Y5431831D02*
X28970294Y5363742D01*
X28975000Y5500000D02*
X28973823Y5431831D01*
X28976207Y5569895D02*
X28975000Y5500000D01*
X28979825Y5639707D02*
X28976207Y5569895D01*
X28985851Y5709352D02*
X28979825Y5639707D01*
X28994277Y5778748D02*
X28985851Y5709352D01*
X29005094Y5847812D02*
X28994277Y5778748D01*
X29018287Y5916461D02*
X29005094Y5847812D01*
X29033843Y5984614D02*
X29018287Y5916461D01*
X29051741Y6052190D02*
X29033843Y5984614D01*
X29071962Y6119107D02*
X29051741Y6052190D01*
X29094480Y6185286D02*
X29071962Y6119107D01*
X29119269Y6250649D02*
X29094480Y6185286D01*
X29146299Y6315118D02*
X29119269Y6250649D01*
X29175538Y6378615D02*
X29146299Y6315118D01*
X29206952Y6441064D02*
X29175538Y6378615D01*
X29240502Y6502393D02*
X29206952Y6441064D01*
X29276149Y6562527D02*
X29240502Y6502393D01*
X29313850Y6621394D02*
X29276149Y6562527D01*
X29353561Y6678925D02*
X29313850Y6621394D01*
X29395234Y6735052D02*
X29353561Y6678925D01*
X29438820Y6789706D02*
X29395234Y6735052D01*
X29484266Y6842823D02*
X29438820Y6789706D01*
X29531518Y6894341D02*
X29484266Y6842823D01*
X29580520Y6944196D02*
X29531518Y6894341D01*
X29631214Y6992330D02*
X29580520Y6944196D01*
X29683539Y7038686D02*
X29631214Y6992330D01*
X29737433Y7083209D02*
X29683539Y7038686D01*
X29792832Y7125844D02*
X29737433Y7083209D01*
X29849669Y7166542D02*
X29792832Y7125844D01*
X29907877Y7205254D02*
X29849669Y7166542D01*
X29967386Y7241934D02*
X29907877Y7205254D01*
X30028127Y7276538D02*
X29967386Y7241934D01*
X30090025Y7309025D02*
X30028127Y7276538D01*
X30153008Y7339356D02*
X30090025Y7309025D01*
X30217000Y7367495D02*
X30153008Y7339356D01*
X30281925Y7393408D02*
X30217000Y7367495D01*
X30347706Y7417065D02*
X30281925Y7393408D01*
X30414264Y7438437D02*
X30347706Y7417065D01*
X30481521Y7457500D02*
X30414264Y7438437D01*
X30549395Y7474229D02*
X30481521Y7457500D01*
X30617806Y7488606D02*
X30549395Y7474229D01*
X30686673Y7500613D02*
X30617806Y7488606D01*
X30755913Y7510235D02*
X30686673Y7500613D01*
X30825444Y7517463D02*
X30755913Y7510235D01*
X30895183Y7522285D02*
X30825444Y7517463D01*
X30965047Y7524698D02*
X30895183Y7522285D01*
X31034953Y7524698D02*
X30965047Y7524698D01*
X31104817Y7522285D02*
X31034953Y7524698D01*
X31174556Y7517463D02*
X31104817Y7522285D01*
X31244087Y7510235D02*
X31174556Y7517463D01*
X31313327Y7500613D02*
X31244087Y7510235D01*
X31382194Y7488606D02*
X31313327Y7500613D01*
X31450605Y7474229D02*
X31382194Y7488606D01*
X31518479Y7457500D02*
X31450605Y7474229D01*
X31585736Y7438437D02*
X31518479Y7457500D01*
X31652294Y7417065D02*
X31585736Y7438437D01*
X31718075Y7393408D02*
X31652294Y7417065D01*
X31783000Y7367495D02*
X31718075Y7393408D01*
X31846992Y7339356D02*
X31783000Y7367495D01*
X31909975Y7309025D02*
X31846992Y7339356D01*
X31971873Y7276538D02*
X31909975Y7309025D01*
X32032614Y7241934D02*
X31971873Y7276538D01*
X32092123Y7205254D02*
X32032614Y7241934D01*
X32150331Y7166542D02*
X32092123Y7205254D01*
X32207168Y7125844D02*
X32150331Y7166542D01*
X32262567Y7083209D02*
X32207168Y7125844D01*
X32316461Y7038686D02*
X32262567Y7083209D01*
X32368786Y6992330D02*
X32316461Y7038686D01*
X32419480Y6944196D02*
X32368786Y6992330D01*
X32468482Y6894341D02*
X32419480Y6944196D01*
X32515734Y6842823D02*
X32468482Y6894341D01*
X32561180Y6789706D02*
X32515734Y6842823D01*
X32604766Y6735052D02*
X32561180Y6789706D01*
X32646439Y6678925D02*
X32604766Y6735052D01*
X32686150Y6621394D02*
X32646439Y6678925D01*
X32723851Y6562527D02*
X32686150Y6621394D01*
X32759498Y6502393D02*
X32723851Y6562527D01*
X32793048Y6441064D02*
X32759498Y6502393D01*
X32824462Y6378615D02*
X32793048Y6441064D01*
X32853701Y6315118D02*
X32824462Y6378615D01*
X32880731Y6250649D02*
X32853701Y6315118D01*
X32905520Y6185286D02*
X32880731Y6250649D01*
X32928038Y6119107D02*
X32905520Y6185286D01*
X32948259Y6052190D02*
X32928038Y6119107D01*
X32966157Y5984614D02*
X32948259Y6052190D01*
X32981713Y5916461D02*
X32966157Y5984614D01*
X32994906Y5847812D02*
X32981713Y5916461D01*
X33005723Y5778748D02*
X32994906Y5847812D01*
X33014149Y5709352D02*
X33005723Y5778748D01*
X33020175Y5639707D02*
X33014149Y5709352D01*
X33023793Y5569895D02*
X33020175Y5639707D01*
X33025000Y5500000D02*
X33023793Y5569895D01*
X33026177Y5431831D02*
X33025000Y5500000D01*
X33029706Y5363742D02*
X33026177Y5431831D01*
X33035583Y5295817D02*
X33029706Y5363742D01*
X33043801Y5228134D02*
X33035583Y5295817D01*
X33054350Y5160776D02*
X33043801Y5228134D01*
X33067219Y5093822D02*
X33054350Y5160776D01*
X33082390Y5027352D02*
X33067219Y5093822D01*
X33099847Y4961445D02*
X33082390Y5027352D01*
X33119568Y4896180D02*
X33099847Y4961445D01*
X33141530Y4831634D02*
X33119568Y4896180D01*
X33165706Y4767885D02*
X33141530Y4831634D01*
X33192069Y4705009D02*
X33165706Y4767885D01*
X33220586Y4643080D02*
X33192069Y4705009D01*
X33251224Y4582172D02*
X33220586Y4643080D01*
X33283946Y4522358D02*
X33251224Y4582172D01*
X33318713Y4463709D02*
X33283946Y4522358D01*
X33355484Y4406295D02*
X33318713Y4463709D01*
X33394214Y4350184D02*
X33355484Y4406295D01*
X33434858Y4295444D02*
X33394214Y4350184D01*
X33477367Y4242139D02*
X33434858Y4295444D01*
X33521691Y4190333D02*
X33477367Y4242139D01*
X33567777Y4140088D02*
X33521691Y4190333D01*
X33615569Y4091463D02*
X33567777Y4140088D01*
X33665011Y4044517D02*
X33615569Y4091463D01*
X33716044Y3999306D02*
X33665011Y4044517D01*
X33768608Y3955883D02*
X33716044Y3999306D01*
X33822638Y3914300D02*
X33768608Y3955883D01*
X33878072Y3874607D02*
X33822638Y3914300D01*
X33934843Y3836851D02*
X33878072Y3874607D01*
X33992883Y3801077D02*
X33934843Y3836851D01*
X34052123Y3767327D02*
X33992883Y3801077D01*
X34112493Y3735643D02*
X34052123Y3767327D01*
X34173921Y3706061D02*
X34112493Y3735643D01*
X34236333Y3678616D02*
X34173921Y3706061D01*
X34299655Y3653343D02*
X34236333Y3678616D01*
X34363812Y3630270D02*
X34299655Y3653343D01*
X34428727Y3609425D02*
X34363812Y3630270D01*
X34494323Y3590834D02*
X34428727Y3609425D01*
X34560521Y3574517D02*
X34494323Y3590834D01*
X34627243Y3560496D02*
X34560521Y3574517D01*
X34694410Y3548785D02*
X34627243Y3560496D01*
X34761940Y3539400D02*
X34694410Y3548785D01*
X34829754Y3532351D02*
X34761940Y3539400D01*
X34897771Y3527648D02*
X34829754Y3532351D01*
X34965910Y3525294D02*
X34897771Y3527648D01*
X35034090Y3525294D02*
X34965910Y3525294D01*
X35102229Y3527648D02*
X35034090Y3525294D01*
X35170246Y3532351D02*
X35102229Y3527648D01*
X35238060Y3539400D02*
X35170246Y3532351D01*
X35305590Y3548785D02*
X35238060Y3539400D01*
X35372757Y3560496D02*
X35305590Y3548785D01*
X35439479Y3574517D02*
X35372757Y3560496D01*
X35505677Y3590834D02*
X35439479Y3574517D01*
X35571273Y3609425D02*
X35505677Y3590834D01*
X35636188Y3630270D02*
X35571273Y3609425D01*
X35700345Y3653343D02*
X35636188Y3630270D01*
X35763667Y3678616D02*
X35700345Y3653343D01*
X35826079Y3706061D02*
X35763667Y3678616D01*
X35887507Y3735643D02*
X35826079Y3706061D01*
X35947877Y3767327D02*
X35887507Y3735643D01*
X36007117Y3801077D02*
X35947877Y3767327D01*
X36065157Y3836851D02*
X36007117Y3801077D01*
X36121928Y3874607D02*
X36065157Y3836851D01*
X36177362Y3914300D02*
X36121928Y3874607D01*
X36231392Y3955883D02*
X36177362Y3914300D01*
X36283956Y3999306D02*
X36231392Y3955883D01*
X36334989Y4044517D02*
X36283956Y3999306D01*
X36384431Y4091463D02*
X36334989Y4044517D01*
X36432223Y4140088D02*
X36384431Y4091463D01*
X36478309Y4190333D02*
X36432223Y4140088D01*
X36522633Y4242139D02*
X36478309Y4190333D01*
X36565142Y4295444D02*
X36522633Y4242139D01*
X36605786Y4350184D02*
X36565142Y4295444D01*
X36644516Y4406295D02*
X36605786Y4350184D01*
X36681287Y4463709D02*
X36644516Y4406295D01*
X36716054Y4522358D02*
X36681287Y4463709D01*
X36748776Y4582172D02*
X36716054Y4522358D01*
X36779414Y4643080D02*
X36748776Y4582172D01*
X36807931Y4705009D02*
X36779414Y4643080D01*
X36834294Y4767885D02*
X36807931Y4705009D01*
X36858470Y4831634D02*
X36834294Y4767885D01*
X36880432Y4896180D02*
X36858470Y4831634D01*
X36900153Y4961445D02*
X36880432Y4896180D01*
X36917610Y5027352D02*
X36900153Y4961445D01*
X36932781Y5093822D02*
X36917610Y5027352D01*
X36945650Y5160776D02*
X36932781Y5093822D01*
X36956199Y5228134D02*
X36945650Y5160776D01*
X36964417Y5295817D02*
X36956199Y5228134D01*
X36970294Y5363742D02*
X36964417Y5295817D01*
X36973823Y5431831D02*
X36970294Y5363742D01*
X36975000Y5500000D02*
X36973823Y5431831D01*
X36976207Y5569895D02*
X36975000Y5500000D01*
X36979825Y5639707D02*
X36976207Y5569895D01*
X36985851Y5709352D02*
X36979825Y5639707D01*
X36994277Y5778748D02*
X36985851Y5709352D01*
X37005094Y5847812D02*
X36994277Y5778748D01*
X37018287Y5916461D02*
X37005094Y5847812D01*
X37033843Y5984614D02*
X37018287Y5916461D01*
X37051741Y6052190D02*
X37033843Y5984614D01*
X37071962Y6119107D02*
X37051741Y6052190D01*
X37094480Y6185286D02*
X37071962Y6119107D01*
X37119269Y6250649D02*
X37094480Y6185286D01*
X37146299Y6315118D02*
X37119269Y6250649D01*
X37175538Y6378615D02*
X37146299Y6315118D01*
X37206952Y6441064D02*
X37175538Y6378615D01*
X37240502Y6502393D02*
X37206952Y6441064D01*
X37276149Y6562527D02*
X37240502Y6502393D01*
X37313850Y6621394D02*
X37276149Y6562527D01*
X37353561Y6678925D02*
X37313850Y6621394D01*
X37395234Y6735052D02*
X37353561Y6678925D01*
X37438820Y6789706D02*
X37395234Y6735052D01*
X37484266Y6842823D02*
X37438820Y6789706D01*
X37531518Y6894341D02*
X37484266Y6842823D01*
X37580520Y6944196D02*
X37531518Y6894341D01*
X37631214Y6992330D02*
X37580520Y6944196D01*
X37683539Y7038686D02*
X37631214Y6992330D01*
X37737433Y7083209D02*
X37683539Y7038686D01*
X37792832Y7125844D02*
X37737433Y7083209D01*
X37849669Y7166542D02*
X37792832Y7125844D01*
X37907877Y7205254D02*
X37849669Y7166542D01*
X37967386Y7241934D02*
X37907877Y7205254D01*
X38028127Y7276538D02*
X37967386Y7241934D01*
X38090025Y7309025D02*
X38028127Y7276538D01*
X38153008Y7339356D02*
X38090025Y7309025D01*
X38217000Y7367495D02*
X38153008Y7339356D01*
X38281925Y7393408D02*
X38217000Y7367495D01*
X38347706Y7417065D02*
X38281925Y7393408D01*
X38414264Y7438437D02*
X38347706Y7417065D01*
X38481521Y7457500D02*
X38414264Y7438437D01*
X38549395Y7474229D02*
X38481521Y7457500D01*
X38617806Y7488606D02*
X38549395Y7474229D01*
X38686673Y7500613D02*
X38617806Y7488606D01*
X38755913Y7510235D02*
X38686673Y7500613D01*
X38825444Y7517463D02*
X38755913Y7510235D01*
X38895183Y7522285D02*
X38825444Y7517463D01*
X38965047Y7524698D02*
X38895183Y7522285D01*
X39034953Y7524698D02*
X38965047Y7524698D01*
X39104817Y7522285D02*
X39034953Y7524698D01*
X39174556Y7517463D02*
X39104817Y7522285D01*
X39244087Y7510235D02*
X39174556Y7517463D01*
X39313327Y7500613D02*
X39244087Y7510235D01*
X39382194Y7488606D02*
X39313327Y7500613D01*
X39450605Y7474229D02*
X39382194Y7488606D01*
X39518479Y7457500D02*
X39450605Y7474229D01*
X39585736Y7438437D02*
X39518479Y7457500D01*
X39652294Y7417065D02*
X39585736Y7438437D01*
X39718075Y7393408D02*
X39652294Y7417065D01*
X39783000Y7367495D02*
X39718075Y7393408D01*
X39846992Y7339356D02*
X39783000Y7367495D01*
X39909975Y7309025D02*
X39846992Y7339356D01*
X39971873Y7276538D02*
X39909975Y7309025D01*
X40032614Y7241934D02*
X39971873Y7276538D01*
X40092123Y7205254D02*
X40032614Y7241934D01*
X40150331Y7166542D02*
X40092123Y7205254D01*
X40207168Y7125844D02*
X40150331Y7166542D01*
X40262567Y7083209D02*
X40207168Y7125844D01*
X40316461Y7038686D02*
X40262567Y7083209D01*
X40368786Y6992330D02*
X40316461Y7038686D01*
X40419480Y6944196D02*
X40368786Y6992330D01*
X40468482Y6894341D02*
X40419480Y6944196D01*
X40515734Y6842823D02*
X40468482Y6894341D01*
X40561180Y6789706D02*
X40515734Y6842823D01*
X40604766Y6735052D02*
X40561180Y6789706D01*
X40646439Y6678925D02*
X40604766Y6735052D01*
X40686150Y6621394D02*
X40646439Y6678925D01*
X40723851Y6562527D02*
X40686150Y6621394D01*
X40759498Y6502393D02*
X40723851Y6562527D01*
X40793048Y6441064D02*
X40759498Y6502393D01*
X40824462Y6378615D02*
X40793048Y6441064D01*
X40853701Y6315118D02*
X40824462Y6378615D01*
X40880731Y6250649D02*
X40853701Y6315118D01*
X40905520Y6185286D02*
X40880731Y6250649D01*
X40928038Y6119107D02*
X40905520Y6185286D01*
X40948259Y6052190D02*
X40928038Y6119107D01*
X40966157Y5984614D02*
X40948259Y6052190D01*
X40981713Y5916461D02*
X40966157Y5984614D01*
X40994906Y5847812D02*
X40981713Y5916461D01*
X41005723Y5778748D02*
X40994906Y5847812D01*
X41014149Y5709352D02*
X41005723Y5778748D01*
X41020175Y5639707D02*
X41014149Y5709352D01*
X41023793Y5569895D02*
X41020175Y5639707D01*
X41025000Y5500000D02*
X41023793Y5569895D01*
X41026177Y5431831D02*
X41025000Y5500000D01*
X41029706Y5363742D02*
X41026177Y5431831D01*
X41035583Y5295817D02*
X41029706Y5363742D01*
X41043801Y5228134D02*
X41035583Y5295817D01*
X41054350Y5160776D02*
X41043801Y5228134D01*
X41067219Y5093822D02*
X41054350Y5160776D01*
X41082390Y5027352D02*
X41067219Y5093822D01*
X41099847Y4961445D02*
X41082390Y5027352D01*
X41119568Y4896180D02*
X41099847Y4961445D01*
X41141530Y4831634D02*
X41119568Y4896180D01*
X41165706Y4767885D02*
X41141530Y4831634D01*
X41192069Y4705009D02*
X41165706Y4767885D01*
X41220586Y4643080D02*
X41192069Y4705009D01*
X41251224Y4582172D02*
X41220586Y4643080D01*
X41283946Y4522358D02*
X41251224Y4582172D01*
X41318713Y4463709D02*
X41283946Y4522358D01*
X41355484Y4406295D02*
X41318713Y4463709D01*
X41394214Y4350184D02*
X41355484Y4406295D01*
X41434858Y4295444D02*
X41394214Y4350184D01*
X41477367Y4242139D02*
X41434858Y4295444D01*
X41521691Y4190333D02*
X41477367Y4242139D01*
X41567777Y4140088D02*
X41521691Y4190333D01*
X41615569Y4091463D02*
X41567777Y4140088D01*
X41665011Y4044517D02*
X41615569Y4091463D01*
X41716044Y3999306D02*
X41665011Y4044517D01*
X41768608Y3955883D02*
X41716044Y3999306D01*
X41822638Y3914300D02*
X41768608Y3955883D01*
X41878072Y3874607D02*
X41822638Y3914300D01*
X41934843Y3836851D02*
X41878072Y3874607D01*
X41992883Y3801077D02*
X41934843Y3836851D01*
X42052123Y3767327D02*
X41992883Y3801077D01*
X42112493Y3735643D02*
X42052123Y3767327D01*
X42173921Y3706061D02*
X42112493Y3735643D01*
X42236333Y3678616D02*
X42173921Y3706061D01*
X42299655Y3653343D02*
X42236333Y3678616D01*
X42363812Y3630270D02*
X42299655Y3653343D01*
X42428727Y3609425D02*
X42363812Y3630270D01*
X42494323Y3590834D02*
X42428727Y3609425D01*
X42560521Y3574517D02*
X42494323Y3590834D01*
X42627243Y3560496D02*
X42560521Y3574517D01*
X42694410Y3548785D02*
X42627243Y3560496D01*
X42761940Y3539400D02*
X42694410Y3548785D01*
X42829754Y3532351D02*
X42761940Y3539400D01*
X42897771Y3527648D02*
X42829754Y3532351D01*
X42965910Y3525294D02*
X42897771Y3527648D01*
X43034090Y3525294D02*
X42965910Y3525294D01*
X43102229Y3527648D02*
X43034090Y3525294D01*
X43170246Y3532351D02*
X43102229Y3527648D01*
X43238060Y3539400D02*
X43170246Y3532351D01*
X43305590Y3548785D02*
X43238060Y3539400D01*
X43372757Y3560496D02*
X43305590Y3548785D01*
X43439479Y3574517D02*
X43372757Y3560496D01*
X43505677Y3590834D02*
X43439479Y3574517D01*
X43571273Y3609425D02*
X43505677Y3590834D01*
X43636188Y3630270D02*
X43571273Y3609425D01*
X43700345Y3653343D02*
X43636188Y3630270D01*
X43763667Y3678616D02*
X43700345Y3653343D01*
X43826079Y3706061D02*
X43763667Y3678616D01*
X43887507Y3735643D02*
X43826079Y3706061D01*
X43947877Y3767327D02*
X43887507Y3735643D01*
X44007117Y3801077D02*
X43947877Y3767327D01*
X44065157Y3836851D02*
X44007117Y3801077D01*
X44121928Y3874607D02*
X44065157Y3836851D01*
X44177362Y3914300D02*
X44121928Y3874607D01*
X44231392Y3955883D02*
X44177362Y3914300D01*
X44283956Y3999306D02*
X44231392Y3955883D01*
X44334989Y4044517D02*
X44283956Y3999306D01*
X44384431Y4091463D02*
X44334989Y4044517D01*
X44432223Y4140088D02*
X44384431Y4091463D01*
X44478309Y4190333D02*
X44432223Y4140088D01*
X44522633Y4242139D02*
X44478309Y4190333D01*
X44565142Y4295444D02*
X44522633Y4242139D01*
X44605786Y4350184D02*
X44565142Y4295444D01*
X44644516Y4406295D02*
X44605786Y4350184D01*
X44681287Y4463709D02*
X44644516Y4406295D01*
X44716054Y4522358D02*
X44681287Y4463709D01*
X44748776Y4582172D02*
X44716054Y4522358D01*
X44779414Y4643080D02*
X44748776Y4582172D01*
X44807931Y4705009D02*
X44779414Y4643080D01*
X44834294Y4767885D02*
X44807931Y4705009D01*
X44858470Y4831634D02*
X44834294Y4767885D01*
X44880432Y4896180D02*
X44858470Y4831634D01*
X44900153Y4961445D02*
X44880432Y4896180D01*
X44917610Y5027352D02*
X44900153Y4961445D01*
X44932781Y5093822D02*
X44917610Y5027352D01*
X44945650Y5160776D02*
X44932781Y5093822D01*
X44956199Y5228134D02*
X44945650Y5160776D01*
X44964417Y5295817D02*
X44956199Y5228134D01*
X44970294Y5363742D02*
X44964417Y5295817D01*
X44973823Y5431831D02*
X44970294Y5363742D01*
X44975000Y5500000D02*
X44973823Y5431831D01*
X44976207Y5569895D02*
X44975000Y5500000D01*
X44979825Y5639707D02*
X44976207Y5569895D01*
X44985851Y5709352D02*
X44979825Y5639707D01*
X44994277Y5778748D02*
X44985851Y5709352D01*
X45005094Y5847812D02*
X44994277Y5778748D01*
X45018287Y5916461D02*
X45005094Y5847812D01*
X45033843Y5984614D02*
X45018287Y5916461D01*
X45051741Y6052190D02*
X45033843Y5984614D01*
X45071962Y6119107D02*
X45051741Y6052190D01*
X45094480Y6185286D02*
X45071962Y6119107D01*
X45119269Y6250649D02*
X45094480Y6185286D01*
X45146299Y6315118D02*
X45119269Y6250649D01*
X45175538Y6378615D02*
X45146299Y6315118D01*
X45206952Y6441064D02*
X45175538Y6378615D01*
X45240502Y6502393D02*
X45206952Y6441064D01*
X45276149Y6562527D02*
X45240502Y6502393D01*
X45313850Y6621394D02*
X45276149Y6562527D01*
X45353561Y6678925D02*
X45313850Y6621394D01*
X45395234Y6735052D02*
X45353561Y6678925D01*
X45438820Y6789706D02*
X45395234Y6735052D01*
X45484266Y6842823D02*
X45438820Y6789706D01*
X45531518Y6894341D02*
X45484266Y6842823D01*
X45580520Y6944196D02*
X45531518Y6894341D01*
X45631214Y6992330D02*
X45580520Y6944196D01*
X45683539Y7038686D02*
X45631214Y6992330D01*
X45737433Y7083209D02*
X45683539Y7038686D01*
X45792832Y7125844D02*
X45737433Y7083209D01*
X45849669Y7166542D02*
X45792832Y7125844D01*
X45907877Y7205254D02*
X45849669Y7166542D01*
X45967386Y7241934D02*
X45907877Y7205254D01*
X46028127Y7276538D02*
X45967386Y7241934D01*
X46090025Y7309025D02*
X46028127Y7276538D01*
X46153008Y7339356D02*
X46090025Y7309025D01*
X46217000Y7367495D02*
X46153008Y7339356D01*
X46281925Y7393408D02*
X46217000Y7367495D01*
X46347706Y7417065D02*
X46281925Y7393408D01*
X46414264Y7438437D02*
X46347706Y7417065D01*
X46481521Y7457500D02*
X46414264Y7438437D01*
X46549395Y7474229D02*
X46481521Y7457500D01*
X46617806Y7488606D02*
X46549395Y7474229D01*
X46686673Y7500613D02*
X46617806Y7488606D01*
X46755913Y7510235D02*
X46686673Y7500613D01*
X46825444Y7517463D02*
X46755913Y7510235D01*
X46895183Y7522285D02*
X46825444Y7517463D01*
X46965047Y7524698D02*
X46895183Y7522285D01*
X47034953Y7524698D02*
X46965047Y7524698D01*
X47104817Y7522285D02*
X47034953Y7524698D01*
X47174556Y7517463D02*
X47104817Y7522285D01*
X47244087Y7510235D02*
X47174556Y7517463D01*
X47313327Y7500613D02*
X47244087Y7510235D01*
X47382194Y7488606D02*
X47313327Y7500613D01*
X47450605Y7474229D02*
X47382194Y7488606D01*
X47518479Y7457500D02*
X47450605Y7474229D01*
X47585736Y7438437D02*
X47518479Y7457500D01*
X47652294Y7417065D02*
X47585736Y7438437D01*
X47718075Y7393408D02*
X47652294Y7417065D01*
X47783000Y7367495D02*
X47718075Y7393408D01*
X47846992Y7339356D02*
X47783000Y7367495D01*
X47909975Y7309025D02*
X47846992Y7339356D01*
X47971873Y7276538D02*
X47909975Y7309025D01*
X48032614Y7241934D02*
X47971873Y7276538D01*
X48092123Y7205254D02*
X48032614Y7241934D01*
X48150331Y7166542D02*
X48092123Y7205254D01*
X48207168Y7125844D02*
X48150331Y7166542D01*
X48262567Y7083209D02*
X48207168Y7125844D01*
X48316461Y7038686D02*
X48262567Y7083209D01*
X48368786Y6992330D02*
X48316461Y7038686D01*
X48419480Y6944196D02*
X48368786Y6992330D01*
X48468482Y6894341D02*
X48419480Y6944196D01*
X48515734Y6842823D02*
X48468482Y6894341D01*
X48561180Y6789706D02*
X48515734Y6842823D01*
X48604766Y6735052D02*
X48561180Y6789706D01*
X48646439Y6678925D02*
X48604766Y6735052D01*
X48686150Y6621394D02*
X48646439Y6678925D01*
X48723851Y6562527D02*
X48686150Y6621394D01*
X48759498Y6502393D02*
X48723851Y6562527D01*
X48793048Y6441064D02*
X48759498Y6502393D01*
X48824462Y6378615D02*
X48793048Y6441064D01*
X48853701Y6315118D02*
X48824462Y6378615D01*
X48880731Y6250649D02*
X48853701Y6315118D01*
X48905520Y6185286D02*
X48880731Y6250649D01*
X48928038Y6119107D02*
X48905520Y6185286D01*
X48948259Y6052190D02*
X48928038Y6119107D01*
X48966157Y5984614D02*
X48948259Y6052190D01*
X48981713Y5916461D02*
X48966157Y5984614D01*
X48994906Y5847812D02*
X48981713Y5916461D01*
X49005723Y5778748D02*
X48994906Y5847812D01*
X49014149Y5709352D02*
X49005723Y5778748D01*
X49020175Y5639707D02*
X49014149Y5709352D01*
X49023793Y5569895D02*
X49020175Y5639707D01*
X49025000Y5500000D02*
X49023793Y5569895D01*
X49026177Y5431831D02*
X49025000Y5500000D01*
X49029706Y5363742D02*
X49026177Y5431831D01*
X49035583Y5295817D02*
X49029706Y5363742D01*
X49043801Y5228134D02*
X49035583Y5295817D01*
X49054350Y5160776D02*
X49043801Y5228134D01*
X49067219Y5093822D02*
X49054350Y5160776D01*
X49082390Y5027352D02*
X49067219Y5093822D01*
X49099847Y4961445D02*
X49082390Y5027352D01*
X49119568Y4896180D02*
X49099847Y4961445D01*
X49141530Y4831634D02*
X49119568Y4896180D01*
X49165706Y4767885D02*
X49141530Y4831634D01*
X49192069Y4705009D02*
X49165706Y4767885D01*
X49220586Y4643080D02*
X49192069Y4705009D01*
X49251224Y4582172D02*
X49220586Y4643080D01*
X49283946Y4522358D02*
X49251224Y4582172D01*
X49318713Y4463709D02*
X49283946Y4522358D01*
X49355484Y4406295D02*
X49318713Y4463709D01*
X49394214Y4350184D02*
X49355484Y4406295D01*
X49434858Y4295444D02*
X49394214Y4350184D01*
X49477367Y4242139D02*
X49434858Y4295444D01*
X49521691Y4190333D02*
X49477367Y4242139D01*
X49567777Y4140088D02*
X49521691Y4190333D01*
X49615569Y4091463D02*
X49567777Y4140088D01*
X49665011Y4044517D02*
X49615569Y4091463D01*
X49716044Y3999306D02*
X49665011Y4044517D01*
X49768608Y3955883D02*
X49716044Y3999306D01*
X49822638Y3914300D02*
X49768608Y3955883D01*
X49878072Y3874607D02*
X49822638Y3914300D01*
X49934843Y3836851D02*
X49878072Y3874607D01*
X49992883Y3801077D02*
X49934843Y3836851D01*
X50052123Y3767327D02*
X49992883Y3801077D01*
X50112493Y3735643D02*
X50052123Y3767327D01*
X50173921Y3706061D02*
X50112493Y3735643D01*
X50236333Y3678616D02*
X50173921Y3706061D01*
X50299655Y3653343D02*
X50236333Y3678616D01*
X50363812Y3630270D02*
X50299655Y3653343D01*
X50428727Y3609425D02*
X50363812Y3630270D01*
X50494323Y3590834D02*
X50428727Y3609425D01*
X50560521Y3574517D02*
X50494323Y3590834D01*
X50627243Y3560496D02*
X50560521Y3574517D01*
X50694410Y3548785D02*
X50627243Y3560496D01*
X50761940Y3539400D02*
X50694410Y3548785D01*
X50829754Y3532351D02*
X50761940Y3539400D01*
X50897771Y3527648D02*
X50829754Y3532351D01*
X50965910Y3525294D02*
X50897771Y3527648D01*
X51034090Y3525294D02*
X50965910Y3525294D01*
X51102229Y3527648D02*
X51034090Y3525294D01*
X51170246Y3532351D02*
X51102229Y3527648D01*
X51238060Y3539400D02*
X51170246Y3532351D01*
X51305590Y3548785D02*
X51238060Y3539400D01*
X51372757Y3560496D02*
X51305590Y3548785D01*
X51439479Y3574517D02*
X51372757Y3560496D01*
X51505677Y3590834D02*
X51439479Y3574517D01*
X51571273Y3609425D02*
X51505677Y3590834D01*
X51636188Y3630270D02*
X51571273Y3609425D01*
X51700345Y3653343D02*
X51636188Y3630270D01*
X51763667Y3678616D02*
X51700345Y3653343D01*
X51826079Y3706061D02*
X51763667Y3678616D01*
X51887507Y3735643D02*
X51826079Y3706061D01*
X51947877Y3767327D02*
X51887507Y3735643D01*
X52007117Y3801077D02*
X51947877Y3767327D01*
X52065157Y3836851D02*
X52007117Y3801077D01*
X52121928Y3874607D02*
X52065157Y3836851D01*
X52177362Y3914300D02*
X52121928Y3874607D01*
X52231392Y3955883D02*
X52177362Y3914300D01*
X52283956Y3999306D02*
X52231392Y3955883D01*
X52334989Y4044517D02*
X52283956Y3999306D01*
X52384431Y4091463D02*
X52334989Y4044517D01*
X52432223Y4140088D02*
X52384431Y4091463D01*
X52478309Y4190333D02*
X52432223Y4140088D01*
X52522633Y4242139D02*
X52478309Y4190333D01*
X52565142Y4295444D02*
X52522633Y4242139D01*
X52605786Y4350184D02*
X52565142Y4295444D01*
X52644516Y4406295D02*
X52605786Y4350184D01*
X52681287Y4463709D02*
X52644516Y4406295D01*
X52716054Y4522358D02*
X52681287Y4463709D01*
X52748776Y4582172D02*
X52716054Y4522358D01*
X52779414Y4643080D02*
X52748776Y4582172D01*
X52807931Y4705009D02*
X52779414Y4643080D01*
X52834294Y4767885D02*
X52807931Y4705009D01*
X52858470Y4831634D02*
X52834294Y4767885D01*
X52880432Y4896180D02*
X52858470Y4831634D01*
X52900153Y4961445D02*
X52880432Y4896180D01*
X52917610Y5027352D02*
X52900153Y4961445D01*
X52932781Y5093822D02*
X52917610Y5027352D01*
X52945650Y5160776D02*
X52932781Y5093822D01*
X52956199Y5228134D02*
X52945650Y5160776D01*
X52964417Y5295817D02*
X52956199Y5228134D01*
X52970294Y5363742D02*
X52964417Y5295817D01*
X52973823Y5431831D02*
X52970294Y5363742D01*
X52975000Y5500000D02*
X52973823Y5431831D01*
X52976207Y5569895D02*
X52975000Y5500000D01*
X52979825Y5639707D02*
X52976207Y5569895D01*
X52985851Y5709352D02*
X52979825Y5639707D01*
X52994277Y5778748D02*
X52985851Y5709352D01*
X53005094Y5847812D02*
X52994277Y5778748D01*
X53018287Y5916461D02*
X53005094Y5847812D01*
X53033843Y5984614D02*
X53018287Y5916461D01*
X53051741Y6052190D02*
X53033843Y5984614D01*
X53071962Y6119107D02*
X53051741Y6052190D01*
X53094480Y6185286D02*
X53071962Y6119107D01*
X53119269Y6250649D02*
X53094480Y6185286D01*
X53146299Y6315118D02*
X53119269Y6250649D01*
X53175538Y6378615D02*
X53146299Y6315118D01*
X53206952Y6441064D02*
X53175538Y6378615D01*
X53240502Y6502393D02*
X53206952Y6441064D01*
X53276149Y6562527D02*
X53240502Y6502393D01*
X53313850Y6621394D02*
X53276149Y6562527D01*
X53353561Y6678925D02*
X53313850Y6621394D01*
X53395234Y6735052D02*
X53353561Y6678925D01*
X53438820Y6789706D02*
X53395234Y6735052D01*
X53484266Y6842823D02*
X53438820Y6789706D01*
X53531518Y6894341D02*
X53484266Y6842823D01*
X53580520Y6944196D02*
X53531518Y6894341D01*
X53631214Y6992330D02*
X53580520Y6944196D01*
X53683539Y7038686D02*
X53631214Y6992330D01*
X53737433Y7083209D02*
X53683539Y7038686D01*
X53792832Y7125844D02*
X53737433Y7083209D01*
X53849669Y7166542D02*
X53792832Y7125844D01*
X53907877Y7205254D02*
X53849669Y7166542D01*
X53967386Y7241934D02*
X53907877Y7205254D01*
X54028127Y7276538D02*
X53967386Y7241934D01*
X54090025Y7309025D02*
X54028127Y7276538D01*
X54153008Y7339356D02*
X54090025Y7309025D01*
X54217000Y7367495D02*
X54153008Y7339356D01*
X54281925Y7393408D02*
X54217000Y7367495D01*
X54347706Y7417065D02*
X54281925Y7393408D01*
X54414264Y7438437D02*
X54347706Y7417065D01*
X54481521Y7457500D02*
X54414264Y7438437D01*
X54549395Y7474229D02*
X54481521Y7457500D01*
X54617806Y7488606D02*
X54549395Y7474229D01*
X54686673Y7500613D02*
X54617806Y7488606D01*
X54755913Y7510235D02*
X54686673Y7500613D01*
X54825444Y7517463D02*
X54755913Y7510235D01*
X54895183Y7522285D02*
X54825444Y7517463D01*
X54965047Y7524698D02*
X54895183Y7522285D01*
X55034953Y7524698D02*
X54965047Y7524698D01*
X55104817Y7522285D02*
X55034953Y7524698D01*
X55174556Y7517463D02*
X55104817Y7522285D01*
X55244087Y7510235D02*
X55174556Y7517463D01*
X55313327Y7500613D02*
X55244087Y7510235D01*
X55382194Y7488606D02*
X55313327Y7500613D01*
X55450605Y7474229D02*
X55382194Y7488606D01*
X55518479Y7457500D02*
X55450605Y7474229D01*
X55585736Y7438437D02*
X55518479Y7457500D01*
X55652294Y7417065D02*
X55585736Y7438437D01*
X55718075Y7393408D02*
X55652294Y7417065D01*
X55783000Y7367495D02*
X55718075Y7393408D01*
X55846992Y7339356D02*
X55783000Y7367495D01*
X55909975Y7309025D02*
X55846992Y7339356D01*
X55971873Y7276538D02*
X55909975Y7309025D01*
X56032614Y7241934D02*
X55971873Y7276538D01*
X56092123Y7205254D02*
X56032614Y7241934D01*
X56150331Y7166542D02*
X56092123Y7205254D01*
X56207168Y7125844D02*
X56150331Y7166542D01*
X56262567Y7083209D02*
X56207168Y7125844D01*
X56316461Y7038686D02*
X56262567Y7083209D01*
X56368786Y6992330D02*
X56316461Y7038686D01*
X56419480Y6944196D02*
X56368786Y6992330D01*
X56468482Y6894341D02*
X56419480Y6944196D01*
X56515734Y6842823D02*
X56468482Y6894341D01*
X56561180Y6789706D02*
X56515734Y6842823D01*
X56604766Y6735052D02*
X56561180Y6789706D01*
X56646439Y6678925D02*
X56604766Y6735052D01*
X56686150Y6621394D02*
X56646439Y6678925D01*
X56723851Y6562527D02*
X56686150Y6621394D01*
X56759498Y6502393D02*
X56723851Y6562527D01*
X56793048Y6441064D02*
X56759498Y6502393D01*
X56824462Y6378615D02*
X56793048Y6441064D01*
X56853701Y6315118D02*
X56824462Y6378615D01*
X56880731Y6250649D02*
X56853701Y6315118D01*
X56905520Y6185286D02*
X56880731Y6250649D01*
X56928038Y6119107D02*
X56905520Y6185286D01*
X56948259Y6052190D02*
X56928038Y6119107D01*
X56966157Y5984614D02*
X56948259Y6052190D01*
X56981713Y5916461D02*
X56966157Y5984614D01*
X56994906Y5847812D02*
X56981713Y5916461D01*
X57005723Y5778748D02*
X56994906Y5847812D01*
X57014149Y5709352D02*
X57005723Y5778748D01*
X57020175Y5639707D02*
X57014149Y5709352D01*
X57023793Y5569895D02*
X57020175Y5639707D01*
X57025000Y5500000D02*
X57023793Y5569895D01*
X57026177Y5431831D02*
X57025000Y5500000D01*
X57029706Y5363742D02*
X57026177Y5431831D01*
X57035583Y5295817D02*
X57029706Y5363742D01*
X57043801Y5228134D02*
X57035583Y5295817D01*
X57054350Y5160776D02*
X57043801Y5228134D01*
X57067219Y5093822D02*
X57054350Y5160776D01*
X57082390Y5027352D02*
X57067219Y5093822D01*
X57099847Y4961445D02*
X57082390Y5027352D01*
X57119568Y4896180D02*
X57099847Y4961445D01*
X57141530Y4831634D02*
X57119568Y4896180D01*
X57165706Y4767885D02*
X57141530Y4831634D01*
X57192069Y4705009D02*
X57165706Y4767885D01*
X57220586Y4643080D02*
X57192069Y4705009D01*
X57251224Y4582172D02*
X57220586Y4643080D01*
X57283946Y4522358D02*
X57251224Y4582172D01*
X57318713Y4463709D02*
X57283946Y4522358D01*
X57355484Y4406295D02*
X57318713Y4463709D01*
X57394214Y4350184D02*
X57355484Y4406295D01*
X57434858Y4295444D02*
X57394214Y4350184D01*
X57477367Y4242139D02*
X57434858Y4295444D01*
X57521691Y4190333D02*
X57477367Y4242139D01*
X57567777Y4140088D02*
X57521691Y4190333D01*
X57615569Y4091463D02*
X57567777Y4140088D01*
X57665011Y4044517D02*
X57615569Y4091463D01*
X57716044Y3999306D02*
X57665011Y4044517D01*
X57768608Y3955883D02*
X57716044Y3999306D01*
X57822638Y3914300D02*
X57768608Y3955883D01*
X57878072Y3874607D02*
X57822638Y3914300D01*
X57934843Y3836851D02*
X57878072Y3874607D01*
X57992883Y3801077D02*
X57934843Y3836851D01*
X58052123Y3767327D02*
X57992883Y3801077D01*
X58112493Y3735643D02*
X58052123Y3767327D01*
X58173921Y3706061D02*
X58112493Y3735643D01*
X58236333Y3678616D02*
X58173921Y3706061D01*
X58299655Y3653343D02*
X58236333Y3678616D01*
X58363812Y3630270D02*
X58299655Y3653343D01*
X58428727Y3609425D02*
X58363812Y3630270D01*
X58494323Y3590834D02*
X58428727Y3609425D01*
X58560521Y3574517D02*
X58494323Y3590834D01*
X58627243Y3560496D02*
X58560521Y3574517D01*
X58694410Y3548785D02*
X58627243Y3560496D01*
X58761940Y3539400D02*
X58694410Y3548785D01*
X58829754Y3532351D02*
X58761940Y3539400D01*
X58897771Y3527648D02*
X58829754Y3532351D01*
X58965910Y3525294D02*
X58897771Y3527648D01*
X59034090Y3525294D02*
X58965910Y3525294D01*
X59102229Y3527648D02*
X59034090Y3525294D01*
X59170246Y3532351D02*
X59102229Y3527648D01*
X59238060Y3539400D02*
X59170246Y3532351D01*
X59305590Y3548785D02*
X59238060Y3539400D01*
X59372757Y3560496D02*
X59305590Y3548785D01*
X59439479Y3574517D02*
X59372757Y3560496D01*
X59505677Y3590834D02*
X59439479Y3574517D01*
X59571273Y3609425D02*
X59505677Y3590834D01*
X59636188Y3630270D02*
X59571273Y3609425D01*
X59700345Y3653343D02*
X59636188Y3630270D01*
X59763667Y3678616D02*
X59700345Y3653343D01*
X59826079Y3706061D02*
X59763667Y3678616D01*
X59887507Y3735643D02*
X59826079Y3706061D01*
X59947877Y3767327D02*
X59887507Y3735643D01*
X60007117Y3801077D02*
X59947877Y3767327D01*
X60065157Y3836851D02*
X60007117Y3801077D01*
X60121928Y3874607D02*
X60065157Y3836851D01*
X60177362Y3914300D02*
X60121928Y3874607D01*
X60231392Y3955883D02*
X60177362Y3914300D01*
X60283956Y3999306D02*
X60231392Y3955883D01*
X60334989Y4044517D02*
X60283956Y3999306D01*
X60384431Y4091463D02*
X60334989Y4044517D01*
X60432223Y4140088D02*
X60384431Y4091463D01*
X60478309Y4190333D02*
X60432223Y4140088D01*
X60522633Y4242139D02*
X60478309Y4190333D01*
X60565142Y4295444D02*
X60522633Y4242139D01*
X60605786Y4350184D02*
X60565142Y4295444D01*
X60644516Y4406295D02*
X60605786Y4350184D01*
X60681287Y4463709D02*
X60644516Y4406295D01*
X60716054Y4522358D02*
X60681287Y4463709D01*
X60748776Y4582172D02*
X60716054Y4522358D01*
X60779414Y4643080D02*
X60748776Y4582172D01*
X60807931Y4705009D02*
X60779414Y4643080D01*
X60834294Y4767885D02*
X60807931Y4705009D01*
X60858470Y4831634D02*
X60834294Y4767885D01*
X60880432Y4896180D02*
X60858470Y4831634D01*
X60900153Y4961445D02*
X60880432Y4896180D01*
X60917610Y5027352D02*
X60900153Y4961445D01*
X60932781Y5093822D02*
X60917610Y5027352D01*
X60945650Y5160776D02*
X60932781Y5093822D01*
X60956199Y5228134D02*
X60945650Y5160776D01*
X60964417Y5295817D02*
X60956199Y5228134D01*
X60970294Y5363742D02*
X60964417Y5295817D01*
X60973823Y5431831D02*
X60970294Y5363742D01*
X60975000Y5500000D02*
X60973823Y5431831D01*
X60975000Y16625000D02*
X60975000Y5500000D01*
X62000000Y16625000D02*
X60975000Y16625000D01*
X62010990Y16623086D02*
X62000000Y16625000D01*
X62022041Y16621556D02*
X62010990Y16623086D01*
X62033138Y16620412D02*
X62022041Y16621556D01*
X62044268Y16619654D02*
X62033138Y16620412D01*
X62055418Y16619285D02*
X62044268Y16619654D01*
X62066573Y16619304D02*
X62055418Y16619285D01*
X62077722Y16619712D02*
X62066573Y16619304D01*
X62088849Y16620508D02*
X62077722Y16619712D01*
X62099942Y16621691D02*
X62088849Y16620508D01*
X62110987Y16623259D02*
X62099942Y16621691D01*
X62121971Y16625211D02*
X62110987Y16623259D01*
X62132880Y16627544D02*
X62121971Y16625211D01*
X62143701Y16630256D02*
X62132880Y16627544D01*
X62154422Y16633343D02*
X62143701Y16630256D01*
X62165028Y16636801D02*
X62154422Y16633343D01*
X62175507Y16640627D02*
X62165028Y16636801D01*
X62185847Y16644815D02*
X62175507Y16640627D01*
X62196035Y16649361D02*
X62185847Y16644815D01*
X62206058Y16654258D02*
X62196035Y16649361D01*
X62215905Y16659502D02*
X62206058Y16654258D01*
X62225563Y16665086D02*
X62215905Y16659502D01*
X62235020Y16671002D02*
X62225563Y16665086D01*
X62244266Y16677244D02*
X62235020Y16671002D01*
X62253289Y16683805D02*
X62244266Y16677244D01*
X62262078Y16690675D02*
X62253289Y16683805D01*
X62270623Y16697848D02*
X62262078Y16690675D01*
X62278912Y16705313D02*
X62270623Y16697848D01*
X62286937Y16713063D02*
X62278912Y16705313D01*
X62294687Y16721088D02*
X62286937Y16713063D01*
X62302152Y16729377D02*
X62294687Y16721088D01*
X62309325Y16737922D02*
X62302152Y16729377D01*
X62316195Y16746711D02*
X62309325Y16737922D01*
X62322756Y16755734D02*
X62316195Y16746711D01*
X62328998Y16764980D02*
X62322756Y16755734D01*
X62334914Y16774437D02*
X62328998Y16764980D01*
X62340498Y16784095D02*
X62334914Y16774437D01*
X62345742Y16793942D02*
X62340498Y16784095D01*
X62350639Y16803965D02*
X62345742Y16793942D01*
X62355185Y16814153D02*
X62350639Y16803965D01*
X62359373Y16824493D02*
X62355185Y16814153D01*
X62363199Y16834972D02*
X62359373Y16824493D01*
X62366657Y16845578D02*
X62363199Y16834972D01*
X62369744Y16856299D02*
X62366657Y16845578D01*
X62372456Y16867120D02*
X62369744Y16856299D01*
X62374789Y16878029D02*
X62372456Y16867120D01*
X62376741Y16889013D02*
X62374789Y16878029D01*
X62378309Y16900058D02*
X62376741Y16889013D01*
X62379492Y16911151D02*
X62378309Y16900058D01*
X62380288Y16922278D02*
X62379492Y16911151D01*
X62380696Y16933427D02*
X62380288Y16922278D01*
X62380715Y16944582D02*
X62380696Y16933427D01*
X62380346Y16955732D02*
X62380715Y16944582D01*
X62379588Y16966862D02*
X62380346Y16955732D01*
X62378444Y16977959D02*
X62379588Y16966862D01*
X62376914Y16989010D02*
X62378444Y16977959D01*
X62375000Y17000000D02*
X62376914Y16989010D01*
X62375000Y19000000D02*
X62375000Y17000000D01*
X62376914Y19010990D02*
X62375000Y19000000D01*
X62378444Y19022041D02*
X62376914Y19010990D01*
X62379588Y19033138D02*
X62378444Y19022041D01*
X62380346Y19044268D02*
X62379588Y19033138D01*
X62380715Y19055418D02*
X62380346Y19044268D01*
X62380696Y19066573D02*
X62380715Y19055418D01*
X62380288Y19077722D02*
X62380696Y19066573D01*
X62379492Y19088849D02*
X62380288Y19077722D01*
X62378309Y19099942D02*
X62379492Y19088849D01*
X62376741Y19110987D02*
X62378309Y19099942D01*
X62374789Y19121971D02*
X62376741Y19110987D01*
X62372456Y19132880D02*
X62374789Y19121971D01*
X62369744Y19143701D02*
X62372456Y19132880D01*
X62366657Y19154422D02*
X62369744Y19143701D01*
X62363199Y19165028D02*
X62366657Y19154422D01*
X62359373Y19175507D02*
X62363199Y19165028D01*
X62355185Y19185847D02*
X62359373Y19175507D01*
X62350639Y19196035D02*
X62355185Y19185847D01*
X62345742Y19206058D02*
X62350639Y19196035D01*
X62340498Y19215905D02*
X62345742Y19206058D01*
X62334914Y19225563D02*
X62340498Y19215905D01*
X62328998Y19235020D02*
X62334914Y19225563D01*
X62322756Y19244266D02*
X62328998Y19235020D01*
X62316195Y19253289D02*
X62322756Y19244266D01*
X62309325Y19262078D02*
X62316195Y19253289D01*
X62302152Y19270623D02*
X62309325Y19262078D01*
X62294687Y19278912D02*
X62302152Y19270623D01*
X62286937Y19286937D02*
X62294687Y19278912D01*
X62278912Y19294687D02*
X62286937Y19286937D01*
X62270623Y19302152D02*
X62278912Y19294687D01*
X62262078Y19309325D02*
X62270623Y19302152D01*
X62253289Y19316195D02*
X62262078Y19309325D01*
X62244266Y19322756D02*
X62253289Y19316195D01*
X62235020Y19328998D02*
X62244266Y19322756D01*
X62225563Y19334914D02*
X62235020Y19328998D01*
X62215905Y19340498D02*
X62225563Y19334914D01*
X62206058Y19345742D02*
X62215905Y19340498D01*
X62196035Y19350639D02*
X62206058Y19345742D01*
X62185847Y19355185D02*
X62196035Y19350639D01*
X62175507Y19359373D02*
X62185847Y19355185D01*
X62165028Y19363199D02*
X62175507Y19359373D01*
X62154422Y19366657D02*
X62165028Y19363199D01*
X62143701Y19369744D02*
X62154422Y19366657D01*
X62132880Y19372456D02*
X62143701Y19369744D01*
X62121971Y19374789D02*
X62132880Y19372456D01*
X62110987Y19376741D02*
X62121971Y19374789D01*
X62099942Y19378309D02*
X62110987Y19376741D01*
X62088849Y19379492D02*
X62099942Y19378309D01*
X62077722Y19380288D02*
X62088849Y19379492D01*
X62066573Y19380696D02*
X62077722Y19380288D01*
X62055418Y19380715D02*
X62066573Y19380696D01*
X62044268Y19380346D02*
X62055418Y19380715D01*
X62033138Y19379588D02*
X62044268Y19380346D01*
X62022041Y19378444D02*
X62033138Y19379588D01*
X62010990Y19376914D02*
X62022041Y19378444D01*
X62000000Y19375000D02*
X62010990Y19376914D01*
X60975000Y19375000D02*
X62000000Y19375000D01*
X60975000Y28711146D02*
X60975000Y19375000D01*
X60977713Y28722953D02*
X60975000Y28711146D01*
X60980014Y28734848D02*
X60977713Y28722953D01*
X60981899Y28746816D02*
X60980014Y28734848D01*
X60983365Y28758843D02*
X60981899Y28746816D01*
X60984412Y28770913D02*
X60983365Y28758843D01*
X60985038Y28783012D02*
X60984412Y28770913D01*
X60985242Y28795126D02*
X60985038Y28783012D01*
X60985024Y28807240D02*
X60985242Y28795126D01*
X60984384Y28819338D02*
X60985024Y28807240D01*
X60983324Y28831407D02*
X60984384Y28819338D01*
X60981843Y28843432D02*
X60983324Y28831407D01*
X60979945Y28855398D02*
X60981843Y28843432D01*
X60977630Y28867290D02*
X60979945Y28855398D01*
X60974903Y28879095D02*
X60977630Y28867290D01*
X60971767Y28890797D02*
X60974903Y28879095D01*
X60968225Y28902383D02*
X60971767Y28890797D01*
X60964281Y28913839D02*
X60968225Y28902383D01*
X60959941Y28925150D02*
X60964281Y28913839D01*
X60955209Y28936304D02*
X60959941Y28925150D01*
X60950092Y28947286D02*
X60955209Y28936304D01*
X60944595Y28958082D02*
X60950092Y28947286D01*
X60938726Y28968681D02*
X60944595Y28958082D01*
X60932491Y28979069D02*
X60938726Y28968681D01*
X60925897Y28989234D02*
X60932491Y28979069D01*
X60918954Y28999162D02*
X60925897Y28989234D01*
X60911670Y29008843D02*
X60918954Y28999162D01*
X60904052Y29018264D02*
X60911670Y29008843D01*
X60896111Y29027414D02*
X60904052Y29018264D01*
X60887856Y29036282D02*
X60896111Y29027414D01*
X60879297Y29044857D02*
X60887856Y29036282D01*
X60870445Y29053129D02*
X60879297Y29044857D01*
X60861310Y29061088D02*
X60870445Y29053129D01*
X60851903Y29068723D02*
X60861310Y29061088D01*
X60842236Y29076026D02*
X60851903Y29068723D01*
X60832320Y29082988D02*
X60842236Y29076026D01*
X60822168Y29089600D02*
X60832320Y29082988D01*
X60811792Y29095855D02*
X60822168Y29089600D01*
X60801205Y29101744D02*
X60811792Y29095855D01*
X60790418Y29107261D02*
X60801205Y29101744D01*
X60779446Y29112399D02*
X60790418Y29107261D01*
X60768302Y29117152D02*
X60779446Y29112399D01*
X60756999Y29121514D02*
X60768302Y29117152D01*
X60745550Y29125479D02*
X60756999Y29121514D01*
X60733971Y29129043D02*
X60745550Y29125479D01*
X60722274Y29132202D02*
X60733971Y29129043D01*
X60710475Y29134951D02*
X60722274Y29132202D01*
X60698587Y29137288D02*
X60710475Y29134951D01*
X60686625Y29139209D02*
X60698587Y29137288D01*
X60674603Y29140712D02*
X60686625Y29139209D01*
X60662536Y29141796D02*
X60674603Y29140712D01*
X60650439Y29142459D02*
X60662536Y29141796D01*
X60638326Y29142700D02*
X60650439Y29142459D01*
X60626211Y29142518D02*
X60638326Y29142700D01*
X60614111Y29141915D02*
X60626211Y29142518D01*
X60602039Y29140891D02*
X60614111Y29141915D01*
X60590010Y29139447D02*
X60602039Y29140891D01*
X60578038Y29137585D02*
X60590010Y29139447D01*
X60566139Y29135307D02*
X60578038Y29137585D01*
X60554326Y29132616D02*
X60566139Y29135307D01*
X60542614Y29129515D02*
X60554326Y29132616D01*
X60531017Y29126008D02*
X60542614Y29129515D01*
X60519549Y29122099D02*
X60531017Y29126008D01*
X60508225Y29117794D02*
X60519549Y29122099D01*
X60497057Y29113096D02*
X60508225Y29117794D01*
X60486060Y29108012D02*
X60497057Y29113096D01*
X60475246Y29102548D02*
X60486060Y29108012D01*
X60464630Y29096711D02*
X60475246Y29102548D01*
X60454223Y29090508D02*
X60464630Y29096711D01*
X60444038Y29083946D02*
X60454223Y29090508D01*
X60434089Y29077033D02*
X60444038Y29083946D01*
X60424386Y29069777D02*
X60434089Y29077033D01*
X60414941Y29062188D02*
X60424386Y29069777D01*
X60405767Y29054275D02*
X60414941Y29062188D01*
X60396874Y29046047D02*
X60405767Y29054275D01*
X60388273Y29037515D02*
X60396874Y29046047D01*
X60379974Y29028687D02*
X60388273Y29037515D01*
X60371988Y29019577D02*
X60379974Y29028687D01*
X60364324Y29010193D02*
X60371988Y29019577D01*
X60356992Y29000548D02*
X60364324Y29010193D01*
X60350000Y28990654D02*
X60356992Y29000548D01*
X60296580Y28944524D02*
X60350000Y28990654D01*
X60241585Y28900284D02*
X60296580Y28944524D01*
X60185082Y28857987D02*
X60241585Y28900284D01*
X60127139Y28817685D02*
X60185082Y28857987D01*
X60067827Y28779427D02*
X60127139Y28817685D01*
X60007217Y28743259D02*
X60067827Y28779427D01*
X59945384Y28709225D02*
X60007217Y28743259D01*
X59882403Y28677367D02*
X59945384Y28709225D01*
X59818349Y28647723D02*
X59882403Y28677367D01*
X59753301Y28620329D02*
X59818349Y28647723D01*
X59687338Y28595219D02*
X59753301Y28620329D01*
X59620540Y28572423D02*
X59687338Y28595219D01*
X59552989Y28551968D02*
X59620540Y28572423D01*
X59484765Y28533880D02*
X59552989Y28551968D01*
X59415953Y28518181D02*
X59484765Y28533880D01*
X59346635Y28504889D02*
X59415953Y28518181D01*
X59276896Y28494021D02*
X59346635Y28504889D01*
X59206821Y28485589D02*
X59276896Y28494021D01*
X59136494Y28479605D02*
X59206821Y28485589D01*
X59066002Y28476076D02*
X59136494Y28479605D01*
X58995429Y28475005D02*
X59066002Y28476076D01*
X58924862Y28476394D02*
X58995429Y28475005D01*
X58854386Y28480242D02*
X58924862Y28476394D01*
X58784088Y28486544D02*
X58854386Y28480242D01*
X58714051Y28495291D02*
X58784088Y28486544D01*
X58644362Y28506474D02*
X58714051Y28495291D01*
X58575105Y28520079D02*
X58644362Y28506474D01*
X58506364Y28536089D02*
X58575105Y28520079D01*
X58438223Y28554484D02*
X58506364Y28536089D01*
X58370764Y28575244D02*
X58438223Y28554484D01*
X58304070Y28598341D02*
X58370764Y28575244D01*
X58238221Y28623749D02*
X58304070Y28598341D01*
X58173297Y28651436D02*
X58238221Y28623749D01*
X58109378Y28681369D02*
X58173297Y28651436D01*
X58046541Y28713512D02*
X58109378Y28681369D01*
X57984862Y28747824D02*
X58046541Y28713512D01*
X57924417Y28784265D02*
X57984862Y28747824D01*
X57865278Y28822791D02*
X57924417Y28784265D01*
X57807517Y28863354D02*
X57865278Y28822791D01*
X57751205Y28905906D02*
X57807517Y28863354D01*
X57696411Y28950394D02*
X57751205Y28905906D01*
X57643200Y28996764D02*
X57696411Y28950394D01*
X57591637Y29044961D02*
X57643200Y28996764D01*
X57541785Y29094925D02*
X57591637Y29044961D01*
X57493705Y29146596D02*
X57541785Y29094925D01*
X57447455Y29199912D02*
X57493705Y29146596D01*
X57403091Y29254807D02*
X57447455Y29199912D01*
X57360667Y29311215D02*
X57403091Y29254807D01*
X57320234Y29369066D02*
X57360667Y29311215D01*
X57281842Y29428292D02*
X57320234Y29369066D01*
X57245537Y29488820D02*
X57281842Y29428292D01*
X57211364Y29550576D02*
X57245537Y29488820D01*
X57179364Y29613485D02*
X57211364Y29550576D01*
X57149575Y29677472D02*
X57179364Y29613485D01*
X57122034Y29742458D02*
X57149575Y29677472D01*
X57096775Y29808364D02*
X57122034Y29742458D01*
X57073828Y29875110D02*
X57096775Y29808364D01*
X57053221Y29942616D02*
X57073828Y29875110D01*
X57034979Y30010798D02*
X57053221Y29942616D01*
X57019124Y30079575D02*
X57034979Y30010798D01*
X57005676Y30148863D02*
X57019124Y30079575D01*
X56994651Y30218577D02*
X57005676Y30148863D01*
X56986061Y30288633D02*
X56994651Y30218577D01*
X56979919Y30358946D02*
X56986061Y30288633D01*
X56976230Y30429430D02*
X56979919Y30358946D01*
X56975000Y30500000D02*
X56976230Y30429430D01*
X56973823Y30568169D02*
X56975000Y30500000D01*
X56970294Y30636258D02*
X56973823Y30568169D01*
X56964417Y30704183D02*
X56970294Y30636258D01*
X56956199Y30771866D02*
X56964417Y30704183D01*
X56945650Y30839224D02*
X56956199Y30771866D01*
X56932781Y30906178D02*
X56945650Y30839224D01*
X56917610Y30972648D02*
X56932781Y30906178D01*
X56900153Y31038555D02*
X56917610Y30972648D01*
X56880432Y31103820D02*
X56900153Y31038555D01*
X56858470Y31168366D02*
X56880432Y31103820D01*
X56834294Y31232115D02*
X56858470Y31168366D01*
X56807931Y31294991D02*
X56834294Y31232115D01*
X56779414Y31356920D02*
X56807931Y31294991D01*
X56748776Y31417828D02*
X56779414Y31356920D01*
X56716054Y31477642D02*
X56748776Y31417828D01*
X56681287Y31536291D02*
X56716054Y31477642D01*
X56644516Y31593705D02*
X56681287Y31536291D01*
X56605786Y31649816D02*
X56644516Y31593705D01*
X56565142Y31704556D02*
X56605786Y31649816D01*
X56522633Y31757861D02*
X56565142Y31704556D01*
X56478309Y31809667D02*
X56522633Y31757861D01*
X56432223Y31859912D02*
X56478309Y31809667D01*
X56384431Y31908537D02*
X56432223Y31859912D01*
X56334989Y31955483D02*
X56384431Y31908537D01*
X56283956Y32000694D02*
X56334989Y31955483D01*
X56231392Y32044117D02*
X56283956Y32000694D01*
X56177362Y32085700D02*
X56231392Y32044117D01*
X56121928Y32125393D02*
X56177362Y32085700D01*
X56065157Y32163149D02*
X56121928Y32125393D01*
X56007117Y32198923D02*
X56065157Y32163149D01*
X55947877Y32232673D02*
X56007117Y32198923D01*
X55887507Y32264357D02*
X55947877Y32232673D01*
X55826079Y32293939D02*
X55887507Y32264357D01*
X55763667Y32321384D02*
X55826079Y32293939D01*
X55700345Y32346657D02*
X55763667Y32321384D01*
X55636188Y32369730D02*
X55700345Y32346657D01*
X55571273Y32390575D02*
X55636188Y32369730D01*
X55505677Y32409166D02*
X55571273Y32390575D01*
X55439479Y32425483D02*
X55505677Y32409166D01*
X55372757Y32439504D02*
X55439479Y32425483D01*
X55305590Y32451215D02*
X55372757Y32439504D01*
X55238060Y32460600D02*
X55305590Y32451215D01*
X55170246Y32467649D02*
X55238060Y32460600D01*
X55102229Y32472352D02*
X55170246Y32467649D01*
X55034090Y32474706D02*
X55102229Y32472352D01*
X54965910Y32474706D02*
X55034090Y32474706D01*
X54897771Y32472352D02*
X54965910Y32474706D01*
X54829754Y32467649D02*
X54897771Y32472352D01*
X54761940Y32460600D02*
X54829754Y32467649D01*
X54694410Y32451215D02*
X54761940Y32460600D01*
X54627243Y32439504D02*
X54694410Y32451215D01*
X54560521Y32425483D02*
X54627243Y32439504D01*
X54494323Y32409166D02*
X54560521Y32425483D01*
X54428727Y32390575D02*
X54494323Y32409166D01*
X54363812Y32369730D02*
X54428727Y32390575D01*
X54299655Y32346657D02*
X54363812Y32369730D01*
X54236333Y32321384D02*
X54299655Y32346657D01*
X54173921Y32293939D02*
X54236333Y32321384D01*
X54112493Y32264357D02*
X54173921Y32293939D01*
X54052123Y32232673D02*
X54112493Y32264357D01*
X53992883Y32198923D02*
X54052123Y32232673D01*
X53934843Y32163149D02*
X53992883Y32198923D01*
X53878072Y32125393D02*
X53934843Y32163149D01*
X53822638Y32085700D02*
X53878072Y32125393D01*
X53768608Y32044117D02*
X53822638Y32085700D01*
X53716044Y32000694D02*
X53768608Y32044117D01*
X53665011Y31955483D02*
X53716044Y32000694D01*
X53615569Y31908537D02*
X53665011Y31955483D01*
X53567777Y31859912D02*
X53615569Y31908537D01*
X53521691Y31809667D02*
X53567777Y31859912D01*
X53477367Y31757861D02*
X53521691Y31809667D01*
X53434858Y31704556D02*
X53477367Y31757861D01*
X53394214Y31649816D02*
X53434858Y31704556D01*
X53355484Y31593705D02*
X53394214Y31649816D01*
X53318713Y31536291D02*
X53355484Y31593705D01*
X53283946Y31477642D02*
X53318713Y31536291D01*
X53251224Y31417828D02*
X53283946Y31477642D01*
X53220586Y31356920D02*
X53251224Y31417828D01*
X53192069Y31294991D02*
X53220586Y31356920D01*
X53165706Y31232115D02*
X53192069Y31294991D01*
X53141530Y31168366D02*
X53165706Y31232115D01*
X53119568Y31103820D02*
X53141530Y31168366D01*
X53099847Y31038555D02*
X53119568Y31103820D01*
X53082390Y30972648D02*
X53099847Y31038555D01*
X53067219Y30906178D02*
X53082390Y30972648D01*
X53054350Y30839224D02*
X53067219Y30906178D01*
X53043801Y30771866D02*
X53054350Y30839224D01*
X53035583Y30704183D02*
X53043801Y30771866D01*
X53029706Y30636258D02*
X53035583Y30704183D01*
X53026177Y30568169D02*
X53029706Y30636258D01*
X53025000Y30500000D02*
X53026177Y30568169D01*
X53023793Y30430105D02*
X53025000Y30500000D01*
X53020175Y30360293D02*
X53023793Y30430105D01*
X53014149Y30290648D02*
X53020175Y30360293D01*
X53005723Y30221252D02*
X53014149Y30290648D01*
X52994906Y30152188D02*
X53005723Y30221252D01*
X52981713Y30083539D02*
X52994906Y30152188D01*
X52966157Y30015386D02*
X52981713Y30083539D01*
X52948259Y29947810D02*
X52966157Y30015386D01*
X52928038Y29880893D02*
X52948259Y29947810D01*
X52905520Y29814714D02*
X52928038Y29880893D01*
X52880731Y29749351D02*
X52905520Y29814714D01*
X52853701Y29684882D02*
X52880731Y29749351D01*
X52824462Y29621385D02*
X52853701Y29684882D01*
X52793048Y29558936D02*
X52824462Y29621385D01*
X52759498Y29497607D02*
X52793048Y29558936D01*
X52723851Y29437473D02*
X52759498Y29497607D01*
X52686150Y29378606D02*
X52723851Y29437473D01*
X52646439Y29321075D02*
X52686150Y29378606D01*
X52604766Y29264948D02*
X52646439Y29321075D01*
X52561180Y29210294D02*
X52604766Y29264948D01*
X52515734Y29157177D02*
X52561180Y29210294D01*
X52468482Y29105659D02*
X52515734Y29157177D01*
X52419480Y29055804D02*
X52468482Y29105659D01*
X52368786Y29007670D02*
X52419480Y29055804D01*
X52316461Y28961314D02*
X52368786Y29007670D01*
X52262567Y28916791D02*
X52316461Y28961314D01*
X52207168Y28874156D02*
X52262567Y28916791D01*
X52150331Y28833458D02*
X52207168Y28874156D01*
X52092123Y28794746D02*
X52150331Y28833458D01*
X52032614Y28758066D02*
X52092123Y28794746D01*
X51971873Y28723462D02*
X52032614Y28758066D01*
X51909975Y28690975D02*
X51971873Y28723462D01*
X51846992Y28660644D02*
X51909975Y28690975D01*
X51783000Y28632505D02*
X51846992Y28660644D01*
X51718075Y28606592D02*
X51783000Y28632505D01*
X51652294Y28582935D02*
X51718075Y28606592D01*
X51585736Y28561563D02*
X51652294Y28582935D01*
X51518479Y28542500D02*
X51585736Y28561563D01*
X51450605Y28525771D02*
X51518479Y28542500D01*
X51382194Y28511394D02*
X51450605Y28525771D01*
X51313327Y28499387D02*
X51382194Y28511394D01*
X51244087Y28489765D02*
X51313327Y28499387D01*
X51174556Y28482537D02*
X51244087Y28489765D01*
X51104817Y28477715D02*
X51174556Y28482537D01*
X51034953Y28475302D02*
X51104817Y28477715D01*
X50965047Y28475302D02*
X51034953Y28475302D01*
X50895183Y28477715D02*
X50965047Y28475302D01*
X50825444Y28482537D02*
X50895183Y28477715D01*
X50755913Y28489765D02*
X50825444Y28482537D01*
X50686673Y28499387D02*
X50755913Y28489765D01*
X50617806Y28511394D02*
X50686673Y28499387D01*
X50549395Y28525771D02*
X50617806Y28511394D01*
X50481521Y28542500D02*
X50549395Y28525771D01*
X50414264Y28561563D02*
X50481521Y28542500D01*
X50347706Y28582935D02*
X50414264Y28561563D01*
X50281925Y28606592D02*
X50347706Y28582935D01*
X50217000Y28632505D02*
X50281925Y28606592D01*
X50153008Y28660644D02*
X50217000Y28632505D01*
X50090025Y28690975D02*
X50153008Y28660644D01*
X50028127Y28723462D02*
X50090025Y28690975D01*
X49967386Y28758066D02*
X50028127Y28723462D01*
X49907877Y28794746D02*
X49967386Y28758066D01*
X49849669Y28833458D02*
X49907877Y28794746D01*
X49792832Y28874156D02*
X49849669Y28833458D01*
X49737433Y28916791D02*
X49792832Y28874156D01*
X49683539Y28961314D02*
X49737433Y28916791D01*
X49631214Y29007670D02*
X49683539Y28961314D01*
X49580520Y29055804D02*
X49631214Y29007670D01*
X49531518Y29105659D02*
X49580520Y29055804D01*
X49484266Y29157177D02*
X49531518Y29105659D01*
X49438820Y29210294D02*
X49484266Y29157177D01*
X49395234Y29264948D02*
X49438820Y29210294D01*
X49353561Y29321075D02*
X49395234Y29264948D01*
X49313850Y29378606D02*
X49353561Y29321075D01*
X49276149Y29437473D02*
X49313850Y29378606D01*
X49240502Y29497607D02*
X49276149Y29437473D01*
X49206952Y29558936D02*
X49240502Y29497607D01*
X49175538Y29621385D02*
X49206952Y29558936D01*
X49146299Y29684882D02*
X49175538Y29621385D01*
X49119269Y29749351D02*
X49146299Y29684882D01*
X49094480Y29814714D02*
X49119269Y29749351D01*
X49071962Y29880893D02*
X49094480Y29814714D01*
X49051741Y29947810D02*
X49071962Y29880893D01*
X49033843Y30015386D02*
X49051741Y29947810D01*
X49018287Y30083539D02*
X49033843Y30015386D01*
X49005094Y30152188D02*
X49018287Y30083539D01*
X48994277Y30221252D02*
X49005094Y30152188D01*
X48985851Y30290648D02*
X48994277Y30221252D01*
X48979825Y30360293D02*
X48985851Y30290648D01*
X48976207Y30430105D02*
X48979825Y30360293D01*
X48975000Y30500000D02*
X48976207Y30430105D01*
X48973823Y30568169D02*
X48975000Y30500000D01*
X48970294Y30636258D02*
X48973823Y30568169D01*
X48964417Y30704183D02*
X48970294Y30636258D01*
X48956199Y30771866D02*
X48964417Y30704183D01*
X48945650Y30839224D02*
X48956199Y30771866D01*
X48932781Y30906178D02*
X48945650Y30839224D01*
X48917610Y30972648D02*
X48932781Y30906178D01*
X48900153Y31038555D02*
X48917610Y30972648D01*
X48880432Y31103820D02*
X48900153Y31038555D01*
X48858470Y31168366D02*
X48880432Y31103820D01*
X48834294Y31232115D02*
X48858470Y31168366D01*
X48807931Y31294991D02*
X48834294Y31232115D01*
X48779414Y31356920D02*
X48807931Y31294991D01*
X48748776Y31417828D02*
X48779414Y31356920D01*
X48716054Y31477642D02*
X48748776Y31417828D01*
X48681287Y31536291D02*
X48716054Y31477642D01*
X48644516Y31593705D02*
X48681287Y31536291D01*
X48605786Y31649816D02*
X48644516Y31593705D01*
X48565142Y31704556D02*
X48605786Y31649816D01*
X48522633Y31757861D02*
X48565142Y31704556D01*
X48478309Y31809667D02*
X48522633Y31757861D01*
X48432223Y31859912D02*
X48478309Y31809667D01*
X48384431Y31908537D02*
X48432223Y31859912D01*
X48334989Y31955483D02*
X48384431Y31908537D01*
X48283956Y32000694D02*
X48334989Y31955483D01*
X48231392Y32044117D02*
X48283956Y32000694D01*
X48177362Y32085700D02*
X48231392Y32044117D01*
X48121928Y32125393D02*
X48177362Y32085700D01*
X48065157Y32163149D02*
X48121928Y32125393D01*
X48007117Y32198923D02*
X48065157Y32163149D01*
X47947877Y32232673D02*
X48007117Y32198923D01*
X47887507Y32264357D02*
X47947877Y32232673D01*
X47826079Y32293939D02*
X47887507Y32264357D01*
X47763667Y32321384D02*
X47826079Y32293939D01*
X47700345Y32346657D02*
X47763667Y32321384D01*
X47636188Y32369730D02*
X47700345Y32346657D01*
X47571273Y32390575D02*
X47636188Y32369730D01*
X47505677Y32409166D02*
X47571273Y32390575D01*
X47439479Y32425483D02*
X47505677Y32409166D01*
X47372757Y32439504D02*
X47439479Y32425483D01*
X47305590Y32451215D02*
X47372757Y32439504D01*
X47238060Y32460600D02*
X47305590Y32451215D01*
X47170246Y32467649D02*
X47238060Y32460600D01*
X47102229Y32472352D02*
X47170246Y32467649D01*
X47034090Y32474706D02*
X47102229Y32472352D01*
X46965910Y32474706D02*
X47034090Y32474706D01*
X46897771Y32472352D02*
X46965910Y32474706D01*
X46829754Y32467649D02*
X46897771Y32472352D01*
X46761940Y32460600D02*
X46829754Y32467649D01*
X46694410Y32451215D02*
X46761940Y32460600D01*
X46627243Y32439504D02*
X46694410Y32451215D01*
X46560521Y32425483D02*
X46627243Y32439504D01*
X46494323Y32409166D02*
X46560521Y32425483D01*
X46428727Y32390575D02*
X46494323Y32409166D01*
X46363812Y32369730D02*
X46428727Y32390575D01*
X46299655Y32346657D02*
X46363812Y32369730D01*
X46236333Y32321384D02*
X46299655Y32346657D01*
X46173921Y32293939D02*
X46236333Y32321384D01*
X46112493Y32264357D02*
X46173921Y32293939D01*
X46052123Y32232673D02*
X46112493Y32264357D01*
X45992883Y32198923D02*
X46052123Y32232673D01*
X45934843Y32163149D02*
X45992883Y32198923D01*
X45878072Y32125393D02*
X45934843Y32163149D01*
X45822638Y32085700D02*
X45878072Y32125393D01*
X45768608Y32044117D02*
X45822638Y32085700D01*
X45716044Y32000694D02*
X45768608Y32044117D01*
X45665011Y31955483D02*
X45716044Y32000694D01*
X45615569Y31908537D02*
X45665011Y31955483D01*
X45567777Y31859912D02*
X45615569Y31908537D01*
X45521691Y31809667D02*
X45567777Y31859912D01*
X45477367Y31757861D02*
X45521691Y31809667D01*
X45434858Y31704556D02*
X45477367Y31757861D01*
X45394214Y31649816D02*
X45434858Y31704556D01*
X45355484Y31593705D02*
X45394214Y31649816D01*
X45318713Y31536291D02*
X45355484Y31593705D01*
X45283946Y31477642D02*
X45318713Y31536291D01*
X45251224Y31417828D02*
X45283946Y31477642D01*
X45220586Y31356920D02*
X45251224Y31417828D01*
X45192069Y31294991D02*
X45220586Y31356920D01*
X45165706Y31232115D02*
X45192069Y31294991D01*
X45141530Y31168366D02*
X45165706Y31232115D01*
X45119568Y31103820D02*
X45141530Y31168366D01*
X45099847Y31038555D02*
X45119568Y31103820D01*
X45082390Y30972648D02*
X45099847Y31038555D01*
X45067219Y30906178D02*
X45082390Y30972648D01*
X45054350Y30839224D02*
X45067219Y30906178D01*
X45043801Y30771866D02*
X45054350Y30839224D01*
X45035583Y30704183D02*
X45043801Y30771866D01*
X45029706Y30636258D02*
X45035583Y30704183D01*
X45026177Y30568169D02*
X45029706Y30636258D01*
X45025000Y30500000D02*
X45026177Y30568169D01*
X45023793Y30430105D02*
X45025000Y30500000D01*
X45020175Y30360293D02*
X45023793Y30430105D01*
X45014149Y30290648D02*
X45020175Y30360293D01*
X45005723Y30221252D02*
X45014149Y30290648D01*
X44994906Y30152188D02*
X45005723Y30221252D01*
X44981713Y30083539D02*
X44994906Y30152188D01*
X44966157Y30015386D02*
X44981713Y30083539D01*
X44948259Y29947810D02*
X44966157Y30015386D01*
X44928038Y29880893D02*
X44948259Y29947810D01*
X44905520Y29814714D02*
X44928038Y29880893D01*
X44880731Y29749351D02*
X44905520Y29814714D01*
X44853701Y29684882D02*
X44880731Y29749351D01*
X44824462Y29621385D02*
X44853701Y29684882D01*
X44793048Y29558936D02*
X44824462Y29621385D01*
X44759498Y29497607D02*
X44793048Y29558936D01*
X44723851Y29437473D02*
X44759498Y29497607D01*
X44686150Y29378606D02*
X44723851Y29437473D01*
X44646439Y29321075D02*
X44686150Y29378606D01*
X44604766Y29264948D02*
X44646439Y29321075D01*
X44561180Y29210294D02*
X44604766Y29264948D01*
X44515734Y29157177D02*
X44561180Y29210294D01*
X44468482Y29105659D02*
X44515734Y29157177D01*
X44419480Y29055804D02*
X44468482Y29105659D01*
X44368786Y29007670D02*
X44419480Y29055804D01*
X44316461Y28961314D02*
X44368786Y29007670D01*
X44262567Y28916791D02*
X44316461Y28961314D01*
X44207168Y28874156D02*
X44262567Y28916791D01*
X44150331Y28833458D02*
X44207168Y28874156D01*
X44092123Y28794746D02*
X44150331Y28833458D01*
X44032614Y28758066D02*
X44092123Y28794746D01*
X43971873Y28723462D02*
X44032614Y28758066D01*
X43909975Y28690975D02*
X43971873Y28723462D01*
X43846992Y28660644D02*
X43909975Y28690975D01*
X43783000Y28632505D02*
X43846992Y28660644D01*
X43718075Y28606592D02*
X43783000Y28632505D01*
X43652294Y28582935D02*
X43718075Y28606592D01*
X43585736Y28561563D02*
X43652294Y28582935D01*
X43518479Y28542500D02*
X43585736Y28561563D01*
X43450605Y28525771D02*
X43518479Y28542500D01*
X43382194Y28511394D02*
X43450605Y28525771D01*
X43313327Y28499387D02*
X43382194Y28511394D01*
X43244087Y28489765D02*
X43313327Y28499387D01*
X43174556Y28482537D02*
X43244087Y28489765D01*
X43104817Y28477715D02*
X43174556Y28482537D01*
X43034953Y28475302D02*
X43104817Y28477715D01*
X42965047Y28475302D02*
X43034953Y28475302D01*
X42895183Y28477715D02*
X42965047Y28475302D01*
X42825444Y28482537D02*
X42895183Y28477715D01*
X42755913Y28489765D02*
X42825444Y28482537D01*
X42686673Y28499387D02*
X42755913Y28489765D01*
X42617806Y28511394D02*
X42686673Y28499387D01*
X42549395Y28525771D02*
X42617806Y28511394D01*
X42481521Y28542500D02*
X42549395Y28525771D01*
X42414264Y28561563D02*
X42481521Y28542500D01*
X42347706Y28582935D02*
X42414264Y28561563D01*
X42281925Y28606592D02*
X42347706Y28582935D01*
X42217000Y28632505D02*
X42281925Y28606592D01*
X42153008Y28660644D02*
X42217000Y28632505D01*
X42090025Y28690975D02*
X42153008Y28660644D01*
X42028127Y28723462D02*
X42090025Y28690975D01*
X41967386Y28758066D02*
X42028127Y28723462D01*
X41907877Y28794746D02*
X41967386Y28758066D01*
X41849669Y28833458D02*
X41907877Y28794746D01*
X41792832Y28874156D02*
X41849669Y28833458D01*
X41737433Y28916791D02*
X41792832Y28874156D01*
X41683539Y28961314D02*
X41737433Y28916791D01*
X41631214Y29007670D02*
X41683539Y28961314D01*
X41580520Y29055804D02*
X41631214Y29007670D01*
X41531518Y29105659D02*
X41580520Y29055804D01*
X41484266Y29157177D02*
X41531518Y29105659D01*
X41438820Y29210294D02*
X41484266Y29157177D01*
X41395234Y29264948D02*
X41438820Y29210294D01*
X41353561Y29321075D02*
X41395234Y29264948D01*
X41313850Y29378606D02*
X41353561Y29321075D01*
X41276149Y29437473D02*
X41313850Y29378606D01*
X41240502Y29497607D02*
X41276149Y29437473D01*
X41206952Y29558936D02*
X41240502Y29497607D01*
X41175538Y29621385D02*
X41206952Y29558936D01*
X41146299Y29684882D02*
X41175538Y29621385D01*
X41119269Y29749351D02*
X41146299Y29684882D01*
X41094480Y29814714D02*
X41119269Y29749351D01*
X41071962Y29880893D02*
X41094480Y29814714D01*
X41051741Y29947810D02*
X41071962Y29880893D01*
X41033843Y30015386D02*
X41051741Y29947810D01*
X41018287Y30083539D02*
X41033843Y30015386D01*
X41005094Y30152188D02*
X41018287Y30083539D01*
X40994277Y30221252D02*
X41005094Y30152188D01*
X40985851Y30290648D02*
X40994277Y30221252D01*
X40979825Y30360293D02*
X40985851Y30290648D01*
X40976207Y30430105D02*
X40979825Y30360293D01*
X40975000Y30500000D02*
X40976207Y30430105D01*
X40973823Y30568169D02*
X40975000Y30500000D01*
X40970294Y30636258D02*
X40973823Y30568169D01*
X40964417Y30704183D02*
X40970294Y30636258D01*
X40956199Y30771866D02*
X40964417Y30704183D01*
X40945650Y30839224D02*
X40956199Y30771866D01*
X40932781Y30906178D02*
X40945650Y30839224D01*
X40917610Y30972648D02*
X40932781Y30906178D01*
X40900153Y31038555D02*
X40917610Y30972648D01*
X40880432Y31103820D02*
X40900153Y31038555D01*
X40858470Y31168366D02*
X40880432Y31103820D01*
X40834294Y31232115D02*
X40858470Y31168366D01*
X40807931Y31294991D02*
X40834294Y31232115D01*
X40779414Y31356920D02*
X40807931Y31294991D01*
X40748776Y31417828D02*
X40779414Y31356920D01*
X40716054Y31477642D02*
X40748776Y31417828D01*
X40681287Y31536291D02*
X40716054Y31477642D01*
X40644516Y31593705D02*
X40681287Y31536291D01*
X40605786Y31649816D02*
X40644516Y31593705D01*
X40565142Y31704556D02*
X40605786Y31649816D01*
X40522633Y31757861D02*
X40565142Y31704556D01*
X40478309Y31809667D02*
X40522633Y31757861D01*
X40432223Y31859912D02*
X40478309Y31809667D01*
X40384431Y31908537D02*
X40432223Y31859912D01*
X40334989Y31955483D02*
X40384431Y31908537D01*
X40283956Y32000694D02*
X40334989Y31955483D01*
X40231392Y32044117D02*
X40283956Y32000694D01*
X40177362Y32085700D02*
X40231392Y32044117D01*
X40121928Y32125393D02*
X40177362Y32085700D01*
X40065157Y32163149D02*
X40121928Y32125393D01*
X40007117Y32198923D02*
X40065157Y32163149D01*
X39947877Y32232673D02*
X40007117Y32198923D01*
X39887507Y32264357D02*
X39947877Y32232673D01*
X39826079Y32293939D02*
X39887507Y32264357D01*
X39763667Y32321384D02*
X39826079Y32293939D01*
X39700345Y32346657D02*
X39763667Y32321384D01*
X39636188Y32369730D02*
X39700345Y32346657D01*
X39571273Y32390575D02*
X39636188Y32369730D01*
X39505677Y32409166D02*
X39571273Y32390575D01*
X39439479Y32425483D02*
X39505677Y32409166D01*
X39372757Y32439504D02*
X39439479Y32425483D01*
X39305590Y32451215D02*
X39372757Y32439504D01*
X39238060Y32460600D02*
X39305590Y32451215D01*
X39170246Y32467649D02*
X39238060Y32460600D01*
X39102229Y32472352D02*
X39170246Y32467649D01*
X39034090Y32474706D02*
X39102229Y32472352D01*
X38965910Y32474706D02*
X39034090Y32474706D01*
X38897771Y32472352D02*
X38965910Y32474706D01*
X38829754Y32467649D02*
X38897771Y32472352D01*
X38761940Y32460600D02*
X38829754Y32467649D01*
X38694410Y32451215D02*
X38761940Y32460600D01*
X38627243Y32439504D02*
X38694410Y32451215D01*
X38560521Y32425483D02*
X38627243Y32439504D01*
X38494323Y32409166D02*
X38560521Y32425483D01*
X38428727Y32390575D02*
X38494323Y32409166D01*
X38363812Y32369730D02*
X38428727Y32390575D01*
X38299655Y32346657D02*
X38363812Y32369730D01*
X38236333Y32321384D02*
X38299655Y32346657D01*
X38173921Y32293939D02*
X38236333Y32321384D01*
X38112493Y32264357D02*
X38173921Y32293939D01*
X38052123Y32232673D02*
X38112493Y32264357D01*
X37992883Y32198923D02*
X38052123Y32232673D01*
X37934843Y32163149D02*
X37992883Y32198923D01*
X37878072Y32125393D02*
X37934843Y32163149D01*
X37822638Y32085700D02*
X37878072Y32125393D01*
X37768608Y32044117D02*
X37822638Y32085700D01*
X37716044Y32000694D02*
X37768608Y32044117D01*
X37665011Y31955483D02*
X37716044Y32000694D01*
X37615569Y31908537D02*
X37665011Y31955483D01*
X37567777Y31859912D02*
X37615569Y31908537D01*
X37521691Y31809667D02*
X37567777Y31859912D01*
X37477367Y31757861D02*
X37521691Y31809667D01*
X37434858Y31704556D02*
X37477367Y31757861D01*
X37394214Y31649816D02*
X37434858Y31704556D01*
X37355484Y31593705D02*
X37394214Y31649816D01*
X37318713Y31536291D02*
X37355484Y31593705D01*
X37283946Y31477642D02*
X37318713Y31536291D01*
X37251224Y31417828D02*
X37283946Y31477642D01*
X37220586Y31356920D02*
X37251224Y31417828D01*
X37192069Y31294991D02*
X37220586Y31356920D01*
X37165706Y31232115D02*
X37192069Y31294991D01*
X37141530Y31168366D02*
X37165706Y31232115D01*
X37119568Y31103820D02*
X37141530Y31168366D01*
X37099847Y31038555D02*
X37119568Y31103820D01*
X37082390Y30972648D02*
X37099847Y31038555D01*
X37067219Y30906178D02*
X37082390Y30972648D01*
X37054350Y30839224D02*
X37067219Y30906178D01*
X37043801Y30771866D02*
X37054350Y30839224D01*
X37035583Y30704183D02*
X37043801Y30771866D01*
X37029706Y30636258D02*
X37035583Y30704183D01*
X37026177Y30568169D02*
X37029706Y30636258D01*
X37025000Y30500000D02*
X37026177Y30568169D01*
X37023793Y30430105D02*
X37025000Y30500000D01*
X37020175Y30360293D02*
X37023793Y30430105D01*
X37014149Y30290648D02*
X37020175Y30360293D01*
X37005723Y30221252D02*
X37014149Y30290648D01*
X36994906Y30152188D02*
X37005723Y30221252D01*
X36981713Y30083539D02*
X36994906Y30152188D01*
X36966157Y30015386D02*
X36981713Y30083539D01*
X36948259Y29947810D02*
X36966157Y30015386D01*
X36928038Y29880893D02*
X36948259Y29947810D01*
X36905520Y29814714D02*
X36928038Y29880893D01*
X36880731Y29749351D02*
X36905520Y29814714D01*
X36853701Y29684882D02*
X36880731Y29749351D01*
X36824462Y29621385D02*
X36853701Y29684882D01*
X36793048Y29558936D02*
X36824462Y29621385D01*
X36759498Y29497607D02*
X36793048Y29558936D01*
X36723851Y29437473D02*
X36759498Y29497607D01*
X36686150Y29378606D02*
X36723851Y29437473D01*
X36646439Y29321075D02*
X36686150Y29378606D01*
X36604766Y29264948D02*
X36646439Y29321075D01*
X36561180Y29210294D02*
X36604766Y29264948D01*
X36515734Y29157177D02*
X36561180Y29210294D01*
X36468482Y29105659D02*
X36515734Y29157177D01*
X36419480Y29055804D02*
X36468482Y29105659D01*
X36368786Y29007670D02*
X36419480Y29055804D01*
X36316461Y28961314D02*
X36368786Y29007670D01*
X36262567Y28916791D02*
X36316461Y28961314D01*
X36207168Y28874156D02*
X36262567Y28916791D01*
X36150331Y28833458D02*
X36207168Y28874156D01*
X36092123Y28794746D02*
X36150331Y28833458D01*
X36032614Y28758066D02*
X36092123Y28794746D01*
X35971873Y28723462D02*
X36032614Y28758066D01*
X35909975Y28690975D02*
X35971873Y28723462D01*
X35846992Y28660644D02*
X35909975Y28690975D01*
X35783000Y28632505D02*
X35846992Y28660644D01*
X35718075Y28606592D02*
X35783000Y28632505D01*
X35652294Y28582935D02*
X35718075Y28606592D01*
X35585736Y28561563D02*
X35652294Y28582935D01*
X35518479Y28542500D02*
X35585736Y28561563D01*
X35450605Y28525771D02*
X35518479Y28542500D01*
X35382194Y28511394D02*
X35450605Y28525771D01*
X35313327Y28499387D02*
X35382194Y28511394D01*
X35244087Y28489765D02*
X35313327Y28499387D01*
X35174556Y28482537D02*
X35244087Y28489765D01*
X35104817Y28477715D02*
X35174556Y28482537D01*
X35034953Y28475302D02*
X35104817Y28477715D01*
X34965047Y28475302D02*
X35034953Y28475302D01*
X34895183Y28477715D02*
X34965047Y28475302D01*
X34825444Y28482537D02*
X34895183Y28477715D01*
X34755913Y28489765D02*
X34825444Y28482537D01*
X34686673Y28499387D02*
X34755913Y28489765D01*
X34617806Y28511394D02*
X34686673Y28499387D01*
X34549395Y28525771D02*
X34617806Y28511394D01*
X34481521Y28542500D02*
X34549395Y28525771D01*
X34414264Y28561563D02*
X34481521Y28542500D01*
X34347706Y28582935D02*
X34414264Y28561563D01*
X34281925Y28606592D02*
X34347706Y28582935D01*
X34217000Y28632505D02*
X34281925Y28606592D01*
X34153008Y28660644D02*
X34217000Y28632505D01*
X34090025Y28690975D02*
X34153008Y28660644D01*
X34028127Y28723462D02*
X34090025Y28690975D01*
X33967386Y28758066D02*
X34028127Y28723462D01*
X33907877Y28794746D02*
X33967386Y28758066D01*
X33849669Y28833458D02*
X33907877Y28794746D01*
X33792832Y28874156D02*
X33849669Y28833458D01*
X33737433Y28916791D02*
X33792832Y28874156D01*
X33683539Y28961314D02*
X33737433Y28916791D01*
X33631214Y29007670D02*
X33683539Y28961314D01*
X33580520Y29055804D02*
X33631214Y29007670D01*
X33531518Y29105659D02*
X33580520Y29055804D01*
X33484266Y29157177D02*
X33531518Y29105659D01*
X33438820Y29210294D02*
X33484266Y29157177D01*
X33395234Y29264948D02*
X33438820Y29210294D01*
X33353561Y29321075D02*
X33395234Y29264948D01*
X33313850Y29378606D02*
X33353561Y29321075D01*
X33276149Y29437473D02*
X33313850Y29378606D01*
X33240502Y29497607D02*
X33276149Y29437473D01*
X33206952Y29558936D02*
X33240502Y29497607D01*
X33175538Y29621385D02*
X33206952Y29558936D01*
X33146299Y29684882D02*
X33175538Y29621385D01*
X33119269Y29749351D02*
X33146299Y29684882D01*
X33094480Y29814714D02*
X33119269Y29749351D01*
X33071962Y29880893D02*
X33094480Y29814714D01*
X33051741Y29947810D02*
X33071962Y29880893D01*
X33033843Y30015386D02*
X33051741Y29947810D01*
X33018287Y30083539D02*
X33033843Y30015386D01*
X33005094Y30152188D02*
X33018287Y30083539D01*
X32994277Y30221252D02*
X33005094Y30152188D01*
X32985851Y30290648D02*
X32994277Y30221252D01*
X32979825Y30360293D02*
X32985851Y30290648D01*
X32976207Y30430105D02*
X32979825Y30360293D01*
X32975000Y30500000D02*
X32976207Y30430105D01*
X32973823Y30568169D02*
X32975000Y30500000D01*
X32970294Y30636258D02*
X32973823Y30568169D01*
X32964417Y30704183D02*
X32970294Y30636258D01*
X32956199Y30771866D02*
X32964417Y30704183D01*
X32945650Y30839224D02*
X32956199Y30771866D01*
X32932781Y30906178D02*
X32945650Y30839224D01*
X32917610Y30972648D02*
X32932781Y30906178D01*
X32900153Y31038555D02*
X32917610Y30972648D01*
X32880432Y31103820D02*
X32900153Y31038555D01*
X32858470Y31168366D02*
X32880432Y31103820D01*
X32834294Y31232115D02*
X32858470Y31168366D01*
X32807931Y31294991D02*
X32834294Y31232115D01*
X32779414Y31356920D02*
X32807931Y31294991D01*
X32748776Y31417828D02*
X32779414Y31356920D01*
X32716054Y31477642D02*
X32748776Y31417828D01*
X32681287Y31536291D02*
X32716054Y31477642D01*
X32644516Y31593705D02*
X32681287Y31536291D01*
X32605786Y31649816D02*
X32644516Y31593705D01*
X32565142Y31704556D02*
X32605786Y31649816D01*
X32522633Y31757861D02*
X32565142Y31704556D01*
X32478309Y31809667D02*
X32522633Y31757861D01*
X32432223Y31859912D02*
X32478309Y31809667D01*
X32384431Y31908537D02*
X32432223Y31859912D01*
X32334989Y31955483D02*
X32384431Y31908537D01*
X32283956Y32000694D02*
X32334989Y31955483D01*
X32231392Y32044117D02*
X32283956Y32000694D01*
X32177362Y32085700D02*
X32231392Y32044117D01*
X32121928Y32125393D02*
X32177362Y32085700D01*
X32065157Y32163149D02*
X32121928Y32125393D01*
X32007117Y32198923D02*
X32065157Y32163149D01*
X31947877Y32232673D02*
X32007117Y32198923D01*
X31887507Y32264357D02*
X31947877Y32232673D01*
X31826079Y32293939D02*
X31887507Y32264357D01*
X31763667Y32321384D02*
X31826079Y32293939D01*
X31700345Y32346657D02*
X31763667Y32321384D01*
X31636188Y32369730D02*
X31700345Y32346657D01*
X31571273Y32390575D02*
X31636188Y32369730D01*
X31505677Y32409166D02*
X31571273Y32390575D01*
X31439479Y32425483D02*
X31505677Y32409166D01*
X31372757Y32439504D02*
X31439479Y32425483D01*
X31305590Y32451215D02*
X31372757Y32439504D01*
X31238060Y32460600D02*
X31305590Y32451215D01*
X31170246Y32467649D02*
X31238060Y32460600D01*
X31102229Y32472352D02*
X31170246Y32467649D01*
X31034090Y32474706D02*
X31102229Y32472352D01*
X30965910Y32474706D02*
X31034090Y32474706D01*
X30897771Y32472352D02*
X30965910Y32474706D01*
X30829754Y32467649D02*
X30897771Y32472352D01*
X30761940Y32460600D02*
X30829754Y32467649D01*
X30694410Y32451215D02*
X30761940Y32460600D01*
X30627243Y32439504D02*
X30694410Y32451215D01*
X30560521Y32425483D02*
X30627243Y32439504D01*
X30494323Y32409166D02*
X30560521Y32425483D01*
X30428727Y32390575D02*
X30494323Y32409166D01*
X30363812Y32369730D02*
X30428727Y32390575D01*
X30299655Y32346657D02*
X30363812Y32369730D01*
X30236333Y32321384D02*
X30299655Y32346657D01*
X30173921Y32293939D02*
X30236333Y32321384D01*
X30112493Y32264357D02*
X30173921Y32293939D01*
X30052123Y32232673D02*
X30112493Y32264357D01*
X29992883Y32198923D02*
X30052123Y32232673D01*
X29934843Y32163149D02*
X29992883Y32198923D01*
X29878072Y32125393D02*
X29934843Y32163149D01*
X29822638Y32085700D02*
X29878072Y32125393D01*
X29768608Y32044117D02*
X29822638Y32085700D01*
X29716044Y32000694D02*
X29768608Y32044117D01*
X29665011Y31955483D02*
X29716044Y32000694D01*
X29615569Y31908537D02*
X29665011Y31955483D01*
X29567777Y31859912D02*
X29615569Y31908537D01*
X29521691Y31809667D02*
X29567777Y31859912D01*
X29477367Y31757861D02*
X29521691Y31809667D01*
X29434858Y31704556D02*
X29477367Y31757861D01*
X29394214Y31649816D02*
X29434858Y31704556D01*
X29355484Y31593705D02*
X29394214Y31649816D01*
X29318713Y31536291D02*
X29355484Y31593705D01*
X29283946Y31477642D02*
X29318713Y31536291D01*
X29251224Y31417828D02*
X29283946Y31477642D01*
X29220586Y31356920D02*
X29251224Y31417828D01*
X29192069Y31294991D02*
X29220586Y31356920D01*
X29165706Y31232115D02*
X29192069Y31294991D01*
X29141530Y31168366D02*
X29165706Y31232115D01*
X29119568Y31103820D02*
X29141530Y31168366D01*
X29099847Y31038555D02*
X29119568Y31103820D01*
X29082390Y30972648D02*
X29099847Y31038555D01*
X29067219Y30906178D02*
X29082390Y30972648D01*
X29054350Y30839224D02*
X29067219Y30906178D01*
X29043801Y30771866D02*
X29054350Y30839224D01*
X29035583Y30704183D02*
X29043801Y30771866D01*
X29029706Y30636258D02*
X29035583Y30704183D01*
X29026177Y30568169D02*
X29029706Y30636258D01*
X29025000Y30500000D02*
X29026177Y30568169D01*
X29023793Y30430105D02*
X29025000Y30500000D01*
X29020175Y30360293D02*
X29023793Y30430105D01*
X29014149Y30290648D02*
X29020175Y30360293D01*
X29005723Y30221252D02*
X29014149Y30290648D01*
X28994906Y30152188D02*
X29005723Y30221252D01*
X28981713Y30083539D02*
X28994906Y30152188D01*
X28966157Y30015386D02*
X28981713Y30083539D01*
X28948259Y29947810D02*
X28966157Y30015386D01*
X28928038Y29880893D02*
X28948259Y29947810D01*
X28905520Y29814714D02*
X28928038Y29880893D01*
X28880731Y29749351D02*
X28905520Y29814714D01*
X28853701Y29684882D02*
X28880731Y29749351D01*
X28824462Y29621385D02*
X28853701Y29684882D01*
X28793048Y29558936D02*
X28824462Y29621385D01*
X28759498Y29497607D02*
X28793048Y29558936D01*
X28723851Y29437473D02*
X28759498Y29497607D01*
X28686150Y29378606D02*
X28723851Y29437473D01*
X28646439Y29321075D02*
X28686150Y29378606D01*
X28604766Y29264948D02*
X28646439Y29321075D01*
X28561180Y29210294D02*
X28604766Y29264948D01*
X28515734Y29157177D02*
X28561180Y29210294D01*
X28468482Y29105659D02*
X28515734Y29157177D01*
X28419480Y29055804D02*
X28468482Y29105659D01*
X28368786Y29007670D02*
X28419480Y29055804D01*
X28316461Y28961314D02*
X28368786Y29007670D01*
X28262567Y28916791D02*
X28316461Y28961314D01*
X28207168Y28874156D02*
X28262567Y28916791D01*
X28150331Y28833458D02*
X28207168Y28874156D01*
X28092123Y28794746D02*
X28150331Y28833458D01*
X28032614Y28758066D02*
X28092123Y28794746D01*
X27971873Y28723462D02*
X28032614Y28758066D01*
X27909975Y28690975D02*
X27971873Y28723462D01*
X27846992Y28660644D02*
X27909975Y28690975D01*
X27783000Y28632505D02*
X27846992Y28660644D01*
X27718075Y28606592D02*
X27783000Y28632505D01*
X27652294Y28582935D02*
X27718075Y28606592D01*
X27585736Y28561563D02*
X27652294Y28582935D01*
X27518479Y28542500D02*
X27585736Y28561563D01*
X27450605Y28525771D02*
X27518479Y28542500D01*
X27382194Y28511394D02*
X27450605Y28525771D01*
X27313327Y28499387D02*
X27382194Y28511394D01*
X27244087Y28489765D02*
X27313327Y28499387D01*
X27174556Y28482537D02*
X27244087Y28489765D01*
X27104817Y28477715D02*
X27174556Y28482537D01*
X27034953Y28475302D02*
X27104817Y28477715D01*
X26965047Y28475302D02*
X27034953Y28475302D01*
X26895183Y28477715D02*
X26965047Y28475302D01*
X26825444Y28482537D02*
X26895183Y28477715D01*
X26755913Y28489765D02*
X26825444Y28482537D01*
X26686673Y28499387D02*
X26755913Y28489765D01*
X26617806Y28511394D02*
X26686673Y28499387D01*
X26549395Y28525771D02*
X26617806Y28511394D01*
X26481521Y28542500D02*
X26549395Y28525771D01*
X26414264Y28561563D02*
X26481521Y28542500D01*
X26347706Y28582935D02*
X26414264Y28561563D01*
X26281925Y28606592D02*
X26347706Y28582935D01*
X26217000Y28632505D02*
X26281925Y28606592D01*
X26153008Y28660644D02*
X26217000Y28632505D01*
X26090025Y28690975D02*
X26153008Y28660644D01*
X26028127Y28723462D02*
X26090025Y28690975D01*
X25967386Y28758066D02*
X26028127Y28723462D01*
X25907877Y28794746D02*
X25967386Y28758066D01*
X25849669Y28833458D02*
X25907877Y28794746D01*
X25792832Y28874156D02*
X25849669Y28833458D01*
X25737433Y28916791D02*
X25792832Y28874156D01*
X25683539Y28961314D02*
X25737433Y28916791D01*
X25631214Y29007670D02*
X25683539Y28961314D01*
X25580520Y29055804D02*
X25631214Y29007670D01*
X25531518Y29105659D02*
X25580520Y29055804D01*
X25484266Y29157177D02*
X25531518Y29105659D01*
X25438820Y29210294D02*
X25484266Y29157177D01*
X25395234Y29264948D02*
X25438820Y29210294D01*
X25353561Y29321075D02*
X25395234Y29264948D01*
X25313850Y29378606D02*
X25353561Y29321075D01*
X25276149Y29437473D02*
X25313850Y29378606D01*
X25240502Y29497607D02*
X25276149Y29437473D01*
X25206952Y29558936D02*
X25240502Y29497607D01*
X25175538Y29621385D02*
X25206952Y29558936D01*
X25146299Y29684882D02*
X25175538Y29621385D01*
X25119269Y29749351D02*
X25146299Y29684882D01*
X25094480Y29814714D02*
X25119269Y29749351D01*
X25071962Y29880893D02*
X25094480Y29814714D01*
X25051741Y29947810D02*
X25071962Y29880893D01*
X25033843Y30015386D02*
X25051741Y29947810D01*
X25018287Y30083539D02*
X25033843Y30015386D01*
X25005094Y30152188D02*
X25018287Y30083539D01*
X24994277Y30221252D02*
X25005094Y30152188D01*
X24985851Y30290648D02*
X24994277Y30221252D01*
X24979825Y30360293D02*
X24985851Y30290648D01*
X24976207Y30430105D02*
X24979825Y30360293D01*
X24975000Y30500000D02*
X24976207Y30430105D01*
X24973823Y30568169D02*
X24975000Y30500000D01*
X24970294Y30636258D02*
X24973823Y30568169D01*
X24964417Y30704183D02*
X24970294Y30636258D01*
X24956199Y30771866D02*
X24964417Y30704183D01*
X24945650Y30839224D02*
X24956199Y30771866D01*
X24932781Y30906178D02*
X24945650Y30839224D01*
X24917610Y30972648D02*
X24932781Y30906178D01*
X24900153Y31038555D02*
X24917610Y30972648D01*
X24880432Y31103820D02*
X24900153Y31038555D01*
X24858470Y31168366D02*
X24880432Y31103820D01*
X24834294Y31232115D02*
X24858470Y31168366D01*
X24807931Y31294991D02*
X24834294Y31232115D01*
X24779414Y31356920D02*
X24807931Y31294991D01*
X24748776Y31417828D02*
X24779414Y31356920D01*
X24716054Y31477642D02*
X24748776Y31417828D01*
X24681287Y31536291D02*
X24716054Y31477642D01*
X24644516Y31593705D02*
X24681287Y31536291D01*
X24605786Y31649816D02*
X24644516Y31593705D01*
X24565142Y31704556D02*
X24605786Y31649816D01*
X24522633Y31757861D02*
X24565142Y31704556D01*
X24478309Y31809667D02*
X24522633Y31757861D01*
X24432223Y31859912D02*
X24478309Y31809667D01*
X24384431Y31908537D02*
X24432223Y31859912D01*
X24334989Y31955483D02*
X24384431Y31908537D01*
X24283956Y32000694D02*
X24334989Y31955483D01*
X24231392Y32044117D02*
X24283956Y32000694D01*
X24177362Y32085700D02*
X24231392Y32044117D01*
X24121928Y32125393D02*
X24177362Y32085700D01*
X24065157Y32163149D02*
X24121928Y32125393D01*
X24007117Y32198923D02*
X24065157Y32163149D01*
X23947877Y32232673D02*
X24007117Y32198923D01*
X23887507Y32264357D02*
X23947877Y32232673D01*
X23826079Y32293939D02*
X23887507Y32264357D01*
X23763667Y32321384D02*
X23826079Y32293939D01*
X23700345Y32346657D02*
X23763667Y32321384D01*
X23636188Y32369730D02*
X23700345Y32346657D01*
X23571273Y32390575D02*
X23636188Y32369730D01*
X23505677Y32409166D02*
X23571273Y32390575D01*
X23439479Y32425483D02*
X23505677Y32409166D01*
X23372757Y32439504D02*
X23439479Y32425483D01*
X23305590Y32451215D02*
X23372757Y32439504D01*
X23238060Y32460600D02*
X23305590Y32451215D01*
X23170246Y32467649D02*
X23238060Y32460600D01*
X23102229Y32472352D02*
X23170246Y32467649D01*
X23034090Y32474706D02*
X23102229Y32472352D01*
X22965910Y32474706D02*
X23034090Y32474706D01*
X22897771Y32472352D02*
X22965910Y32474706D01*
X22829754Y32467649D02*
X22897771Y32472352D01*
X22761940Y32460600D02*
X22829754Y32467649D01*
X22694410Y32451215D02*
X22761940Y32460600D01*
X22627243Y32439504D02*
X22694410Y32451215D01*
X22560521Y32425483D02*
X22627243Y32439504D01*
X22494323Y32409166D02*
X22560521Y32425483D01*
X22428727Y32390575D02*
X22494323Y32409166D01*
X22363812Y32369730D02*
X22428727Y32390575D01*
X22299655Y32346657D02*
X22363812Y32369730D01*
X22236333Y32321384D02*
X22299655Y32346657D01*
X22173921Y32293939D02*
X22236333Y32321384D01*
X22112493Y32264357D02*
X22173921Y32293939D01*
X22052123Y32232673D02*
X22112493Y32264357D01*
X21992883Y32198923D02*
X22052123Y32232673D01*
X21934843Y32163149D02*
X21992883Y32198923D01*
X21878072Y32125393D02*
X21934843Y32163149D01*
X21822638Y32085700D02*
X21878072Y32125393D01*
X21768608Y32044117D02*
X21822638Y32085700D01*
X21716044Y32000694D02*
X21768608Y32044117D01*
X21665011Y31955483D02*
X21716044Y32000694D01*
X21615569Y31908537D02*
X21665011Y31955483D01*
X21567777Y31859912D02*
X21615569Y31908537D01*
X21521691Y31809667D02*
X21567777Y31859912D01*
X21477367Y31757861D02*
X21521691Y31809667D01*
X21434858Y31704556D02*
X21477367Y31757861D01*
X21394214Y31649816D02*
X21434858Y31704556D01*
X21355484Y31593705D02*
X21394214Y31649816D01*
X21318713Y31536291D02*
X21355484Y31593705D01*
X21283946Y31477642D02*
X21318713Y31536291D01*
X21251224Y31417828D02*
X21283946Y31477642D01*
X21220586Y31356920D02*
X21251224Y31417828D01*
X21192069Y31294991D02*
X21220586Y31356920D01*
X21165706Y31232115D02*
X21192069Y31294991D01*
X21141530Y31168366D02*
X21165706Y31232115D01*
X21119568Y31103820D02*
X21141530Y31168366D01*
X21099847Y31038555D02*
X21119568Y31103820D01*
X21082390Y30972648D02*
X21099847Y31038555D01*
X21067219Y30906178D02*
X21082390Y30972648D01*
X21054350Y30839224D02*
X21067219Y30906178D01*
X21043801Y30771866D02*
X21054350Y30839224D01*
X21035583Y30704183D02*
X21043801Y30771866D01*
X21029706Y30636258D02*
X21035583Y30704183D01*
X21026177Y30568169D02*
X21029706Y30636258D01*
X21025000Y30500000D02*
X21026177Y30568169D01*
X21023793Y30430105D02*
X21025000Y30500000D01*
X21020175Y30360293D02*
X21023793Y30430105D01*
X21014149Y30290648D02*
X21020175Y30360293D01*
X21005723Y30221252D02*
X21014149Y30290648D01*
X20994906Y30152188D02*
X21005723Y30221252D01*
X20981713Y30083539D02*
X20994906Y30152188D01*
X20966157Y30015386D02*
X20981713Y30083539D01*
X20948259Y29947810D02*
X20966157Y30015386D01*
X20928038Y29880893D02*
X20948259Y29947810D01*
X20905520Y29814714D02*
X20928038Y29880893D01*
X20880731Y29749351D02*
X20905520Y29814714D01*
X20853701Y29684882D02*
X20880731Y29749351D01*
X20824462Y29621385D02*
X20853701Y29684882D01*
X20793048Y29558936D02*
X20824462Y29621385D01*
X20759498Y29497607D02*
X20793048Y29558936D01*
X20723851Y29437473D02*
X20759498Y29497607D01*
X20686150Y29378606D02*
X20723851Y29437473D01*
X20646439Y29321075D02*
X20686150Y29378606D01*
X20604766Y29264948D02*
X20646439Y29321075D01*
X20561180Y29210294D02*
X20604766Y29264948D01*
X20515734Y29157177D02*
X20561180Y29210294D01*
X20468482Y29105659D02*
X20515734Y29157177D01*
X20419480Y29055804D02*
X20468482Y29105659D01*
X20368786Y29007670D02*
X20419480Y29055804D01*
X20316461Y28961314D02*
X20368786Y29007670D01*
X20262567Y28916791D02*
X20316461Y28961314D01*
X20207168Y28874156D02*
X20262567Y28916791D01*
X20150331Y28833458D02*
X20207168Y28874156D01*
X20092123Y28794746D02*
X20150331Y28833458D01*
X20032614Y28758066D02*
X20092123Y28794746D01*
X19971873Y28723462D02*
X20032614Y28758066D01*
X19909975Y28690975D02*
X19971873Y28723462D01*
X19846992Y28660644D02*
X19909975Y28690975D01*
X19783000Y28632505D02*
X19846992Y28660644D01*
X19718075Y28606592D02*
X19783000Y28632505D01*
X19652294Y28582935D02*
X19718075Y28606592D01*
X19585736Y28561563D02*
X19652294Y28582935D01*
X19518479Y28542500D02*
X19585736Y28561563D01*
X19450605Y28525771D02*
X19518479Y28542500D01*
X19382194Y28511394D02*
X19450605Y28525771D01*
X19313327Y28499387D02*
X19382194Y28511394D01*
X19244087Y28489765D02*
X19313327Y28499387D01*
X19174556Y28482537D02*
X19244087Y28489765D01*
X19104817Y28477715D02*
X19174556Y28482537D01*
X19034953Y28475302D02*
X19104817Y28477715D01*
X18965047Y28475302D02*
X19034953Y28475302D01*
X18895183Y28477715D02*
X18965047Y28475302D01*
X18825444Y28482537D02*
X18895183Y28477715D01*
X18755913Y28489765D02*
X18825444Y28482537D01*
X18686673Y28499387D02*
X18755913Y28489765D01*
X18617806Y28511394D02*
X18686673Y28499387D01*
X18549395Y28525771D02*
X18617806Y28511394D01*
X18481521Y28542500D02*
X18549395Y28525771D01*
X18414264Y28561563D02*
X18481521Y28542500D01*
X18347706Y28582935D02*
X18414264Y28561563D01*
X18281925Y28606592D02*
X18347706Y28582935D01*
X18217000Y28632505D02*
X18281925Y28606592D01*
X18153008Y28660644D02*
X18217000Y28632505D01*
X18090025Y28690975D02*
X18153008Y28660644D01*
X18028127Y28723462D02*
X18090025Y28690975D01*
X17967386Y28758066D02*
X18028127Y28723462D01*
X17907877Y28794746D02*
X17967386Y28758066D01*
X17849669Y28833458D02*
X17907877Y28794746D01*
X17792832Y28874156D02*
X17849669Y28833458D01*
X17737433Y28916791D02*
X17792832Y28874156D01*
X17683539Y28961314D02*
X17737433Y28916791D01*
X17631214Y29007670D02*
X17683539Y28961314D01*
X17580520Y29055804D02*
X17631214Y29007670D01*
X17531518Y29105659D02*
X17580520Y29055804D01*
X17484266Y29157177D02*
X17531518Y29105659D01*
X17438820Y29210294D02*
X17484266Y29157177D01*
X17395234Y29264948D02*
X17438820Y29210294D01*
X17353561Y29321075D02*
X17395234Y29264948D01*
X17313850Y29378606D02*
X17353561Y29321075D01*
X17276149Y29437473D02*
X17313850Y29378606D01*
X17240502Y29497607D02*
X17276149Y29437473D01*
X17206952Y29558936D02*
X17240502Y29497607D01*
X17175538Y29621385D02*
X17206952Y29558936D01*
X17146299Y29684882D02*
X17175538Y29621385D01*
X17119269Y29749351D02*
X17146299Y29684882D01*
X17094480Y29814714D02*
X17119269Y29749351D01*
X17071962Y29880893D02*
X17094480Y29814714D01*
X17051741Y29947810D02*
X17071962Y29880893D01*
X17033843Y30015386D02*
X17051741Y29947810D01*
X17018287Y30083539D02*
X17033843Y30015386D01*
X17005094Y30152188D02*
X17018287Y30083539D01*
X16994277Y30221252D02*
X17005094Y30152188D01*
X16985851Y30290648D02*
X16994277Y30221252D01*
X16979825Y30360293D02*
X16985851Y30290648D01*
X16976207Y30430105D02*
X16979825Y30360293D01*
X16975000Y30500000D02*
X16976207Y30430105D01*
X16973823Y30568169D02*
X16975000Y30500000D01*
X16970294Y30636258D02*
X16973823Y30568169D01*
X16964417Y30704183D02*
X16970294Y30636258D01*
X16956199Y30771866D02*
X16964417Y30704183D01*
X16945650Y30839224D02*
X16956199Y30771866D01*
X16932781Y30906178D02*
X16945650Y30839224D01*
X16917610Y30972648D02*
X16932781Y30906178D01*
X16900153Y31038555D02*
X16917610Y30972648D01*
X16880432Y31103820D02*
X16900153Y31038555D01*
X16858470Y31168366D02*
X16880432Y31103820D01*
X16834294Y31232115D02*
X16858470Y31168366D01*
X16807931Y31294991D02*
X16834294Y31232115D01*
X16779414Y31356920D02*
X16807931Y31294991D01*
X16748776Y31417828D02*
X16779414Y31356920D01*
X16716054Y31477642D02*
X16748776Y31417828D01*
X16681287Y31536291D02*
X16716054Y31477642D01*
X16644516Y31593705D02*
X16681287Y31536291D01*
X16605786Y31649816D02*
X16644516Y31593705D01*
X16565142Y31704556D02*
X16605786Y31649816D01*
X16522633Y31757861D02*
X16565142Y31704556D01*
X16478309Y31809667D02*
X16522633Y31757861D01*
X16432223Y31859912D02*
X16478309Y31809667D01*
X16384431Y31908537D02*
X16432223Y31859912D01*
X16334989Y31955483D02*
X16384431Y31908537D01*
X16283956Y32000694D02*
X16334989Y31955483D01*
X16231392Y32044117D02*
X16283956Y32000694D01*
X16177362Y32085700D02*
X16231392Y32044117D01*
X16121928Y32125393D02*
X16177362Y32085700D01*
X16065157Y32163149D02*
X16121928Y32125393D01*
X16007117Y32198923D02*
X16065157Y32163149D01*
X15947877Y32232673D02*
X16007117Y32198923D01*
X15887507Y32264357D02*
X15947877Y32232673D01*
X15826079Y32293939D02*
X15887507Y32264357D01*
X15763667Y32321384D02*
X15826079Y32293939D01*
X15700345Y32346657D02*
X15763667Y32321384D01*
X15636188Y32369730D02*
X15700345Y32346657D01*
X15571273Y32390575D02*
X15636188Y32369730D01*
X15505677Y32409166D02*
X15571273Y32390575D01*
X15439479Y32425483D02*
X15505677Y32409166D01*
X15372757Y32439504D02*
X15439479Y32425483D01*
X15305590Y32451215D02*
X15372757Y32439504D01*
X15238060Y32460600D02*
X15305590Y32451215D01*
X15170246Y32467649D02*
X15238060Y32460600D01*
X15102229Y32472352D02*
X15170246Y32467649D01*
X15034090Y32474706D02*
X15102229Y32472352D01*
X14965910Y32474706D02*
X15034090Y32474706D01*
X14897771Y32472352D02*
X14965910Y32474706D01*
X14829754Y32467649D02*
X14897771Y32472352D01*
X14761940Y32460600D02*
X14829754Y32467649D01*
X14694410Y32451215D02*
X14761940Y32460600D01*
X14627243Y32439504D02*
X14694410Y32451215D01*
X14560521Y32425483D02*
X14627243Y32439504D01*
X14494323Y32409166D02*
X14560521Y32425483D01*
X14428727Y32390575D02*
X14494323Y32409166D01*
X14363812Y32369730D02*
X14428727Y32390575D01*
X14299655Y32346657D02*
X14363812Y32369730D01*
X14236333Y32321384D02*
X14299655Y32346657D01*
X14173921Y32293939D02*
X14236333Y32321384D01*
X14112493Y32264357D02*
X14173921Y32293939D01*
X14052123Y32232673D02*
X14112493Y32264357D01*
X13992883Y32198923D02*
X14052123Y32232673D01*
X13934843Y32163149D02*
X13992883Y32198923D01*
X13878072Y32125393D02*
X13934843Y32163149D01*
X13822638Y32085700D02*
X13878072Y32125393D01*
X13768608Y32044117D02*
X13822638Y32085700D01*
X13716044Y32000694D02*
X13768608Y32044117D01*
X13665011Y31955483D02*
X13716044Y32000694D01*
X13615569Y31908537D02*
X13665011Y31955483D01*
X13567777Y31859912D02*
X13615569Y31908537D01*
X13521691Y31809667D02*
X13567777Y31859912D01*
X13477367Y31757861D02*
X13521691Y31809667D01*
X13434858Y31704556D02*
X13477367Y31757861D01*
X13394214Y31649816D02*
X13434858Y31704556D01*
X13355484Y31593705D02*
X13394214Y31649816D01*
X13318713Y31536291D02*
X13355484Y31593705D01*
X13283946Y31477642D02*
X13318713Y31536291D01*
X13251224Y31417828D02*
X13283946Y31477642D01*
X13220586Y31356920D02*
X13251224Y31417828D01*
X13192069Y31294991D02*
X13220586Y31356920D01*
X13165706Y31232115D02*
X13192069Y31294991D01*
X13141530Y31168366D02*
X13165706Y31232115D01*
X13119568Y31103820D02*
X13141530Y31168366D01*
X13099847Y31038555D02*
X13119568Y31103820D01*
X13082390Y30972648D02*
X13099847Y31038555D01*
X13067219Y30906178D02*
X13082390Y30972648D01*
X13054350Y30839224D02*
X13067219Y30906178D01*
X13043801Y30771866D02*
X13054350Y30839224D01*
X13035583Y30704183D02*
X13043801Y30771866D01*
X13029706Y30636258D02*
X13035583Y30704183D01*
X13026177Y30568169D02*
X13029706Y30636258D01*
X13025000Y30500000D02*
X13026177Y30568169D01*
X13023793Y30430105D02*
X13025000Y30500000D01*
X13020175Y30360293D02*
X13023793Y30430105D01*
X13014149Y30290648D02*
X13020175Y30360293D01*
X13005723Y30221252D02*
X13014149Y30290648D01*
X12994906Y30152188D02*
X13005723Y30221252D01*
X12981713Y30083539D02*
X12994906Y30152188D01*
X12966157Y30015386D02*
X12981713Y30083539D01*
X12948259Y29947810D02*
X12966157Y30015386D01*
X12928038Y29880893D02*
X12948259Y29947810D01*
X12905520Y29814714D02*
X12928038Y29880893D01*
X12880731Y29749351D02*
X12905520Y29814714D01*
X12853701Y29684882D02*
X12880731Y29749351D01*
X12824462Y29621385D02*
X12853701Y29684882D01*
X12793048Y29558936D02*
X12824462Y29621385D01*
X12759498Y29497607D02*
X12793048Y29558936D01*
X12723851Y29437473D02*
X12759498Y29497607D01*
X12686150Y29378606D02*
X12723851Y29437473D01*
X12646439Y29321075D02*
X12686150Y29378606D01*
X12604766Y29264948D02*
X12646439Y29321075D01*
X12561180Y29210294D02*
X12604766Y29264948D01*
X12515734Y29157177D02*
X12561180Y29210294D01*
X12468482Y29105659D02*
X12515734Y29157177D01*
X12419480Y29055804D02*
X12468482Y29105659D01*
X12368786Y29007670D02*
X12419480Y29055804D01*
X12316461Y28961314D02*
X12368786Y29007670D01*
X12262567Y28916791D02*
X12316461Y28961314D01*
X12207168Y28874156D02*
X12262567Y28916791D01*
X12150331Y28833458D02*
X12207168Y28874156D01*
X12092123Y28794746D02*
X12150331Y28833458D01*
X12032614Y28758066D02*
X12092123Y28794746D01*
X11971873Y28723462D02*
X12032614Y28758066D01*
X11909975Y28690975D02*
X11971873Y28723462D01*
X11846992Y28660644D02*
X11909975Y28690975D01*
X11783000Y28632505D02*
X11846992Y28660644D01*
X11718075Y28606592D02*
X11783000Y28632505D01*
X11652294Y28582935D02*
X11718075Y28606592D01*
X11585736Y28561563D02*
X11652294Y28582935D01*
X11518479Y28542500D02*
X11585736Y28561563D01*
X11450605Y28525771D02*
X11518479Y28542500D01*
X11382194Y28511394D02*
X11450605Y28525771D01*
X11313327Y28499387D02*
X11382194Y28511394D01*
X11244087Y28489765D02*
X11313327Y28499387D01*
X11174556Y28482537D02*
X11244087Y28489765D01*
X11104817Y28477715D02*
X11174556Y28482537D01*
X11034953Y28475302D02*
X11104817Y28477715D01*
X10965047Y28475302D02*
X11034953Y28475302D01*
X10895183Y28477715D02*
X10965047Y28475302D01*
X10825444Y28482537D02*
X10895183Y28477715D01*
X10755913Y28489765D02*
X10825444Y28482537D01*
X10686673Y28499387D02*
X10755913Y28489765D01*
X10617806Y28511394D02*
X10686673Y28499387D01*
X10549395Y28525771D02*
X10617806Y28511394D01*
X10481521Y28542500D02*
X10549395Y28525771D01*
X10414264Y28561563D02*
X10481521Y28542500D01*
X10347706Y28582935D02*
X10414264Y28561563D01*
X10281925Y28606592D02*
X10347706Y28582935D01*
X10217000Y28632505D02*
X10281925Y28606592D01*
X10153008Y28660644D02*
X10217000Y28632505D01*
X10090025Y28690975D02*
X10153008Y28660644D01*
X10028127Y28723462D02*
X10090025Y28690975D01*
X9967386Y28758066D02*
X10028127Y28723462D01*
X9907877Y28794746D02*
X9967386Y28758066D01*
X9849669Y28833458D02*
X9907877Y28794746D01*
X9792832Y28874156D02*
X9849669Y28833458D01*
X9737433Y28916791D02*
X9792832Y28874156D01*
X9683539Y28961314D02*
X9737433Y28916791D01*
X9631214Y29007670D02*
X9683539Y28961314D01*
X9580520Y29055804D02*
X9631214Y29007670D01*
X9531518Y29105659D02*
X9580520Y29055804D01*
X9484266Y29157177D02*
X9531518Y29105659D01*
X9438820Y29210294D02*
X9484266Y29157177D01*
X9395234Y29264948D02*
X9438820Y29210294D01*
X9353561Y29321075D02*
X9395234Y29264948D01*
X9313850Y29378606D02*
X9353561Y29321075D01*
X9276149Y29437473D02*
X9313850Y29378606D01*
X9240502Y29497607D02*
X9276149Y29437473D01*
X9206952Y29558936D02*
X9240502Y29497607D01*
X9175538Y29621385D02*
X9206952Y29558936D01*
X9146299Y29684882D02*
X9175538Y29621385D01*
X9119269Y29749351D02*
X9146299Y29684882D01*
X9094480Y29814714D02*
X9119269Y29749351D01*
X9071962Y29880893D02*
X9094480Y29814714D01*
X9051741Y29947810D02*
X9071962Y29880893D01*
X9033843Y30015386D02*
X9051741Y29947810D01*
X9018287Y30083539D02*
X9033843Y30015386D01*
X9005094Y30152188D02*
X9018287Y30083539D01*
X8994277Y30221252D02*
X9005094Y30152188D01*
X8985851Y30290648D02*
X8994277Y30221252D01*
X8979825Y30360293D02*
X8985851Y30290648D01*
X8976207Y30430105D02*
X8979825Y30360293D01*
X8975000Y30500000D02*
X8976207Y30430105D01*
X8973823Y30568169D02*
X8975000Y30500000D01*
X8970294Y30636258D02*
X8973823Y30568169D01*
X8964417Y30704183D02*
X8970294Y30636258D01*
X8956199Y30771866D02*
X8964417Y30704183D01*
X8945650Y30839224D02*
X8956199Y30771866D01*
X8932781Y30906178D02*
X8945650Y30839224D01*
X8917610Y30972648D02*
X8932781Y30906178D01*
X8900153Y31038555D02*
X8917610Y30972648D01*
X8880432Y31103820D02*
X8900153Y31038555D01*
X8858470Y31168366D02*
X8880432Y31103820D01*
X8834294Y31232115D02*
X8858470Y31168366D01*
X8807931Y31294991D02*
X8834294Y31232115D01*
X8779414Y31356920D02*
X8807931Y31294991D01*
X8748776Y31417828D02*
X8779414Y31356920D01*
X8716054Y31477642D02*
X8748776Y31417828D01*
X8681287Y31536291D02*
X8716054Y31477642D01*
X8644516Y31593705D02*
X8681287Y31536291D01*
X8605786Y31649816D02*
X8644516Y31593705D01*
X8565142Y31704556D02*
X8605786Y31649816D01*
X8522633Y31757861D02*
X8565142Y31704556D01*
X8478309Y31809667D02*
X8522633Y31757861D01*
X8432223Y31859912D02*
X8478309Y31809667D01*
X8384431Y31908537D02*
X8432223Y31859912D01*
X8334989Y31955483D02*
X8384431Y31908537D01*
X8283956Y32000694D02*
X8334989Y31955483D01*
X8231392Y32044117D02*
X8283956Y32000694D01*
X8177362Y32085700D02*
X8231392Y32044117D01*
X8121928Y32125393D02*
X8177362Y32085700D01*
X8065157Y32163149D02*
X8121928Y32125393D01*
X8007117Y32198923D02*
X8065157Y32163149D01*
X7947877Y32232673D02*
X8007117Y32198923D01*
X7887507Y32264357D02*
X7947877Y32232673D01*
X7826079Y32293939D02*
X7887507Y32264357D01*
X7763667Y32321384D02*
X7826079Y32293939D01*
X7700345Y32346657D02*
X7763667Y32321384D01*
X7636188Y32369730D02*
X7700345Y32346657D01*
X7571273Y32390575D02*
X7636188Y32369730D01*
X7505677Y32409166D02*
X7571273Y32390575D01*
X7439479Y32425483D02*
X7505677Y32409166D01*
X7372757Y32439504D02*
X7439479Y32425483D01*
X7305590Y32451215D02*
X7372757Y32439504D01*
X7238060Y32460600D02*
X7305590Y32451215D01*
X7170246Y32467649D02*
X7238060Y32460600D01*
X7102229Y32472352D02*
X7170246Y32467649D01*
X7034090Y32474706D02*
X7102229Y32472352D01*
X6965910Y32474706D02*
X7034090Y32474706D01*
X6897771Y32472352D02*
X6965910Y32474706D01*
X6829754Y32467649D02*
X6897771Y32472352D01*
X6761940Y32460600D02*
X6829754Y32467649D01*
X6694410Y32451215D02*
X6761940Y32460600D01*
X6627243Y32439504D02*
X6694410Y32451215D01*
X6560521Y32425483D02*
X6627243Y32439504D01*
X6494323Y32409166D02*
X6560521Y32425483D01*
X6428727Y32390575D02*
X6494323Y32409166D01*
X6363812Y32369730D02*
X6428727Y32390575D01*
X6299655Y32346657D02*
X6363812Y32369730D01*
X6236333Y32321384D02*
X6299655Y32346657D01*
X6173921Y32293939D02*
X6236333Y32321384D01*
X6112493Y32264357D02*
X6173921Y32293939D01*
X6052123Y32232673D02*
X6112493Y32264357D01*
X5992883Y32198923D02*
X6052123Y32232673D01*
X5934843Y32163149D02*
X5992883Y32198923D01*
X5878072Y32125393D02*
X5934843Y32163149D01*
X5822638Y32085700D02*
X5878072Y32125393D01*
X5768608Y32044117D02*
X5822638Y32085700D01*
X5716044Y32000694D02*
X5768608Y32044117D01*
X5665011Y31955483D02*
X5716044Y32000694D01*
X5615569Y31908537D02*
X5665011Y31955483D01*
X5567777Y31859912D02*
X5615569Y31908537D01*
X5521691Y31809667D02*
X5567777Y31859912D01*
X5477367Y31757861D02*
X5521691Y31809667D01*
X5434858Y31704556D02*
X5477367Y31757861D01*
X5394214Y31649816D02*
X5434858Y31704556D01*
X5355484Y31593705D02*
X5394214Y31649816D01*
X5318713Y31536291D02*
X5355484Y31593705D01*
X5283946Y31477642D02*
X5318713Y31536291D01*
X5251224Y31417828D02*
X5283946Y31477642D01*
X5220586Y31356920D02*
X5251224Y31417828D01*
X5192069Y31294991D02*
X5220586Y31356920D01*
X5165706Y31232115D02*
X5192069Y31294991D01*
X5141530Y31168366D02*
X5165706Y31232115D01*
X5119568Y31103820D02*
X5141530Y31168366D01*
X5099847Y31038555D02*
X5119568Y31103820D01*
X5082390Y30972648D02*
X5099847Y31038555D01*
X5067219Y30906178D02*
X5082390Y30972648D01*
X5054350Y30839224D02*
X5067219Y30906178D01*
X5043801Y30771866D02*
X5054350Y30839224D01*
X5035583Y30704183D02*
X5043801Y30771866D01*
X5029706Y30636258D02*
X5035583Y30704183D01*
X5026177Y30568169D02*
X5029706Y30636258D01*
X5025000Y30500000D02*
X5026177Y30568169D01*
X5023770Y30429430D02*
X5025000Y30500000D01*
X5020081Y30358946D02*
X5023770Y30429430D01*
X5013939Y30288633D02*
X5020081Y30358946D01*
X5005349Y30218577D02*
X5013939Y30288633D01*
X4994324Y30148863D02*
X5005349Y30218577D01*
X4980876Y30079575D02*
X4994324Y30148863D01*
X4965021Y30010798D02*
X4980876Y30079575D01*
X4946779Y29942616D02*
X4965021Y30010798D01*
X4926172Y29875110D02*
X4946779Y29942616D01*
X4903225Y29808364D02*
X4926172Y29875110D01*
X4877966Y29742458D02*
X4903225Y29808364D01*
X4850425Y29677472D02*
X4877966Y29742458D01*
X4820636Y29613485D02*
X4850425Y29677472D01*
X4788636Y29550576D02*
X4820636Y29613485D01*
X4754463Y29488820D02*
X4788636Y29550576D01*
X4718158Y29428292D02*
X4754463Y29488820D01*
X4679766Y29369066D02*
X4718158Y29428292D01*
X4639333Y29311215D02*
X4679766Y29369066D01*
X4596909Y29254807D02*
X4639333Y29311215D01*
X4552545Y29199912D02*
X4596909Y29254807D01*
X4506295Y29146596D02*
X4552545Y29199912D01*
X4458215Y29094925D02*
X4506295Y29146596D01*
X4408363Y29044961D02*
X4458215Y29094925D01*
X4356800Y28996764D02*
X4408363Y29044961D01*
X4303589Y28950394D02*
X4356800Y28996764D01*
X4248795Y28905906D02*
X4303589Y28950394D01*
X4192483Y28863354D02*
X4248795Y28905906D01*
X4134722Y28822791D02*
X4192483Y28863354D01*
X4075583Y28784265D02*
X4134722Y28822791D01*
X4015138Y28747824D02*
X4075583Y28784265D01*
X3953459Y28713512D02*
X4015138Y28747824D01*
X3890622Y28681369D02*
X3953459Y28713512D01*
X3826703Y28651436D02*
X3890622Y28681369D01*
X3761779Y28623749D02*
X3826703Y28651436D01*
X3695930Y28598341D02*
X3761779Y28623749D01*
X3629236Y28575244D02*
X3695930Y28598341D01*
X3561777Y28554484D02*
X3629236Y28575244D01*
X3493636Y28536089D02*
X3561777Y28554484D01*
X3424895Y28520079D02*
X3493636Y28536089D01*
X3355638Y28506474D02*
X3424895Y28520079D01*
X3285949Y28495291D02*
X3355638Y28506474D01*
X3215912Y28486544D02*
X3285949Y28495291D01*
X3145614Y28480242D02*
X3215912Y28486544D01*
X3075138Y28476394D02*
X3145614Y28480242D01*
X3004571Y28475005D02*
X3075138Y28476394D01*
X2933998Y28476076D02*
X3004571Y28475005D01*
X2863506Y28479605D02*
X2933998Y28476076D01*
X2793179Y28485589D02*
X2863506Y28479605D01*
X2723104Y28494021D02*
X2793179Y28485589D01*
X2653365Y28504889D02*
X2723104Y28494021D01*
X2584047Y28518181D02*
X2653365Y28504889D01*
X2515235Y28533880D02*
X2584047Y28518181D01*
X2447011Y28551968D02*
X2515235Y28533880D01*
X2379460Y28572423D02*
X2447011Y28551968D01*
X2312662Y28595219D02*
X2379460Y28572423D01*
X2246699Y28620329D02*
X2312662Y28595219D01*
X2181651Y28647723D02*
X2246699Y28620329D01*
X2117597Y28677367D02*
X2181651Y28647723D01*
X2054616Y28709225D02*
X2117597Y28677367D01*
X1992783Y28743259D02*
X2054616Y28709225D01*
X1932173Y28779427D02*
X1992783Y28743259D01*
X1872861Y28817685D02*
X1932173Y28779427D01*
X1814918Y28857987D02*
X1872861Y28817685D01*
X1758415Y28900284D02*
X1814918Y28857987D01*
X1703420Y28944524D02*
X1758415Y28900284D01*
X1650000Y28990654D02*
X1703420Y28944524D01*
X1643008Y29000548D02*
X1650000Y28990654D01*
X1635676Y29010193D02*
X1643008Y29000548D01*
X1628012Y29019577D02*
X1635676Y29010193D01*
X1620026Y29028687D02*
X1628012Y29019577D01*
X1611727Y29037515D02*
X1620026Y29028687D01*
X1603126Y29046047D02*
X1611727Y29037515D01*
X1594233Y29054275D02*
X1603126Y29046047D01*
X1585059Y29062188D02*
X1594233Y29054275D01*
X1575614Y29069777D02*
X1585059Y29062188D01*
X1565911Y29077033D02*
X1575614Y29069777D01*
X1555962Y29083946D02*
X1565911Y29077033D01*
X1545777Y29090508D02*
X1555962Y29083946D01*
X1535370Y29096711D02*
X1545777Y29090508D01*
X1524754Y29102548D02*
X1535370Y29096711D01*
X1513940Y29108012D02*
X1524754Y29102548D01*
X1502943Y29113096D02*
X1513940Y29108012D01*
X1491775Y29117794D02*
X1502943Y29113096D01*
X1480451Y29122099D02*
X1491775Y29117794D01*
X1468983Y29126008D02*
X1480451Y29122099D01*
X1457386Y29129515D02*
X1468983Y29126008D01*
X1445674Y29132616D02*
X1457386Y29129515D01*
X1433861Y29135307D02*
X1445674Y29132616D01*
X1421962Y29137585D02*
X1433861Y29135307D01*
X1409990Y29139447D02*
X1421962Y29137585D01*
X1397961Y29140891D02*
X1409990Y29139447D01*
X1385889Y29141915D02*
X1397961Y29140891D01*
X1373789Y29142518D02*
X1385889Y29141915D01*
X1361674Y29142700D02*
X1373789Y29142518D01*
X1349561Y29142459D02*
X1361674Y29142700D01*
X1337464Y29141796D02*
X1349561Y29142459D01*
X1325397Y29140712D02*
X1337464Y29141796D01*
X1313375Y29139209D02*
X1325397Y29140712D01*
X1301413Y29137288D02*
X1313375Y29139209D01*
X1289525Y29134951D02*
X1301413Y29137288D01*
X1277726Y29132202D02*
X1289525Y29134951D01*
X1266029Y29129043D02*
X1277726Y29132202D01*
X1254450Y29125479D02*
X1266029Y29129043D01*
X1243001Y29121514D02*
X1254450Y29125479D01*
X1231698Y29117152D02*
X1243001Y29121514D01*
X1220554Y29112399D02*
X1231698Y29117152D01*
X1209582Y29107261D02*
X1220554Y29112399D01*
X1198795Y29101744D02*
X1209582Y29107261D01*
X1188208Y29095855D02*
X1198795Y29101744D01*
X1177832Y29089600D02*
X1188208Y29095855D01*
X1167680Y29082988D02*
X1177832Y29089600D01*
X1157764Y29076026D02*
X1167680Y29082988D01*
X1148097Y29068723D02*
X1157764Y29076026D01*
X1138690Y29061088D02*
X1148097Y29068723D01*
X1129555Y29053129D02*
X1138690Y29061088D01*
X1120703Y29044857D02*
X1129555Y29053129D01*
X1112144Y29036282D02*
X1120703Y29044857D01*
X1103889Y29027414D02*
X1112144Y29036282D01*
X1095948Y29018264D02*
X1103889Y29027414D01*
X1088330Y29008843D02*
X1095948Y29018264D01*
X1081046Y28999162D02*
X1088330Y29008843D01*
X1074103Y28989234D02*
X1081046Y28999162D01*
X1067509Y28979069D02*
X1074103Y28989234D01*
X1061274Y28968681D02*
X1067509Y28979069D01*
X1055405Y28958082D02*
X1061274Y28968681D01*
X1049908Y28947286D02*
X1055405Y28958082D01*
X1044791Y28936304D02*
X1049908Y28947286D01*
X1040059Y28925150D02*
X1044791Y28936304D01*
X1035719Y28913839D02*
X1040059Y28925150D01*
X1031775Y28902383D02*
X1035719Y28913839D01*
X1028233Y28890797D02*
X1031775Y28902383D01*
X1025097Y28879095D02*
X1028233Y28890797D01*
X1022370Y28867290D02*
X1025097Y28879095D01*
X1020055Y28855398D02*
X1022370Y28867290D01*
X1018157Y28843432D02*
X1020055Y28855398D01*
X1016676Y28831407D02*
X1018157Y28843432D01*
X1015616Y28819338D02*
X1016676Y28831407D01*
X1014976Y28807240D02*
X1015616Y28819338D01*
X1014758Y28795126D02*
X1014976Y28807240D01*
X1014962Y28783012D02*
X1014758Y28795126D01*
X1015588Y28770913D02*
X1014962Y28783012D01*
X1016635Y28758843D02*
X1015588Y28770913D01*
X1018101Y28746816D02*
X1016635Y28758843D01*
X1019986Y28734848D02*
X1018101Y28746816D01*
X1022287Y28722953D02*
X1019986Y28734848D01*
X1025000Y28711146D02*
X1022287Y28722953D01*
X1025000Y19375000D02*
X1025000Y28711146D01*
M02*
