%TF.GenerationSoftware,KiCad,Pcbnew,8.0.1*%
%TF.CreationDate,2024-04-23T14:12:21-07:00*%
%TF.ProjectId,week4PCB,7765656b-3450-4434-922e-6b696361645f,rev?*%
%TF.SameCoordinates,Original*%
%TF.FileFunction,OtherDrawing,Comment*%
%FSLAX46Y46*%
G04 Gerber Fmt 4.6, Leading zero omitted, Abs format (unit mm)*
G04 Created by KiCad (PCBNEW 8.0.1) date 2024-04-23 14:12:21*
%MOMM*%
%LPD*%
G01*
G04 APERTURE LIST*
%ADD10C,0.500000*%
G04 APERTURE END LIST*
D10*
X30920344Y25495482D02*
X31180645Y25500000D01*
X30660357Y25481932D02*
X30920344Y25495482D01*
X30400997Y25459367D02*
X30660357Y25481932D01*
X30142576Y25427814D02*
X30400997Y25459367D01*
X29885406Y25387311D02*
X30142576Y25427814D01*
X29629797Y25337906D02*
X29885406Y25387311D01*
X29376056Y25279661D02*
X29629797Y25337906D01*
X29124490Y25212644D02*
X29376056Y25279661D01*
X28875401Y25136936D02*
X29124490Y25212644D01*
X28629090Y25052629D02*
X28875401Y25136936D01*
X28385853Y24959823D02*
X28629090Y25052629D01*
X28145984Y24858632D02*
X28385853Y24959823D01*
X27909772Y24749177D02*
X28145984Y24858632D01*
X27677500Y24631589D02*
X27909772Y24749177D01*
X27449450Y24506011D02*
X27677500Y24631589D01*
X27225895Y24372594D02*
X27449450Y24506011D01*
X27007105Y24231498D02*
X27225895Y24372594D01*
X26793345Y24082894D02*
X27007105Y24231498D01*
X26584870Y23926960D02*
X26793345Y24082894D01*
X26381934Y23763885D02*
X26584870Y23926960D01*
X26184779Y23593865D02*
X26381934Y23763885D01*
X25993644Y23417105D02*
X26184779Y23593865D01*
X25808759Y23233817D02*
X25993644Y23417105D01*
X25630346Y23044223D02*
X25808759Y23233817D01*
X25458621Y22848551D02*
X25630346Y23044223D01*
X25293791Y22647037D02*
X25458621Y22848551D01*
X25136054Y22439924D02*
X25293791Y22647037D01*
X24985600Y22227461D02*
X25136054Y22439924D01*
X24842611Y22009904D02*
X24985600Y22227461D01*
X24707259Y21787516D02*
X24842611Y22009904D01*
X24579706Y21560564D02*
X24707259Y21787516D01*
X24460108Y21329321D02*
X24579706Y21560564D01*
X24348606Y21094068D02*
X24460108Y21329321D01*
X24245337Y20855086D02*
X24348606Y21094068D01*
X24150425Y20612663D02*
X24245337Y20855086D01*
X24063983Y20367093D02*
X24150425Y20612663D01*
X23986117Y20118671D02*
X24063983Y20367093D01*
X23916919Y19867696D02*
X23986117Y20118671D01*
X23856473Y19614470D02*
X23916919Y19867696D01*
X23804853Y19359299D02*
X23856473Y19614470D01*
X23762120Y19102491D02*
X23804853Y19359299D01*
X23728325Y18844353D02*
X23762120Y19102491D01*
X23703510Y18585199D02*
X23728325Y18844353D01*
X23687704Y18325339D02*
X23703510Y18585199D01*
X23680927Y18065087D02*
X23687704Y18325339D01*
X23683186Y17804757D02*
X23680927Y18065087D01*
X23694480Y17544662D02*
X23683186Y17804757D01*
X23714793Y17285116D02*
X23694480Y17544662D01*
X23744102Y17026431D02*
X23714793Y17285116D01*
X23782372Y16768920D02*
X23744102Y17026431D01*
X23829556Y16512891D02*
X23782372Y16768920D01*
X23885597Y16258655D02*
X23829556Y16512891D01*
X23950429Y16006516D02*
X23885597Y16258655D01*
X24023972Y15756780D02*
X23950429Y16006516D01*
X24106138Y15509747D02*
X24023972Y15756780D01*
X24196829Y15265714D02*
X24106138Y15509747D01*
X24295935Y15024975D02*
X24196829Y15265714D01*
X24403336Y14787822D02*
X24295935Y15024975D01*
X24518903Y14554538D02*
X24403336Y14787822D01*
X24642498Y14325407D02*
X24518903Y14554538D01*
X24773970Y14100703D02*
X24642498Y14325407D01*
X24913162Y13880697D02*
X24773970Y14100703D01*
X25059905Y13665655D02*
X24913162Y13880697D01*
X25214024Y13455835D02*
X25059905Y13665655D01*
X25375332Y13251491D02*
X25214024Y13455835D01*
X25543635Y13052868D02*
X25375332Y13251491D01*
X25718730Y12860206D02*
X25543635Y13052868D01*
X25900406Y12673737D02*
X25718730Y12860206D01*
X26088444Y12493686D02*
X25900406Y12673737D01*
X26282618Y12320269D02*
X26088444Y12493686D01*
X26482694Y12153697D02*
X26282618Y12320269D01*
X26688431Y11994168D02*
X26482694Y12153697D01*
X26899580Y11841876D02*
X26688431Y11994168D01*
X27115888Y11697004D02*
X26899580Y11841876D01*
X27337093Y11559727D02*
X27115888Y11697004D01*
X27562930Y11430210D02*
X27337093Y11559727D01*
X27793126Y11308609D02*
X27562930Y11430210D01*
X28027403Y11195070D02*
X27793126Y11308609D01*
X28265480Y11089731D02*
X28027403Y11195070D01*
X28507069Y10992719D02*
X28265480Y11089731D01*
X28751880Y10904149D02*
X28507069Y10992719D01*
X28999617Y10824129D02*
X28751880Y10904149D01*
X29249982Y10752756D02*
X28999617Y10824129D01*
X29502674Y10690115D02*
X29249982Y10752756D01*
X29757387Y10636282D02*
X29502674Y10690115D01*
X30013815Y10591322D02*
X29757387Y10636282D01*
X30271649Y10555289D02*
X30013815Y10591322D01*
X30530579Y10528225D02*
X30271649Y10555289D01*
X30790292Y10510165D02*
X30530579Y10528225D01*
X31050475Y10501130D02*
X30790292Y10510165D01*
X31310815Y10501130D02*
X31050475Y10501130D01*
X31570998Y10510165D02*
X31310815Y10501130D01*
X31830710Y10528225D02*
X31570998Y10510165D01*
X32089640Y10555289D02*
X31830710Y10528225D01*
X32347474Y10591322D02*
X32089640Y10555289D01*
X32603902Y10636282D02*
X32347474Y10591322D01*
X32858616Y10690115D02*
X32603902Y10636282D01*
X33111307Y10752756D02*
X32858616Y10690115D01*
X33361672Y10824129D02*
X33111307Y10752756D01*
X33609409Y10904149D02*
X33361672Y10824129D01*
X33854220Y10992719D02*
X33609409Y10904149D01*
X34095810Y11089731D02*
X33854220Y10992719D01*
X34333886Y11195070D02*
X34095810Y11089731D01*
X34568164Y11308609D02*
X34333886Y11195070D01*
X34798359Y11430210D02*
X34568164Y11308609D01*
X35024196Y11559727D02*
X34798359Y11430210D01*
X35245401Y11697004D02*
X35024196Y11559727D01*
X35461709Y11841876D02*
X35245401Y11697004D01*
X35672858Y11994168D02*
X35461709Y11841876D01*
X35878595Y12153697D02*
X35672858Y11994168D01*
X36078671Y12320269D02*
X35878595Y12153697D01*
X36272845Y12493686D02*
X36078671Y12320269D01*
X36460883Y12673737D02*
X36272845Y12493686D01*
X36642560Y12860206D02*
X36460883Y12673737D01*
X36817655Y13052868D02*
X36642560Y12860206D01*
X36985958Y13251491D02*
X36817655Y13052868D01*
X37147265Y13455835D02*
X36985958Y13251491D01*
X37301384Y13665655D02*
X37147265Y13455835D01*
X37448128Y13880697D02*
X37301384Y13665655D01*
X37587319Y14100703D02*
X37448128Y13880697D01*
X37718792Y14325407D02*
X37587319Y14100703D01*
X37842386Y14554538D02*
X37718792Y14325407D01*
X37957953Y14787822D02*
X37842386Y14554538D01*
X38065354Y15024975D02*
X37957953Y14787822D01*
X38164460Y15265714D02*
X38065354Y15024975D01*
X38255151Y15509747D02*
X38164460Y15265714D01*
X38337317Y15756780D02*
X38255151Y15509747D01*
X38410861Y16006516D02*
X38337317Y15756780D01*
X38475692Y16258655D02*
X38410861Y16006516D01*
X38531733Y16512891D02*
X38475692Y16258655D01*
X38578917Y16768920D02*
X38531733Y16512891D01*
X38617187Y17026431D02*
X38578917Y16768920D01*
X38646496Y17285116D02*
X38617187Y17026431D01*
X38666810Y17544662D02*
X38646496Y17285116D01*
X38678103Y17804757D02*
X38666810Y17544662D01*
X38680362Y18065087D02*
X38678103Y17804757D01*
X38673585Y18325339D02*
X38680362Y18065087D01*
X38657779Y18585199D02*
X38673585Y18325339D01*
X38632964Y18844353D02*
X38657779Y18585199D01*
X38599170Y19102491D02*
X38632964Y18844353D01*
X38556436Y19359299D02*
X38599170Y19102491D01*
X38504816Y19614470D02*
X38556436Y19359299D01*
X38444370Y19867696D02*
X38504816Y19614470D01*
X38375173Y20118671D02*
X38444370Y19867696D01*
X38297306Y20367093D02*
X38375173Y20118671D01*
X38210864Y20612663D02*
X38297306Y20367093D01*
X38115952Y20855086D02*
X38210864Y20612663D01*
X38012683Y21094068D02*
X38115952Y20855086D01*
X37901182Y21329321D02*
X38012683Y21094068D01*
X37781583Y21560564D02*
X37901182Y21329321D01*
X37654030Y21787516D02*
X37781583Y21560564D01*
X37518678Y22009904D02*
X37654030Y21787516D01*
X37375689Y22227461D02*
X37518678Y22009904D01*
X37225235Y22439924D02*
X37375689Y22227461D01*
X37067498Y22647037D02*
X37225235Y22439924D01*
X36902668Y22848551D02*
X37067498Y22647037D01*
X36730943Y23044223D02*
X36902668Y22848551D01*
X36552531Y23233817D02*
X36730943Y23044223D01*
X36367646Y23417105D02*
X36552531Y23233817D01*
X36176510Y23593865D02*
X36367646Y23417105D01*
X35979356Y23763885D02*
X36176510Y23593865D01*
X35776419Y23926960D02*
X35979356Y23763885D01*
X35567944Y24082894D02*
X35776419Y23926960D01*
X35354184Y24231498D02*
X35567944Y24082894D01*
X35135394Y24372594D02*
X35354184Y24231498D01*
X34911840Y24506011D02*
X35135394Y24372594D01*
X34683789Y24631589D02*
X34911840Y24506011D01*
X34451518Y24749177D02*
X34683789Y24631589D01*
X34215305Y24858632D02*
X34451518Y24749177D01*
X33975436Y24959823D02*
X34215305Y24858632D01*
X33732199Y25052629D02*
X33975436Y24959823D01*
X33485888Y25136936D02*
X33732199Y25052629D01*
X33236799Y25212644D02*
X33485888Y25136936D01*
X32985233Y25279661D02*
X33236799Y25212644D01*
X32731492Y25337906D02*
X32985233Y25279661D01*
X32475883Y25387311D02*
X32731492Y25337906D01*
X32218713Y25427814D02*
X32475883Y25387311D01*
X31960293Y25459367D02*
X32218713Y25427814D01*
X31700932Y25481932D02*
X31960293Y25459367D01*
X31440945Y25495482D02*
X31700932Y25481932D01*
X31180645Y25500000D02*
X31440945Y25495482D01*
X21180645Y10500000D02*
X6180645Y10500000D01*
X21180645Y25500000D02*
X21180645Y10500000D01*
X6180645Y25500000D02*
X21180645Y25500000D01*
X6180645Y10500000D02*
X6180645Y25500000D01*
X56180645Y10500000D02*
X41180645Y10500000D01*
X56180645Y25500000D02*
X56180645Y10500000D01*
X41180645Y25500000D02*
X56180645Y25500000D01*
X41180645Y10500000D02*
X41180645Y25500000D01*
M02*
